<svg width="50" height="40" viewBox="0 0 50 40" fill="none" xmlns="http://www.w3.org/2000/svg">
<path d="M31.4394 7.32178H4V38.3218H11.6372V28.2364H26.2716L32.9481 38.3218H41.5L34.1371 28.1899C36.4237 27.8179 38.0702 26.9348 39.0763 25.5405C40.0824 24.1463 40.5853 21.9154 40.5853 18.9408V16.617C40.5853 14.8508 40.4024 13.4565 40.0824 12.3876C39.7621 11.3186 39.2134 10.389 38.4359 9.55266C37.6127 8.76247 36.6983 8.2046 35.6007 7.83288C34.5031 7.50763 33.131 7.32178 31.4388 7.32178H31.4394ZM30.2046 21.404H11.6369V14.1538H30.2049C31.2568 14.1538 31.9883 14.3397 32.3543 14.6649C32.7195 14.9902 32.9481 15.5945 32.9481 16.4776V19.0802C32.9481 20.0098 32.7195 20.6141 32.3537 20.9394C31.988 21.2646 31.2562 21.404 30.2046 21.404Z" fill="white"/>
<path d="M42.5007 7.82178C44.4327 7.82178 46 6.25483 46 4.32178C46 2.38873 44.4327 0.821777 42.5007 0.821777C40.5673 0.821777 39 2.38873 39 4.32178C39 6.25483 40.5673 7.82178 42.5007 7.82178Z" fill="#F41240"/>
</svg>
