<svg width="50" height="40" viewBox="0 0 50 40" fill="none" xmlns="http://www.w3.org/2000/svg">
<path d="M45.9378 5.75961C46.2521 4.71572 45.9378 3.9502 44.4516 3.9502H39.5285C38.2758 3.9502 37.7034 4.61245 37.3891 5.3398C37.3891 5.3398 34.886 11.4438 31.339 15.4016C30.1941 16.5532 29.671 16.9169 29.0469 16.9169C28.7349 16.9169 28.2814 16.5532 28.2814 15.5093V5.75961C28.2814 4.50694 27.92 3.9502 26.8761 3.9502H19.1401C18.3589 3.9502 17.8874 4.52939 17.8874 5.08164C17.8874 6.26696 19.6609 6.54084 19.8428 9.88129V17.1279C19.8428 18.7151 19.5576 19.0047 18.9291 19.0047C17.2611 19.0047 13.2023 12.8783 10.7935 5.86512C10.3243 4.50245 9.85059 3.95244 8.59343 3.95244H3.67256C2.26499 3.95244 1.98438 4.61469 1.98438 5.34205C1.98438 6.6486 3.65235 13.114 9.75406 21.6649C13.8219 27.5039 19.5487 30.6693 24.7659 30.6693C27.8931 30.6693 28.2792 29.9666 28.2792 28.7544V24.3408C28.2792 22.9355 28.5778 22.6527 29.5678 22.6527C30.2951 22.6527 31.5478 23.0208 34.4684 25.8337C37.8044 29.1697 38.3567 30.667 40.2312 30.667H45.152C46.5574 30.667 47.26 29.9644 46.8559 28.577C46.4137 27.1964 44.8198 25.1872 42.7051 22.8098C41.5557 21.4539 39.8383 19.9947 39.3152 19.2651C38.5856 18.3244 38.7967 17.9091 39.3152 17.074C39.3175 17.0763 45.3137 8.63086 45.9378 5.75961Z" fill="#3894FF"/>
</svg>
