<svg width="44" height="40" viewBox="0 0 44 40" fill="none" xmlns="http://www.w3.org/2000/svg">
<path d="M27.8755 0.177498C27.5057 0.27364 27.025 0.428951 26.8031 0.525093C26.4481 0.680405 10.9394 8.7417 9.37147 9.58481C5.59967 11.6334 4.19449 16.2483 6.22091 19.961C7.01965 21.4327 8.19556 22.5273 9.77084 23.2742C10.4365 23.5923 11.6863 23.962 12.0857 23.962C12.1892 23.962 12.3519 23.9842 12.4481 24.0064C12.6034 24.0508 12.6034 24.0582 12.3741 24.1765C12.241 24.2505 11.531 24.6203 10.7988 24.9974C9.13481 25.8553 8.62451 26.1807 7.9589 26.8168C4.03179 30.522 4.99323 36.8675 9.8374 39.2341C11.0873 39.848 11.5236 39.9515 13.0693 39.9885C14.4967 40.0329 14.9996 39.9589 16.0498 39.5891C16.5971 39.3894 33.3409 30.6921 34.258 30.13C36.0107 29.0503 37.3124 27.1052 37.7192 24.9752C38.1185 22.8527 37.4751 20.4935 36.0033 18.7481C34.7461 17.2541 32.6161 16.1448 30.7894 16.0339C30.6341 16.0265 30.5305 15.9969 30.5675 15.9673C30.5971 15.9377 31.3367 15.5383 32.2094 15.0798C34.0657 14.111 34.502 13.8299 35.1972 13.1717C36.4027 12.0106 37.1349 10.709 37.4529 9.11889C38.1259 5.8352 36.4915 2.44058 33.4962 0.872692C32.1872 0.192287 31.3293 0 29.7096 0C28.7408 0.0073967 28.4376 0.0369797 27.8755 0.177498ZM26.5369 19.643C26.8919 19.8574 27.1581 20.0497 27.1285 20.0645C27.0915 20.0867 24.9542 21.3883 22.3731 22.9636C19.792 24.5389 17.5659 25.8923 17.4402 25.9737L17.1961 26.1216V20.0201V13.9187L21.5448 16.5811C23.9336 18.0455 26.1745 19.4211 26.5369 19.643Z" fill="#F40407"/>
</svg>
