<svg width="94" height="50" viewBox="0 0 94 50" fill="none" xmlns="http://www.w3.org/2000/svg">
<path fill-rule="evenodd" clip-rule="evenodd" d="M22.456 49.7039C35.4426 49.7671 44.2349 45.9718 56.1092 44.7523C68.2871 43.5015 86.6852 46.9304 90.3644 48.8118C77.3213 46.1043 71.9 45.6741 64.2916 45.6869C67.0838 45.8876 73.8236 47.697 73.6473 48.6493C73.471 49.6017 63.9075 48.2438 59.451 48.5882C54.9945 48.9325 53.4854 49.2897 51.86 49.97C55.6169 47.2999 64.6519 47.7418 69.1133 47.7176C69.1133 47.7176 61.3853 45.9659 53.4988 46.9063C45.6124 47.8468 35.6855 50.9652 22.456 49.7039ZM0 42.5809C0 42.5809 14.7502 48.1283 34.5597 44.8192C54.3692 41.5103 56.5559 40.6141 69.427 41.6331C82.2983 42.6522 93.7857 47.0851 93.7857 47.0851C93.7857 47.0851 78.3382 42.8894 64.5841 42.6154C50.8301 42.3412 40.7138 45.4264 32.5496 46.5633C24.3854 47.7001 9.31384 47.8162 0 42.5809ZM13.5429 42.1424C13.5429 42.1424 18.0317 44.0744 26.7026 43.7672C32.5543 43.5598 37.5953 42.355 42.2892 42.0054C40.0867 41.5667 38.0596 41.6174 32.4532 42.2823C26.8468 42.9473 22.241 42.9919 13.5429 42.1424Z" fill="#FEFEFE"/>
<path fill-rule="evenodd" clip-rule="evenodd" d="M56.4249 19.2803L58.6476 16.6319L57.0491 12.3533C56.8093 11.4798 56.4804 10.639 56.3194 9.7366C56.096 8.90331 56.2613 7.69956 56.9892 7.23672C57.9066 6.65339 59.1634 7.20579 60.0958 7.88686C59.6201 6.63632 58.573 5.78867 56.8666 6.09656C56.1299 6.22947 55.2548 7.08837 54.6065 7.46267C55.111 5.57927 55.9637 4.66082 57.3737 4.01115L57.0171 4.83345C57.4397 4.48645 58.0905 4.09549 58.8058 3.87864L58.3252 4.73622C58.6826 4.42224 59.3516 4.1601 60.1213 3.86776L59.2679 5.26525C60.0802 4.75938 60.7799 4.62048 61.5503 4.44811L60.164 5.82787C61.2196 5.64031 62.1102 5.37772 62.8103 5.02856L61.0432 6.45643C62.2309 6.32776 63.1825 5.96743 63.8324 5.35697C63.7128 5.80349 63.3723 6.53736 62.7044 7.24695C63.4698 6.96738 63.9127 6.84519 64.6052 6.38113C64.6375 6.52958 64.5329 7.28354 63.9617 7.60298L62.0364 8.67926C61.3467 9.0648 60.963 10.763 61.1304 12.0609L62.2608 10.1029C61.7866 11.7997 62.8366 13.3389 64.0252 14.5923C63.9996 13.8429 64.14 13.0934 64.3266 12.8848C64.7679 13.6492 66.3796 14.625 66.5782 16.0167C66.9018 15.693 67.2667 15.2248 67.3774 14.5068C67.7893 15.173 67.8389 16.1277 67.9761 16.64C68.4821 15.9834 68.8094 14.6793 68.8581 14.3494C69.3167 14.9976 69.4662 16.6277 69.4965 17.5614C69.7949 17.2631 70.3959 16.4544 70.354 15.4619C70.5474 16.1835 71.2408 17.4158 70.9717 18.8315C71.9926 19.2983 73.1361 19.3358 74.157 19.4149C73.8882 15.7266 73.1306 13.9279 72.1341 12.6659C71.4633 11.8161 71.1371 10.1801 70.7779 9.70874C69.7805 8.40034 69.2433 7.41691 67.909 5.89408C67.4779 5.4021 67.4019 5.06542 67.2689 4.42905C67.5064 4.56619 67.7439 4.7033 67.9813 4.8404C67.9592 4.35891 67.3273 3.2123 66.9214 2.76567C66.1535 1.92087 65.3094 1.42773 64.2148 1.09929L65.1759 1.03008C64.1504 0.252602 62.8245 0.293755 62.1212 0.335609L62.5078 0.00538635C61.7155 -0.0366325 61.0554 0.187984 60.6623 0.349014C56.6707 0.578327 54.9324 2.30678 52.9858 4.21419C48.1167 4.23663 40.8697 8.68233 33.4861 11.0262C31.9174 11.5242 30.3469 12.3049 29.21 13.495C27.861 14.9073 27.1335 16.2607 26.1569 17.9521C25.5532 18.9978 24.9081 20.5816 24.4691 21.7065C23.8669 23.2499 23.7521 24.9516 23.1827 26.5075C22.5384 28.2683 21.6259 29.0047 20.3838 30.2468C20.0352 30.1534 19.4224 30.0984 19.0626 30.1265C18.4067 30.1777 18.2878 30.3483 17.6304 30.3726C17.1332 30.3911 16.4699 30.2198 15.9892 30.091C16.1729 30.2746 16.4099 30.4794 16.6437 30.5927C17.05 30.7897 17.4127 30.8757 17.849 30.9927C17.2265 30.9927 16.793 30.9234 16.1928 31.0886C15.5613 31.2626 15.0795 31.6886 14.4395 31.8282C14.0157 31.9207 13.4413 31.7508 13.0222 31.6386C13.3319 32.1748 14.1478 32.405 14.7366 32.3622C15.3203 32.3197 15.6917 32.2814 16.2468 32.1326C16.0184 32.4861 15.5781 32.6252 15.1983 32.899C14.7804 33.2001 14.702 33.4964 14.3378 33.8606C14.8451 33.5677 15.4673 33.3159 15.991 33.0533C16.6653 32.7152 17.296 32.6326 17.907 32.1928C17.7581 32.7527 16.7752 33.2709 16.3405 33.7057C17.5394 33.3424 17.8318 33.0372 19.1093 32.6949C18.7843 33.248 18.278 33.7105 17.678 34.1261C18.9603 33.7826 19.4894 33.5214 20.2867 32.2752C20.5701 31.8322 20.6518 31.3877 20.7879 30.8797C22.9694 29.4811 23.6582 28.2623 24.5837 26.2156C25.1589 24.9432 25.3065 23.5178 25.6679 22.169L25.6988 28.1213L37.2923 16.0999L41.3379 19.1413L49.515 12.1829L56.4249 19.2803ZM35.429 42.5093L34.9108 39.65L32.6615 35.9547L38.3009 37.1682L39.5607 39.9394L40.6514 40.7934L41.0651 41.9929L35.429 42.5093ZM30.8826 30.5198L32.8742 29.997L36.3081 24.7333L39.608 20.9047L37.3465 17.8431L32.273 24.4036L28.6851 29.6999L28.6786 27.512L22.9718 32.1355L20.2717 35.9564L19.0648 39.7607L19.9703 39.3849L19.8521 42.9922H26.4674L25.9614 41.4697L24.8857 40.841L24.5508 40.0883L25.4149 38.4058L30.2832 35.2275L31.7691 32.4924L25.2585 33.6736L30.8826 30.5198ZM64.2377 9.88102C66.0504 9.32975 66.1802 9.18824 67.7219 10.1626C67.8769 10.7413 68.0321 11.3201 68.1871 11.8988C67.8885 11.8187 67.6554 11.7564 67.3568 11.6764C66.9693 11.6764 66.7667 11.7519 66.2788 11.6587C65.5903 11.2917 65.5109 11.0908 65.2703 10.1926C64.8911 10.0782 64.617 9.99543 64.2377 9.88102ZM65.287 19.1555C65.287 19.1555 67.5748 22.5263 73.4649 22.3468C79.355 22.1673 82.7904 19.1408 83.5975 14.887C84.4046 10.6334 82.0018 7.26769 79.9673 6.27036C81.3503 8.65794 82.0404 10.4661 81.7988 13.5159C81.5573 16.5657 79.4487 19.2352 75.4196 19.9533C71.3904 20.6714 68.4086 18.3256 67.3256 18.1849C66.2426 18.0443 65.5703 18.5816 65.287 19.1555ZM75.9781 24.2218C75.9781 24.2218 84.2357 23.1447 86.1107 17.4402C87.9856 11.7355 86.1227 7.73642 83.9246 5.41662C85.5942 9.52584 88.59 19.2273 75.9781 24.2218ZM74.1397 31.25C73.5384 33.447 72.1878 35.4584 69.546 36.0519C66.606 36.7127 63.0055 35.5797 63.3255 32.5732C63.3941 31.9296 64.1321 31.1885 64.9382 31.2603C65.8287 31.3396 66.151 32.0207 66.1325 32.8256C65.9529 32.8737 65.7147 32.8339 65.5292 32.7939C65.5283 32.5242 65.4539 32.3876 65.262 32.249C64.9095 31.9943 64.4814 32.1753 64.3783 32.4905C64.217 32.9831 64.5134 33.8353 65.0871 34.1706C67.4263 35.5379 69.5228 34.1507 69.9792 32.0882C70.4563 29.9318 69.2314 27.716 69.487 26.1677C69.6455 26.8866 70.1013 28.1695 70.241 28.5598C70.817 30.1699 71.1755 32.0198 69.924 34.0626C72.1475 32.2527 70.8531 29.152 71.2657 27.3657L72.7871 27.0634L70.817 26.4258C71.421 26.1141 71.9071 25.9189 72.7198 25.7199C72.1448 25.394 71.6202 25.1902 70.7813 25.1357C71.0619 24.971 71.3333 24.7186 72.1495 24.5647L70.9084 23.8172C72.1314 23.8146 73.2836 23.7223 74.5977 23.588C74.8474 25.911 75.01 28.0694 74.1397 31.25ZM46.3325 42.8196L46.003 41.5901L45.1751 41.1189L44.7172 36.1161L47.8997 33.2869L48.5848 30.7291L49.9983 36.593L49.8045 38.7188L50.3993 40.5859L51.1957 41.3823V42.215L46.3325 42.8196ZM60.7954 18L61.6798 19.172L61.2344 22.8059L60.6451 20.3386L58.055 25.779L61.1765 34.4595L61.9491 38.8406L63.4665 40.358V41.7517H57.7994L56.9991 38.765L56.3448 39.5184L56.1632 36.1298L55.4365 36.8564L50.9464 31.2045L51.3301 26.2131L50.7715 23.473L44.5339 27.0462L45.3277 23.5176L38.7666 26.607L48.6953 17.5543L45.9942 18.0005L49.3713 13.7718L54.7948 21.0098L52.9151 24.3818L56.3943 21.5641L60.7954 18Z" fill="#FEFEFE"/>
</svg>
