<svg width="1251" height="715" viewBox="0 0 1251 715" fill="none" xmlns="http://www.w3.org/2000/svg">
<path d="M937.578 256.182V241.472C937.578 241.321 937.595 241.169 937.629 241.022L944.171 212.715C944.207 212.561 944.261 212.411 944.332 212.27L961.029 178.926C961.15 178.684 961.319 178.469 961.526 178.294L988.655 155.374C989.431 154.718 990.576 154.748 991.316 155.445L1015.62 178.325C1015.78 178.48 1015.97 178.606 1016.18 178.697L1047.85 192.752C1048.61 193.087 1049.49 192.923 1050.08 192.339L1065.4 177.041C1065.83 176.603 1066.45 176.393 1067.07 176.473L1082.19 178.443C1082.76 178.517 1083.33 178.344 1083.76 177.97L1099.79 164.048C1099.97 163.89 1100.18 163.767 1100.41 163.683L1125.74 154.288C1125.86 154.244 1125.97 154.19 1126.08 154.125L1157.2 135.336C1157.51 135.148 1157.87 135.048 1158.23 135.048H1178.45C1179.28 135.048 1180.03 134.531 1180.32 133.751L1185.99 118.646C1186.29 117.865 1187.03 117.349 1187.87 117.349H1223.41H1240.14C1240.77 117.349 1241.36 117.053 1241.74 116.55L1249.26 106.539C1249.71 105.932 1249.79 105.12 1249.45 104.442L1198.85 3.40752C1198.51 2.73055 1197.82 2.30303 1197.06 2.30303H322.334C218.194 1.31973 9.91209 -0.056882 9.91209 2.30303C9.91209 5.25292 13.6041 11.8902 19.5128 16.315C25.4215 20.7398 30.5917 26.6396 30.5917 31.0644C30.5917 35.4893 31.3302 39.9141 30.5917 45.0764C29.8531 50.2387 27.6373 50.2387 24.6838 53.1886C21.7304 56.1385 17.2971 64.9882 13.6041 70.1505C10.9557 73.8526 7.71426 77.0412 6.00738 78.5473C5.66919 78.8457 5.43024 79.2403 5.33776 79.6818L1.17916 99.5316C1.06493 100.077 1.18329 100.645 1.50572 101.099L2.06226 101.883C2.69998 102.782 3.94427 102.995 4.84501 102.361L7.28327 100.643C7.52301 100.474 7.72268 100.255 7.86813 100L11.1506 94.2535C11.2759 94.0341 11.4397 93.8397 11.6424 93.6889C12.9982 92.6803 15.6085 91.1631 17.2489 91.7091C19.0215 92.299 22.9441 94.2985 24.6838 95.2245C30.5925 98.1744 36.5012 95.2245 43.1485 100.387C49.7958 105.549 53.4887 100.387 60.8746 100.387C68.2605 100.387 79.3393 100.387 80.8165 95.2245C82.2936 90.0622 88.9409 95.962 88.9409 100.387C88.9409 104.812 92.6339 105.549 94.8496 105.549C97.0654 105.549 107.406 113.661 109.621 115.136C111.837 116.611 121.439 124.723 125.132 129.148C128.825 133.573 138.426 140.948 142.858 144.635C147.218 148.263 142.997 155.462 142.861 159.205C142.857 159.326 142.847 159.445 142.825 159.564L141.438 167.093C141.368 167.469 141.193 167.817 140.932 168.096L131.198 178.509C131.061 178.656 130.903 178.781 130.728 178.881L120.799 184.546C120.701 184.602 120.597 184.65 120.491 184.689L112.866 187.457C112.641 187.539 112.433 187.659 112.254 187.816C110.782 189.097 108.548 191.268 109.621 191.268H116.958C118.928 191.514 123.015 191.858 123.605 191.268C124.344 190.53 129.514 187.58 130.253 186.843C130.991 186.105 134.684 185.934 135.423 182.984C136.161 180.034 139.854 177.256 139.854 175.781C139.854 174.72 143.464 173.487 145.815 172.85C146.288 172.721 146.787 172.785 147.222 173.012C151.641 175.324 159.995 179.474 162.8 180.034C166.493 180.771 183.48 182.984 190.127 182.984C196.775 182.984 211.546 193.308 213.762 193.308C215.502 193.308 223.547 200.409 227.569 204.159C227.721 204.301 227.847 204.463 227.948 204.644L242.567 230.919L251.205 243.138C251.354 243.348 251.541 243.528 251.758 243.667L261.122 249.677C261.539 249.945 262.041 250.049 262.53 249.967L283.765 246.433C283.873 246.415 283.983 246.406 284.093 246.406H289.113C289.581 246.406 290.033 246.57 290.393 246.869L302.575 257.006C302.935 257.305 303.387 257.468 303.854 257.468H313.739C314.049 257.468 314.354 257.396 314.632 257.258L328.56 250.304C328.837 250.166 329.143 250.094 329.453 250.094H338.813C339.147 250.094 339.476 250.01 339.769 249.85L355.571 241.244L387.578 220.907C387.898 220.703 388.271 220.595 388.65 220.595H413.37C413.73 220.595 414.082 220.498 414.391 220.315L441.247 204.37L463.851 193.45C464.044 193.356 464.222 193.232 464.376 193.081L493.843 164.377C494.216 164.013 494.717 163.809 495.238 163.809H538.741L586.749 161.597L610.661 163.768C610.964 163.795 611.27 163.753 611.555 163.644L635.716 154.42C636.055 154.291 636.423 154.256 636.78 154.32L676.815 161.458C677.316 161.547 677.764 161.824 678.068 162.233L696.497 187.003C696.695 187.269 696.823 187.58 696.871 187.909L702.686 227.826C702.7 227.922 702.707 228.018 702.707 228.114V255.645C702.707 256.946 701.485 257.901 700.223 257.586L690.419 255.139C689.157 254.824 687.935 255.778 687.935 257.079V264.751C687.935 265.282 687.724 265.791 687.348 266.167L677.775 275.725C677.656 275.845 677.551 275.979 677.465 276.125L670.382 288.149C670.267 288.343 670.121 288.516 669.949 288.662L651.682 304.095C651.252 304.459 650.687 304.624 650.128 304.55L640.906 303.322C640.289 303.24 639.669 303.449 639.228 303.889L633.127 309.982C632.752 310.356 632.243 310.566 631.714 310.566H610.279C609.452 310.566 608.71 310.057 608.413 309.285L608.075 308.409C607.328 306.468 604.483 306.816 604.224 308.879L603.834 311.995C603.771 312.499 603.519 312.959 603.129 313.284L595.353 319.754C595.041 320.014 594.656 320.173 594.251 320.209L562.194 323.054C561.83 323.086 561.481 323.218 561.186 323.435L548.382 332.855C547.89 333.217 547.26 333.335 546.671 333.174L532.05 329.193C531.601 329.07 531.122 329.109 530.698 329.301L507.891 339.653C507.318 339.912 506.657 339.888 506.105 339.587L468.284 318.923C467.99 318.763 467.661 318.679 467.325 318.679H455.165C454.759 318.679 454.363 318.802 454.029 319.032L414.259 346.468C414.035 346.623 413.782 346.73 413.515 346.783L399.839 349.514C399.392 349.604 398.988 349.844 398.696 350.194L388.584 362.309C388.253 362.706 387.782 362.959 387.269 363.016L368.127 365.139L341.538 368.827H320.299C319.716 368.827 319.161 369.081 318.782 369.524L310.863 378.749C310.636 379.012 310.345 379.213 310.017 379.33L290.26 386.375C289.981 386.474 289.728 386.634 289.519 386.844L278.289 398.057C278.111 398.234 277.901 398.377 277.67 398.477L256.174 407.778C255.967 407.867 255.747 407.921 255.522 407.937L235.839 409.341C235.412 409.371 235.006 409.538 234.68 409.816L220.308 422.117C219.901 422.466 219.37 422.636 218.835 422.59L186.503 419.782C185.985 419.737 185.471 419.896 185.068 420.223L166.447 435.373C166.006 435.732 165.739 436.261 165.711 436.829L164.296 466.518C164.283 466.777 164.221 467.031 164.111 467.266L155.142 486.556C154.852 487.18 154.26 487.612 153.576 487.697L142.858 489.035L115.764 490.497C115.609 490.505 115.454 490.496 115.3 490.468C112.472 489.948 106.259 488.708 102.235 487.56C98.5351 486.504 97.3176 490.879 97.1022 493.925C97.0574 494.559 97.3679 495.157 97.8801 495.534L124.506 515.123C124.909 515.419 125.407 515.554 125.904 515.501L145.319 513.424C145.643 513.389 145.97 513.434 146.273 513.555L169.512 522.837C170.646 523.29 171.917 522.631 172.2 521.444L175.259 508.615C175.323 508.347 175.331 508.069 175.282 507.798L171.853 488.623C171.734 487.959 171.958 487.281 172.447 486.818L185.48 474.489C185.623 474.354 185.785 474.241 185.961 474.153L199.965 467.161C200.294 466.997 200.661 466.927 201.028 466.958L234.772 469.826C235.042 469.849 235.304 469.926 235.543 470.053L278.997 493.193C279.323 493.367 279.692 493.447 280.061 493.424L302.804 492.005C303.021 491.991 303.234 491.943 303.435 491.861L339.118 477.318C339.254 477.263 339.383 477.193 339.503 477.11L365.675 458.962C365.832 458.853 366.003 458.768 366.183 458.708L388.069 451.424L445.682 436.86C446.156 436.74 446.657 436.798 447.09 437.022L467.629 447.629C467.767 447.7 467.912 447.755 468.062 447.793L494.425 454.373L542.938 463.915C543.093 463.945 543.245 463.994 543.389 464.061L562.048 472.659C562.264 472.759 562.497 472.819 562.735 472.837L630.558 477.935C630.89 477.959 631.211 478.067 631.491 478.248L653.781 492.607C653.9 492.683 654.011 492.772 654.111 492.873L678.119 516.844C678.261 516.986 678.381 517.149 678.475 517.327L692.933 544.756C693.047 544.972 693.12 545.207 693.149 545.45L695.228 562.745C695.288 563.243 695.158 563.745 694.865 564.152L678.805 586.463C678.503 586.884 678.049 587.17 677.539 587.263L654.295 591.483C654.073 591.523 653.86 591.6 653.665 591.711L617.305 612.355C616.679 612.71 616.292 613.375 616.292 614.094V623.325C616.292 623.758 616.433 624.179 616.693 624.526L626.251 637.251C626.882 638.09 626.752 639.269 626.011 640.013C619.466 646.582 615.061 657.543 613.372 662.269C612.95 663.449 613.756 664.677 614.98 664.948C623.321 666.797 629.498 673.07 632.364 677.152C632.924 677.95 632.735 679.022 632.01 679.674C628.536 682.796 623.026 688.413 621.462 692.577C619.718 697.222 624.506 702.247 627.24 704.28C627.328 704.346 627.417 704.399 627.515 704.448C634.471 707.911 649.266 714.55 653.96 713.964C658.588 713.386 666.896 709.934 670.708 708.175C670.869 708.101 671.013 708.009 671.148 707.894C674.456 705.08 681.827 698.357 686.458 692.577C691.185 686.677 700.737 684.219 704.923 683.727H747.437C747.651 683.727 747.865 683.762 748.068 683.83L756.091 686.5C756.439 686.616 756.813 686.634 757.171 686.551L775.455 682.338C775.701 682.281 775.934 682.179 776.142 682.035L835.18 641.281C835.489 641.067 835.852 640.945 836.227 640.928L868.465 639.498C868.745 639.485 869.024 639.532 869.284 639.634L889.218 647.453C889.45 647.544 889.698 647.591 889.948 647.591H909.076C909.363 647.591 909.647 647.653 909.908 647.773L926.88 655.54C927.116 655.648 927.371 655.709 927.631 655.719L963.078 657.164C963.31 657.173 963.538 657.223 963.753 657.311L978.976 663.529C979.428 663.714 979.932 663.727 980.392 663.566L1008.71 653.668C1009.05 653.552 1009.34 653.35 1009.57 653.083L1039.76 617.917C1040.07 617.554 1040.24 617.092 1040.24 616.614V607.698C1040.24 607.264 1040.1 606.843 1039.84 606.497L1037.01 602.727C1036.35 601.845 1035.09 601.666 1034.21 602.328L1032.05 603.948C1030.98 604.75 1029.44 604.294 1028.97 603.039L1024.99 592.246C1024.82 591.793 1024.83 591.294 1025 590.843L1038.64 555.006C1038.72 554.784 1038.84 554.578 1039 554.399L1049.1 542.87L1059.99 529.107C1060.12 528.942 1060.27 528.799 1060.45 528.682L1071.26 521.483L1085.46 510.004C1086.22 509.393 1086.43 508.326 1085.95 507.476L1083.5 503.067C1083.23 502.584 1082.77 502.233 1082.24 502.099L1044.86 492.768C1044.74 492.738 1044.61 492.719 1044.48 492.712L991.427 489.848C990.582 489.803 989.857 489.23 989.617 488.419L980.693 458.26C980.518 457.669 980.626 457.03 980.984 456.529L987.428 447.521C987.671 447.181 987.802 446.774 987.802 446.357V438.674C987.802 437.57 988.697 436.674 989.802 436.674H995.895C996.788 436.674 997.573 436.083 997.818 435.224L1001.59 422.033C1001.75 421.494 1002.12 421.045 1002.62 420.794L1012.18 416.025L1021.41 411.415C1022.09 411.077 1022.5 410.363 1022.81 409.669C1023.43 408.252 1025.18 406.29 1029.16 404.963C1034.48 403.193 1037.78 406.684 1038.76 408.65L1034.58 397.514C1034.42 397.085 1034.41 396.613 1034.56 396.178L1051.69 344.851C1051.92 344.172 1051.77 343.423 1051.29 342.888L1046.87 337.92C1046.42 337.418 1045.75 337.174 1045.08 337.271L1016.63 341.428C1016.14 341.5 1015.64 341.386 1015.23 341.108L986.484 321.736C986.378 321.664 986.279 321.583 986.189 321.493L961.391 296.732C961.272 296.614 961.169 296.482 961.084 296.338L937.858 257.203C937.675 256.894 937.578 256.541 937.578 256.182Z" fill="#A4A4A4" fill-opacity="0.1" stroke="#E6E2DC" stroke-opacity="0.4" stroke-width="2"/>
<path d="M737.5 652C737.5 652.5 735.5 655.5 740.5 656.5C745.5 657.5 750.5 657 754 655.5C757.5 654 766.5 662.5 767.5 662.5C768.5 662.5 768.5 665.5 773 661.5C777.5 657.5 781.5 656 782.5 654C783.5 652 782 652 785 649.5C788 647 794.5 648.5 795 644.5C795.5 640.5 800 639.5 793.5 635.5C787 631.5 785 633.5 785 629C785 624.5 782 625 788.5 620C795 615 792.5 615.5 796.5 613C800.5 610.5 795.5 609.5 803.5 610" stroke="#E6E2DC" stroke-opacity="0.2" stroke-width="0.5"/>
<path d="M695 624C694 624 689.5 625 683.5 624C677.5 623 675 623.5 671.5 622C668 620.5 665.5 617 666.5 617C667.5 617 668.5 617 674.5 616.5C680.5 616 681 617 684.5 615C688 613 691.999 612.5 695 611C698 609.5 697 609 699.5 609C702 609 703.5 608.5 704.5 606.5C705.5 604.5 708 603 709 601.5C710 600 715.5 599 716.5 598C717.5 597 717 597.5 719 595.5C721 593.5 719.5 595 722 589.5C724.5 584 726 582.5 726.5 582C727 581.5 735 571 735 568.5C735 566 733.5 565 736 560.5C738.5 556 741.5 553.5 742 552C742.5 550.5 758 547 758.5 547C759 547 757.5 546.5 763.5 547C769.5 547.5 766.5 547 772 548C777.5 549 781.5 550 784 550C786.5 550 788.5 549 790 549C791.5 549 787.5 546 794 549C800.5 552 804.5 563 806 564.5C807.5 566 805 570.5 810.5 568.5C816 566.5 816 567.5 818.5 564C821 560.5 820.5 559.5 822 558C823.5 556.5 818.5 555 827.5 555C836.5 555 833.5 555 839 555C844.5 555 849 548 851.5 553C854 558 852 560.5 856.5 560.5C861 560.5 866.5 560 867.5 559C868.5 558 873.5 542.5 881 543.5C888.5 544.5 892.5 545.5 895 545C897.5 544.5 901 545 905 546C909 547 908.5 550.5 915 546C921.5 541.5 920 540 923 540C926 540 933 545.5 937 546C941 546.5 946.5 549 945 550.5C943.5 552 940 551 936 555C932 559 931.5 561 929 563C926.5 565 921 571 918 572" stroke="#E6E2DC" stroke-opacity="0.2" stroke-width="0.5"/>
<path d="M1041.5 522.5C1039 522 1034 521.5 1031.5 521.5C1029 521.5 1031.5 519 1027 521.5C1022.5 524 1020.5 524.5 1018.5 524.5C1016.5 524.5 1027.5 521.5 1012 524.5C996.5 527.5 988.5 527.5 986.5 527.5C984.5 527.5 987 529 978.5 527.5C970 526 971 524.5 962.5 524.5C954 524.5 951 522.5 946.5 522.5C942 522.5 939 524 938 526.5C924 526.5 923 527.5 921.5 526.5C920 525.5 921 524.5 917 525.5C913 526.5 912.5 524.5 910 526.5C907.5 528.5 907.5 529.5 906.5 530C905.5 530.5 896.5 525.5 894 525.5C891.5 525.5 890.5 527 887 528.5C883.5 530 884.5 529.5 881 530C877.5 530.5 875 529 871.5 530.5C868 532 861.5 538.5 860 540.5C858.8 542.1 856.834 543.167 856 543.5C854 541.833 849.8 538.3 849 537.5C848 536.5 847 535.5 846 535C845.2 534.6 840 537.167 837.5 538.5C838 539.167 838.4 540.3 836 539.5C833 538.5 828.5 531 826 532C823.5 533 815.5 535.5 815 536.5C814.5 537.5 813.5 535.5 812.5 539.5C811.5 543.5 813.5 544 812.5 545.5C809.501 545.5 808.501 547.5 805.001 543.5C801.501 539.5 798.501 535 797.001 534C795.501 533 799.001 534 790.001 533C781.001 532 778.501 532 771.501 532C764.501 532 762.001 531 756.501 533C751.001 535 751.001 533.5 747.001 536.5C743.001 539.5 741.501 540.5 739.501 542C734.001 545.5 723.501 550.5 723.501 554.5C723.501 558.5 723.501 561.5 723.501 565.5C723.501 569.5 726.501 568 721.001 575.5C715.501 583 716.001 583.5 714.001 587C712.001 590.5 713.001 590 710.501 592.5C708.001 595 708.501 596.5 705.501 597C702.501 597.5 701.001 599.5 699.001 600.5C697.001 601.5 692.001 600 689.001 601.5C686.001 603 686.001 605.5 680.001 606.5C674.001 607.5 674.501 607.5 668.501 608C662.501 608.5 662.501 609.5 659.001 611C655.501 612.5 661.001 610 660.001 617C659.001 624 650.001 626.5 662.501 629C675.001 631.5 680.5 632 683.5 632C686.5 632 678.999 632.5 689 631.5C703.5 630 703.5 628.5 706.5 630C709.5 631.5 715.5 630 724.5 630C733.5 630 741.5 625.5 740 631.5C738.5 637.5 738 640 737.5 641.5C737 643 737.5 642.5 737.5 644.5C737.5 646.5 737.5 646.5 737.5 647.5C737.5 648.3 737.5 650.833 737.5 652" stroke="#E6E2DC" stroke-opacity="0.2" stroke-width="0.5"/>
<path d="M938.5 640.5C939 640 940 639.5 943 638.5H949C952 638.5 951 642.5 951 644C951 645.5 950 645 945 646.5C940 648 939 646.5 937 645C935 643.5 938 641 938.5 640.5Z" stroke="#E6E2DC" stroke-opacity="0.2" stroke-width="0.5"/>
<path d="M1009.5 622C1014.5 623 1015 625.5 1015.5 626.5C1016 627.5 1020 623.5 1015.5 629.5C1011 635.5 1011.5 634.5 1007 639C1002.5 643.5 1001 645.5 999.5 646.5C998 647.5 1003.5 646.5 995 648.5C986.5 650.5 985.5 651 982.5 652.5C979.5 654 979 654 974.5 654.5C970 655 969 654.5 966 653.5C963 652.5 963 651.5 958 651C953 650.5 955 651 947 651C939 651 933 651 931.5 651C930 651 927.5 648 924 646.5C920.5 645 924 645 916 644.5C907 642 907.5 642 907 640C906.5 638 906.5 639 906 636C905.5 633 901.5 630 905 630.5C908.5 631 910 630 910.5 631.5M1008.5 622C1006.17 622.5 1000.7 623.8 997.5 625C993.5 626.5 995.5 628 987 628C978.5 628 987 631 974.5 629.5C962 628 952 621 950 620.5C948 620 945 621.5 947 620.5C949 619.5 953.5 614.5 955 614.5C956.5 614.5 955.5 612.5 962 613.5C967.2 614.3 977.833 613.833 982.5 613.5C984 613.333 987 612.3 987 609.5C987 606 987 607 989 602C991 595 990.5 594 987 591.5C984.2 589.5 980.5 589 979 589C976.833 584.5 973.4 575.5 977 575.5C981.5 575.5 979.5 575.5 986 574.5C992.5 573.5 989 573 997.5 573C1009.5 573 1011.5 569.5 1013.5 574.5C1015.5 579.5 1016.5 583 1017.5 583.5C1018.5 584 1017 584 1020 584.5" stroke="#E6E2DC" stroke-opacity="0.2" stroke-width="0.5"/>
<path d="M1023.5 563C1021 561.5 1015.5 560.5 1012 560C1008.5 559.5 1012.5 556 1003 559C993.5 562 995 561 990.5 563C986 565 985.5 566 982 566C978.5 566 981.5 563 974 567.5C966.5 572 965.5 572 962.5 574.5C959.5 577 960.5 577 957.5 579.5C954.5 582 952.5 584 949.5 586C946.5 588 945.5 588 944 590.5C942.5 593 942 593.5 940.5 595C939 596.5 938 597.5 937 598.5C936 599.5 936 599.5 934 601C932.4 602.2 931 603.167 930.5 603.5C928.666 603.5 924.2 603.5 921 603.5C917 603.5 912 602 912 603.5C912 605 911.5 603.5 913.5 608C915.5 612.5 916.5 615 918 615.5C916 622.5 917.499 622.5 912 622.5C906.5 622.5 911 624.5 904 622.5C896 622.5 896 623.5 896.5 625.5C897 627.5 897.499 625.5 897.499 629C897.499 632.5 901.999 633.5 897.499 634.5C892.999 635.5 893.499 638 888.999 635.5C884.499 633 883.999 634 880.999 630.5C877.999 627 877.499 627.5 876.999 624.5C876.499 621.5 879.999 621 874.999 619C869.999 617 869.499 616.5 868.499 615.5C867.499 614.5 865.499 613.5 866.999 613C868.499 612.5 862 611 870.5 612C879 613 877.5 614 880.5 613.5C883.5 613 881 614.5 885.5 612C890 609.5 889.5 609 893 608C899.5 606.5 900 606.5 901.5 605C903 603.5 901.999 603.5 904 601C906 598.5 903.5 598.5 908.5 597.5C913.5 596.5 912 597 916.5 596.5C921 596 916.5 599 923.5 596.5C930.5 594 925.999 598 934 592C942 586 940.5 587.5 945 584C949.5 580.5 949 583 952 579.5C955 576 952.5 576 956 574.5C959.5 573 957 574.5 961.5 571C966 567.5 962.5 569 969.5 566" stroke="#E6E2DC" stroke-opacity="0.2" stroke-width="0.5"/>
<path d="M864 605.5C867.5 606.5 867.5 607.5 872 606.5C876.5 605.5 881.5 604 886.5 603C891.5 602 892.5 600.5 893.5 600.5C894.5 600.5 894.5 600.5 896.5 600.5C902 593.5 900.5 592.5 904.5 591.5C908.5 590.5 908 590 912 589.5C916 589 912.5 592.5 920.5 588.5C928.5 584.5 926.5 586 933 582.5C939.5 579 940 578 943 577C946 576 939.5 580.5 949.5 574C959.5 567.5 956.5 569.5 962 565.5C967.5 561.5 965 563.5 972.5 559.5C980 555.5 974.5 557 984 553C993.5 549 985.5 551.5 997 547C1008.5 542.5 1007 543 1010 542.5C1013 542 1011.5 542.5 1017.5 540.5C1023.5 538.5 1019.5 539.5 1025 538.5" stroke="#E6E2DC" stroke-opacity="0.2" stroke-width="0.5"/>
<path d="M869.5 594C871.667 593.833 877 592.9 881 590.5C886 587.5 883.5 589 889.5 586C895.5 583 900 580 906 577.5C912 575 907.5 574.5 915 574C922.5 573.5 918.5 578 931 572C943.5 566 947.5 566 954.5 560C961.5 554 958 554 968 549.5C978 545 976.5 546.5 982 544.5C987.5 542.5 989 544.5 992.5 540C996 535.5 1000.5 534.5 989 534.5C977.5 534.5 981 534.5 970 534.5C959 534.5 960 536 954.5 534.5C949 533 956 528 945 533.5C934 539 934 541 929.5 539C925 537 924 534.5 920 534.5C910.5 538 910 538 907.5 539C905 540 909.5 541 902.5 540C895.5 539 895.5 537.5 890.5 537.5C885.5 537.5 872.5 541 871 544.5C869.5 548 867.5 549.5 866.5 550.5C865.5 551.5 869.5 552.5 864 552.5C858.5 552.5 855.5 556.5 852.5 552.5C849.5 548.5 850.5 548 846 548C841.5 548 843.5 546.5 839 548C834.5 549.5 835 549.5 831 549.5C827 549.5 825.5 549.5 822.5 548C819.5 546.5 820.5 543.5 815 549.5C809.5 555.5 811 554 809 557C807 560 802 544.5 800.5 544.5C799 544.5 791 541 787.5 540C784 539 781 539 777 539C773 539 763 539 760.5 539C758 539 747 541 743 544.5C739 548 742 548.5 738.5 549.5C735 550.5 731 553.5 729.5 558C728 562.5 730.5 558.5 728.5 565.5C726.5 572.5 728 571.5 726 575C724 578.5 722 580.5 720.5 583C719 585.5 719.5 585.5 718.5 587C717.5 588.5 715.5 592 713.5 594.5C711.5 597 710 597.5 707.5 600C703 605.5 704.5 604 701.5 606C698.7 608 697.333 609.167 697 609.5" stroke="#E6E2DC" stroke-opacity="0.2" stroke-width="0.5"/>
<path d="M1002.5 497C1002 498.5 1002.5 500 1001 502.5C999.5 505 994 505 992 505C990 505 986.5 502.5 983.5 502.5C980.5 502.5 979.5 502.5 976.5 502.5C973.5 502.5 972.5 500.5 969.5 501.5C966.5 502.5 967 505 965 505C963 505 956.5 501 953 500.5C950.2 500.1 944.5 498 942 497C940.834 497 938.3 497 937.5 497C936.5 497 935 495.5 930.5 495C926 494.5 920 495 917.5 495C912.5 490.5 912.5 488.5 907.5 490.5C902.5 492.5 905 492 901 493.5C897 495 891 493.5 890 493.5C889.2 493.5 886 495.833 884.5 497C884.667 497.833 884.6 498.6 883 495C878 489.5 874 488.5 871.5 489.5C869 490.5 869 490 865.5 493.5C859 497 854.5 493.5 853 493.5C851.5 493.5 854 493.5 849 493.5C844 493.5 841 492 841.5 489.5C842 487 840.5 488.5 845.5 484C850.5 479.5 846.501 481 853 477.5C859.5 474 859.5 474.5 865.5 469.5C871.5 464.5 869.5 468.5 874 463C880.5 457.5 881.001 459.5 884.5 460.5C888 461.5 885.5 462.5 890.5 461.5C895.5 460.5 892.5 460.5 900 459.5C912.5 458 904.5 462.5 917.5 457C930.5 451.5 929 455 934 448.5C940 435.5 938 434.5 940 430.5C942 426.5 941.5 427 945 422C948.5 417 944.001 422.5 953 413C962 403.5 965 404.5 965 402.5C965 400.9 972.667 397.167 976.5 395.5C975.334 395.333 974.4 395.3 980 396.5C987 398 992 397 992 392.5C992 388 988.501 388.5 992 386C995.5 383.5 993.001 381 1001 383.5C1009 386 1008 386 1011 388.5C1021.5 388.5 1022 383.5 1024 383.5C1026 383.5 1030.5 383.5 1033.5 383.5" stroke="#E6E2DC" stroke-opacity="0.2" stroke-width="0.5"/>
<path d="M948 333C948.333 335.5 949.8 341.2 953 344C957 347.5 957 347 961 347.5C965 348 958.5 347.5 969.5 352" stroke="#E6E2DC" stroke-opacity="0.2" stroke-width="0.5"/>
<path d="M954.5 355.5C958.5 356 965.5 358.5 970 360.5C974.5 362.5 973 359.5 977.5 367C982 374.5 984 374 982.5 380C981 386 980 387.5 977.5 389.5C975 391.5 975 392 972.5 393" stroke="#E6E2DC" stroke-opacity="0.2" stroke-width="0.5"/>
<path d="M937.5 302.5C943.5 304.5 951 309.5 951.5 313C952 316.5 954.5 324.5 954.5 328" stroke="#E6E2DC" stroke-opacity="0.2" stroke-width="0.5"/>
<path d="M728.5 394.5C729 392 740 386.5 742.5 384.5C744 384 747.8 382.8 751 382C755 381 760 380 769.5 380.5C779 381 780.5 382.5 783.5 383C786.5 383.5 788 391 784.5 396C781.5 396 778.5 395.5 775.5 396C772.5 396.5 761 402.5 757.5 402.5C754 402.5 728.5 403.5 728.5 401C728.5 398.5 728 397 728.5 394.5Z" stroke="#E6E2DC" stroke-opacity="0.2" stroke-width="0.5"/>
<path d="M736.5 374.5C731.5 374.5 721 386.5 720.5 387.5C719.167 388.667 716.2 391.7 715 394.5C713.5 398 715 397 716.5 401C718 405 720.5 403 726.5 407.5C732.5 412 732.5 408.5 741 410C749.5 411.5 754 408 763 407.5C772 407 772 408.5 780.5 410C789 411.5 785.5 411.5 787 415C788.5 418.5 789 419.5 790.5 421.5C792 423.5 795.5 420.5 796.5 419.5C797.5 418.5 792.5 410.5 796.5 405C800.5 399.5 807 400.5 817 397C827 393.5 821.5 399.5 828 402C834.5 404.5 840.5 402 847.5 402C854.5 402 849.5 399.5 850 391C850.5 382.5 848.5 384.5 847.5 384.5C846.5 384.5 841.5 383.5 837.5 380.5C833.5 377.5 833.5 377.5 825.5 371C817.5 364.5 821.5 368 818 370C814.5 372 806 377 801.5 376.5C797 376 795 371.5 790.5 368C786 364.5 785.5 366.5 775.5 367C765.5 367.5 765 369 752 373C739 377 741.5 374.5 736.5 374.5Z" stroke="#E6E2DC" stroke-opacity="0.2" stroke-width="0.5"/>
<path d="M687 430C691.5 424 691 426 692.5 425.5L694.5 424.5C696.167 423.167 699.8 418.6 701 411C701.5 404.5 703.5 404 703.5 401.5C703.5 399 705.5 396.5 708.5 392C711.5 387.5 713 386 718.5 380C724 374 722.5 377.5 728 375.5C733.5 373.501 734.5 369.5 738.5 367.5C742.5 365.501 744.5 365 771.5 356C798.5 347 775 356 777 356C779 356 780.5 357 782 359.5C783.5 362 787.5 365.5 795 362C797.5 356.5 802 355.5 803.5 354.5C805 353.5 806 352 813.5 338.5C821 325 818.5 340 821 343.5C823.5 347 824.5 346 831 350.5C837.5 355 835.5 355.5 841.5 367.5C847.5 379.5 857 373.5 862 375.5C867 377.5 868 375.5 868 388.5C868 401.5 866.5 392.5 861 399.5C855.5 406.5 856 405.5 853 408.5C850 411.501 846.5 414 843 417.5C839.5 421 841 418.5 832.5 423.5C824 428.5 829 424 826 420.5C823 417 823.5 406 811.5 405.5C799.5 405 811 408.5 810 412C809 415.5 806.5 417.5 799 422C791.5 426.5 794 427 792.5 427.5C791 428 790 427 777 419.5C764 412 768 417.5 762.5 417.5C757 417.5 759.5 416.5 754 417.5C748.5 418.5 747 420 737 425.5C727 431 730.5 430 725 436C719.5 442 722 439.5 717.5 443C713 446.5 716 444.5 709.5 447.5C703 450.5 706.5 449.5 703.5 452.5C700.5 455.5 701 456 698.5 460.5C696 465 696.5 462.5 690 465.5C683.5 468.5 685 465.5 674 462.5C671.5 461 668 455 672 450.5C676 446 676.5 447 679.5 444.5C682.5 442 681 441.5 681.5 438.5C682 435.5 682.5 436 687 430Z" stroke="#E6E2DC" stroke-opacity="0.2" stroke-width="0.5"/>
<path d="M674.5 469.5C677.5 470.5 681 475 686.5 474.5C692 474 696 475.5 699 472.5C702 469.5 707 466 710.5 465C714 464 724 457 730 454.5C736 452 735.5 453.5 740 450.5C744.5 447.5 743 449 752.5 437.5C766.5 425.5 770.5 423.5 775 425.5C779.5 427.5 788 436 790 436C791.6 436 798 430.667 801 428" stroke="#E6E2DC" stroke-opacity="0.2" stroke-width="0.5"/>
<path d="M762 588.5C757.6 588.5 754.166 590.5 753 591.5C752.666 592.167 752 593.8 752 595C752 596.5 748.5 596.5 745.5 603C742.5 609.5 745.5 606.5 752 608.5C758.5 610.5 755 609.5 760 609.5H769.5C774 609.5 772.5 608.5 776 606.5C779.5 604.5 777.5 605 788 599C792 598.5 794 598.5 797 596.5C800 594.5 798 594 797 591.5C796 589 791 591.5 786.5 591.5C782 591.5 781.5 591.5 776 588.5C770.5 585.5 767.5 588.5 762 588.5Z" stroke="#E6E2DC" stroke-opacity="0.2" stroke-width="0.5"/>
<path d="M820 600C819 599 814 599 812 599C810.833 599.333 807.8 599.8 805 599C801.5 598 804 600 801.5 602C799 604 799 603 794.5 606C790 609 792.5 607 790 607C787.5 607 788 607 780.5 610.5C777.5 613 778 614 776 615.5C774 617 773.5 616 769.5 616.5C765.5 617 759 615 750.5 614C742 613 742 611.5 739 610.5C736 609.5 737 609.5 734.5 607C734.5 606 734.5 605 735.5 602C736.5 601 738 596.5 742 593.5C746 590.5 744 591 750.5 584C757 577 753 582.5 754.5 580.5C756 578.5 755.5 579.5 761 577.5C766.5 575.5 764.5 576 768.5 576C772.5 576 771.5 576 776 577.5C780.5 579 779 579.5 783.5 579.5C788 579.5 789 580.5 794.5 582.5C800 584.5 803.5 585 806 585C808.5 585 814 580.5 821 579.5C828 578.5 823 579.5 824.5 577.5C826 575.5 825.5 576 828.5 576C831.5 576 834.5 577.5 836 579.5C837.5 581.5 835.5 582.5 833 589C831.5 592.5 833 591.5 833 594.5V603C833 609 831.5 605 829.5 605C827.5 605 828 605.5 824.5 605C821 604.5 821 601 820 600Z" stroke="#E6E2DC" stroke-opacity="0.2" stroke-width="0.5"/>
<path d="M821 596C818.5 594.5 819 594.5 816 593V589.5C816 588 817.5 588.5 820 588C822.5 587.5 822.5 588.5 824 589.5C825.5 590.5 826 593 826.5 595C827 597 826.5 597 825 598C823.5 599 823.5 597.5 821 596Z" stroke="#E6E2DC" stroke-opacity="0.2" stroke-width="0.5"/>
<path d="M772 635H767C766.667 635.5 765.8 636.5 765 636.5C764 636.5 763.5 638 763.5 642C763.5 644 764 644 767 645.5C770 647 768.5 646.5 776.5 640C778 639.5 780.5 639.5 780.5 636.5C780.5 636 780.5 635 777.5 635H772Z" stroke="#E6E2DC" stroke-opacity="0.2" stroke-width="0.5"/>
<path d="M781.5 619.5L786 615C787 614.667 789.6 613.4 792 611C795 608 799 608.5 802 606C805 603.5 804 605 808.5 604C813 603 811.5 604.5 813 606C814.5 607.5 815 608.5 816.5 609.5C818 610.5 818 612 820 614C822 616 823 614 826.5 614H833H842.5H845.5C846.167 612.833 847.6 610.1 848 608.5C848.5 606.5 848 606.5 846.5 602C845 597.5 845.5 599.5 845.5 598C845.5 596.5 845.5 596.5 850 592C854 589.5 854 590 857.5 587.5C861 585 860 586 862.5 585C865 584 866.5 583.5 870 583.5C873.5 583.5 873.5 584 876 583.5C878.5 583 878.5 582.5 883.5 579C888.5 575.5 887 577 889 576C891 575 893.5 574 896 572C898.5 570 899.5 570.5 900.5 569.5C901.5 568.5 904.5 568.5 905.5 568C906.5 567.5 915.5 565.5 922 562C928.5 558.5 926 561 927.5 559C929 557 929.5 553.5 929 550.5C928.5 547.5 929 549 923.5 546C921.5 546 914 550.5 912 552C910 553.5 900.5 549 898.5 549H895H885.5C879 549 882.5 549.5 881.5 550.5C880.5 551.5 878.5 553.5 876 553.5C873.5 553.5 875 555.5 873.5 558C872 560.5 870 563 868.5 564C867 565 855 565 852.5 563C850.001 561 847.501 561 844.003 561H844C842 561 838.5 563 835 564C832.2 564.8 832.5 564.333 833 564C831.667 563.667 828.7 563 827.5 563C826 563 824 565.5 818.5 569.5C813 573.5 815.5 571 811.5 572C807.5 573 808.5 572 806 572C803.5 572 804 571 802 569.5C800 568 802 568 802 566.5C802 565 800.5 563 799 561C797.5 559 794.5 558.5 792 557C789.5 555.5 786.999 554 785.5 553.5C784.3 553.1 782.333 554.666 781.5 555.5C778.667 556 772.8 557 772 557C771 557 765.5 554 764.5 554C763.5 554 757.499 556 755 557C752.501 558 751 559.5 746 563C740.999 566.5 743.5 565.5 741 569.5C739 572.7 738.833 572.5 739 572C735 577.166 726.7 588.1 725.5 590.5C724 593.5 725 595.5 724 595.5C723 595.5 721 600.5 718 600.5C715 600.5 716.5 601 713 602C709.5 603 712 603.5 710 607C709.5 608 709 610.5 706 611.5C703 612.5 704 611.5 703 611.5C702 611.5 692 616.5 696.5 616.5C699 616 700.5 616.5 703 617C705.5 617.5 705 619.5 707 621C709 622.5 710.5 621 721 621C731.5 621 727.5 621 731 619.5C734.5 618 736 619.5 746 619.5C756 619.5 754.5 622 756.5 622.5C758.5 623 761 624 762.5 626.5C764 629 762 630 761 632.5C760 635 759.999 634 758.499 636C756.999 638 757.499 638.5 757.499 643C757.499 647.5 758.499 644 759.999 645.5C761.499 647 761.499 646.5 766.999 653.5C769.999 658 768.999 653.5 769.999 652.5L770.002 652.497C771.001 651.498 772.001 650.499 773 649C774 647.5 773 647.5 776.499 643C776.899 642.2 777.666 642 777.999 642C778.666 642 781.399 641.1 786.999 637.5C786.499 635 786 636.5 782.999 634C779.999 631.5 781.5 633.5 777.999 631.5C774.499 629.5 776.5 629.5 773 628.5C769.5 627.5 770 626.5 772 621C773.5 617.5 774 621 779 621C784 621 781 620 781.5 619.5Z" stroke="#E6E2DC" stroke-opacity="0.2" stroke-width="0.5"/>
<path d="M669.5 680.5C671 678.5 673.5 678.5 674 678.5H676.5C677.5 678.5 677 680.5 676.5 681.5C676 682.5 674 682.5 670.5 687C667 691.5 668 687.5 666.5 686C665.3 684.8 666 684.5 666.5 684.5L669.5 680.5Z" stroke="#E6E2DC" stroke-opacity="0.2" stroke-width="0.5"/>
<path d="M657 691.5C657.5 690 659 686.5 659.5 685.5V684.5C659.667 684.167 660.6 682.9 663 680.5L663 680.5C665 679 665 679 667 678.5C669 678 668 676.5 669.5 675.5C671 674.5 672.5 674 682 671C691.5 668 688 671 689 672.5C690 674 689 675.5 688 679C687 682.5 686.5 681 683.5 683C680.5 685 680.5 685.5 677.5 688.5C674.5 691.5 671.5 693.5 669.5 695C667.5 696.5 667.5 697.5 663 701.5C658.5 705.5 659.5 702 658.5 701.5C657.5 701 658 698.5 657 696C656 693.5 656.5 693 657 691.5Z" stroke="#E6E2DC" stroke-opacity="0.2" stroke-width="0.5"/>
<path d="M671 663.5C671 665 666.5 672.5 665 673.5C663.5 674.5 663 674.5 661 676.5C659 678.5 660 676.5 657.5 680C655 683.5 653.5 683.5 651.5 686C649.5 688.5 648 694.5 649 696C650 697.5 650 697 651.5 699.5C653 702 652 699.5 653.5 703C655 706.5 652 706.5 656.5 707C661 707.5 660.5 707.5 662.5 707C664.5 706.5 664.5 707 667 705C669.5 703 672 700.5 673.5 699.5C675 698.5 674.5 699 677 697C679.5 695 679.5 696 681 693.5C684 690 680.5 693 686.5 688C692.5 683 691.5 684 694.5 681C697.5 678 697.5 678 701 674.5C704.5 671 704 669.5 706 669C708 668.5 710 666.5 711 666.5C712 666.5 712.5 667.5 713 669C713.5 670.5 711.5 669.5 714.5 671.5C717.5 673.5 718 673.5 719 673.5C720 673.5 722 671.5 724 671.5C726 671.5 726.5 671 728 670.5C729.5 670 731 668 732.5 668C735.5 668 737.5 670.5 742 671.5C746.5 672.5 746.5 670.5 748 673.5C755.5 671.5 757.5 676 760 677.5C762.5 679 758.5 678 763.5 679C768.5 680 769.5 682.5 773.5 680C777.5 677.5 777.5 678.5 781.5 675.5C785.5 672.5 785.5 674 787 671.5C788.5 669 796.5 666 797.5 663.5C798.5 661 796 662 801 659C806 656 806.5 655.5 810 653.5C813.5 651.5 818 649.5 818.5 648.5C819 647.5 811 656.5 815.5 648.5C820 640.5 828 638.5 820 637C812 635.5 809 641 807 635C805 629 800.5 630 806 625C811.5 620 812.5 618 815.5 618C818.5 618 822 614 826 619C830 624 828.5 626.5 832 627.5C835.5 628.5 854.5 629.499 857.5 625C860.5 620.5 860.5 620 861.5 617C862.5 614 864.5 613.5 861.5 609C858.5 604.5 847.5 609 857.5 601.5C867.5 594 865 594 870 593.5" stroke="#E6E2DC" stroke-opacity="0.2" stroke-width="0.5"/>
<path d="M672 705.5C669.5 707 669.5 706.5 664.5 708.5C659.5 710.5 663 709 661 709C659 709 656 708 648 707C640 706 646 706 642.5 705.5C639 705 639 703 636.5 701C634 699 634.5 698 634.5 694.5C634.5 691 636 691 639 691C642 691 641 691 643 690.5C644.333 688.167 647.5 683.4 649.5 683C652 682.5 661 674 661 672.5C661 671 660 666 659.5 664C659 662 655.5 657 655.5 653C655.5 649 657.5 652 653.5 646C649.5 640 650 640.5 648 636.5C646 632.5 645.5 632 645 631.5C644.5 631 643.5 628.5 639 626.5C634.5 624.5 633.5 622.5 631.5 621C629.5 619.5 628 620.5 629 618C630 615.5 631 615 633.5 613.5C636 612 632 611.5 638 610.5C644 609.5 643.5 609.5 646 608C648.5 606.5 646 607.5 653.5 604C661 600.5 662.5 600.5 664.5 600.5C669 600.5 667 601.5 671.5 600.5C676 599.5 676 599.5 677.5 598.5C679 597.5 678.5 597 681.5 597C684.5 597 686 597 687 597C688 597 687.5 596.5 691.5 595C695.5 593.5 698 593 699.5 592C700.7 591.2 705.333 586.667 707.5 584.5C706.333 584.5 704.7 583.5 707.5 579.5C711 574.5 711.5 576 712.5 573.5C713.5 571 710.5 572 714.5 569C718.5 566 717.5 561 718.5 557.5C719.5 554 719.5 552 721 549C722.5 546 721 547 723.5 544C726 541 725 541 727 540C729 539 742 528 742.5 526.5C743 525 742.5 525.5 742.5 520.5C742.5 515.5 745 517 740 512.5C735 508 734.5 507.5 732.5 505.5C730.5 503.5 728.5 503.5 729.5 501.5C730.5 499.5 729 500.5 731.5 498.5C734 496.5 738 493 743.5 496C749 499 747.5 500.5 752 501.5C756.5 502.5 757 509.5 761.5 505.5C766 501.5 770.5 508.5 766 499.5C761.5 490.5 758.5 493 764.5 482.5C770.5 472 771 473.5 772.5 469.5C774 465.5 775 460 775 459.5C775 459 775 457.5 776.5 458" stroke="#E6E2DC" stroke-opacity="0.2" stroke-width="0.5"/>
<path d="M783 469.5C783 473 780 479 782.5 485.5C785 492 784.5 490.5 786 496.5C787.5 502.5 788.5 504.5 788.5 505.5C788.5 506.5 789 508 788.5 510.5C788 513 788 514.5 787 515C786 515.5 786 516.5 786 518.5C786 520.5 787 522.5 788.5 523.5C790 524.5 788.5 525 792 527C795.5 529 797 527.5 799.5 530C802 532.5 799.5 533 803.5 533C807.5 533 807 531 813.5 529C820 527 821.5 527 822 527C822.5 527 830.5 529 831.5 530C832.3 530.8 835.5 532.333 837 533C838 531.333 840.5 527.9 842.5 527.5C845 527 844 525.5 848.5 527C853 528.5 849 531 853.5 533C859.5 535 862.5 533 865 530C867.5 527 865 527 869 525C873 523 873 520.5 878.5 519.5C884 518.5 885.5 517.5 888 518.5C890.5 519.5 892 520.5 894.5 520.5C897 520.5 898.5 518.5 902 519.5C905.5 520.5 905.5 519.5 907.5 521.5C909.5 523.5 914.5 520.5 917.5 519.5C920.5 518.5 918.5 517.5 924 518.5C929.5 519.5 929.5 519.5 931 521.5C932.5 523.5 933 524.5 935.5 524C938 523.5 939.5 523.5 942 521.5C944 519.9 946.5 518.5 947.5 518C953.833 517.5 967.1 516.7 969.5 517.5C972.5 518.5 971.5 519.5 975.5 519.5C979.5 519.5 977.5 519.5 983 520.5C988.5 521.5 991 522.5 995 524C999 525.5 996.5 524.5 1004.5 522.5C1012.5 520.5 1006 520.5 1016.5 518C1027 515.5 1028.5 515 1031 515C1033.5 515 1032.5 514 1039.5 515C1046.5 516 1049.5 517.5 1052.5 517.5C1062 516.5 1058.5 519 1056.5 516C1054.5 513 1053.5 513 1041 510.5C1028.5 508 1035 503.5 1021 507.5C1007 511.5 1012.5 509.5 1004.5 513.5C996.5 517.5 998.5 517.5 992 517.5C985.5 517.5 982.5 517 977.5 516C972.5 515 975 513.5 969.5 513.5C964 513.5 968.5 513.5 961.5 513.5C954.5 513.5 951.5 514.5 948.5 513.5C945.5 512.5 950 508.5 943 512C937.4 514.8 935.667 517.167 935.5 518C936.333 519 937.1 520.5 933.5 518.5C929.9 516.5 925.667 513.333 924 512C924.667 511.667 924.8 511.2 920 512C914 513 912 512.5 909.5 513.5C907 514.5 907 516 904.5 516C902 516 900 513.5 899 513.5C898 513.5 894 513.5 890 513.5C886 513.5 886.5 514 884 514.5C881.5 515 881 516 878.5 516C876 516 880.5 513 874.5 513.5C868.5 514 868.5 513 866 515C863.5 517 858.5 520.5 858 520.5C857.5 520.5 858.5 520 857 522.5C855.5 525 854.5 527.5 854 527.5C853.5 527.5 852 525 851 524C850 523 849.5 520.5 846 520.5C842.5 520.5 844.5 518.5 838.5 520.5C832 523 823.5 521.5 818 521.5C812.5 521.5 811 522.5 808.5 520.5C806 518.5 807.5 523.5 803.5 517C799.5 510.5 798 515.5 799.5 508C801 500.5 802.5 503.5 801.5 497.5C800.5 491.5 799.5 490.5 799 488.5C798.6 486.9 797.833 476.833 797.5 472C797.5 471.167 797.9 469.5 799.5 469.5C801.5 469.5 801.5 470.5 805 469.5C808.5 468.5 808.5 468.5 810.5 468C812.5 467.5 811 468.5 813.5 467C816 465.5 816.5 464.5 818 464C819.5 463.5 820 463 822 463C824 463 825.5 464.5 829 463C832.5 461.5 852 453 853 452.5C854 452 851.5 453.5 859.5 448C867.5 442.5 867.5 441.5 870 438.5C872.5 435.5 876.5 431 877.5 429.5C878.5 428 884 434 887.5 434C891 434 896 434 901 432.5C906 431 920.5 416 921.5 415C922.5 414 924 413 928 408C932 403 932.5 402.5 935 400C937.5 397.5 941.5 394 942 391.5C942.5 389 944 385 943 386" stroke="#E6E2DC" stroke-opacity="0.2" stroke-width="0.5"/>
<path d="M940.5 387.5C938.5 389 937.5 391 934.5 392.5C931.5 394 930.5 396 929 396.5C927.5 397 927 395.5 924 398.5C921 401.5 919 403 914.5 408C910 413 911.5 412 908.5 414.5C905.5 417 907 418 900.5 421C894 424 890.5 425 888 425C885.5 425 881.5 423.5 879.5 423.5C877.5 423.5 874.5 423 873 422C871.5 421 871.5 419 869.5 418.5C867.5 418 865.5 417 865 417.5C864.5 418 861 421 856 423.5C851 426 848 426.5 844 429C840 431.5 837 434 834.5 435C832 436 831 437.5 826.5 438C822 438.5 824 447 818.5 438C813 429 811.5 428 810.5 425C809.5 422 812 418.5 808 421C804 423.5 798.5 436 797.5 436C796.5 436 797 437.5 795.5 439C794 440.5 793.5 441 793 442.5C792.5 444 791 447 786 447C781 447 781.5 450 779.5 444.5C777.5 439 779 439 775 439C771 439 770 439 763.5 444C757 449 752 454.5 749.5 456.5C747 458.5 746.5 460 745 461C743.5 462 738 463.5 734 473C730 482.5 726 488 724.5 487.5C723 487 720.5 488.5 715.5 487C710.5 485.5 702.5 486 699 484.5C695.5 483 697.5 484 693 483C688.5 482 688 486 684.5 480.5C681 475 680 475.5 677 473C674 470.5 677.5 474 671 466.5C664.5 459 663.5 459.5 661 457.5C658.5 455.5 656 452.5 654 451C652 449.5 651 449 648 451C645 453 648 455 642 454C636 453 622.5 450 620.5 447.5C621.5 440.5 647 443 648 443.5C648.8 443.9 651.667 445.333 653 446C660.5 444.5 663 442.5 665 439C667 435.5 666 436 671.5 432C677 428 687.5 419 688.5 418.5C689.5 418 686.5 421 691.5 410.5C696.5 400 700 389 702 385.5C705 381 719 369 720.5 369C722 369 749 358 751 356.5C753 355 754.5 353 760 351C765.5 349 763 350 770 349.5C777 349 778.5 346.5 783 349.5C787.5 352.5 787 356.5 789 356.5C791 356.5 791 359 795 356.5C799 354 803 347.5 804 344.5C807 339 807 335 811.5 333.5C816 332 817 325.5 824 332C831 338.5 831.5 339.5 836 344.5C840.5 349.5 851.5 361 852.5 361C853.5 361 854.5 362 855 363.5C855.5 365 855 367.999 855 368.5C855 369 867.5 373.5 870.5 373.5C873.5 373.5 876.5 373 878 375.5C879.5 378 878 375 880 379.5C882 384 886 380 882.5 386.5C879 393 874.5 398 873.5 399C872.7 399.8 871.167 401.333 870.5 402C868.5 403.666 865.2 407.2 868 408C871.5 409 871.5 412 876.5 410C881.5 408 881 409 885 404.5C889 400 894 398.5 896 392C898 385.5 896.5 387.5 898.5 381C900.5 374.5 905 373.5 901 371C897 368.5 889.5 370.5 881.5 368.5C873.5 366.5 871.5 366.5 862 362C852.5 357.5 859 352 859.5 352C860 352 862 347.5 859.5 345C857 342.5 848 346 846 346C844 346 841.5 348 836 341C830.5 334 822.5 320 820 319C817.5 318 820 315 814.5 319C809 323 804.5 328 802 330C799.5 332 801 334 798 339.5C795 345 795.5 348 794 347.5C792.5 347 794.5 349 788.5 344.5C782.5 340 784.5 339.5 778.5 337.5C772.5 335.5 755 333.5 753 335.5C751 337.5 748.5 339.499 747.5 341C746.5 342.5 744.5 343.499 742.5 346C740.5 348.5 715.5 361 714 361.5C712.5 362 711.5 362 708 363C704.5 364 703 363 699.5 366C696 369 693 370 691.5 375C690 380 690 380 690 381.5C690 383 685.5 401 684.5 402C683.5 403 684 403.5 682.5 406.5C681 409.5 684.5 407.5 680.5 411C676.5 414.5 673.5 415.5 671 417.5C668.5 419.5 664 427 662.5 429C661 431 659 432.5 658.5 433C658 433.5 663 435 654 432C645 429 646.5 431.5 643 429C639.5 426.5 637.5 425.5 633 425C628.5 424.5 626 425 620.5 425C615 425 613.5 426 610 423C606.5 420 602 417.5 601.5 417.5C601 417.5 591 411.5 589.5 412.5C588 413.5 584.5 415.5 581 418.5C577.5 421.5 576 424 575 428C574 432 575 430.5 574 435C573 439.5 572.5 439.5 573.5 445.5C574.5 451.5 570.5 452 577.5 455C584.5 458 587 459.5 592 459.5C597 459.5 601 460.5 605 459.5C609 458.5 600 456.5 612.5 458C625 459.5 625.5 458.5 627 459.5C628.5 460.5 623 459.5 634 462C645 464.5 639 463 647 465.5C655 468 652 469 662.5 477.5C673 486 672 485.5 674.5 487C677 488.5 677.5 489.5 681.5 491.5C685.5 493.5 685.5 492.5 687.5 495C689.5 497.5 691 498.5 692 499C693 499.5 692 501.5 696 499C700 496.5 696 494 701.5 495C707 496 707 495 708 498C709 501 704 504 710.5 503.5C717 503 719.5 505 718.5 501.5C717.7 498.7 716.167 496.333 715.5 495.5C711.667 493.333 702.5 488.8 696.5 488C689 487 686 487 681.5 484.5C677 482 677.5 484 671 477.5C664.5 471 664 471.5 659.5 467.5" stroke="#E6E2DC" stroke-opacity="0.2" stroke-width="0.5"/>
<path d="M703 506C703.5 507.5 703 509 703 513.5C703 518 700.5 520 701 522.5C701.5 525 700 529.5 708 526C716 522.5 714 523 718.5 519.5C723 516 721 514.5 725.5 514.5C730 514.5 729.5 514.5 733 514.5C736.5 514.5 738 514.5 738.5 516.5" stroke="#E6E2DC" stroke-opacity="0.2" stroke-width="0.5"/>
<path d="M714.5 533C714 536 716.5 531.5 709 541.5C701.5 551.5 697 553.5 701 554.5C705 555.5 712 553 712 555.5C712 558 712 563 710 566C708 569 708 570.5 703.5 573.5C699 576.5 698 577 695.5 580C693 583 694.5 585.5 690 586.5C685.5 587.5 683.5 588.5 679.5 590C675.5 591.5 670.5 594 662 596.5C653.5 599 652 598.5 646 600.5C640 602.5 639.5 603 635 605C630.5 607 627.5 608.5 624.5 611.5C621.5 614.5 620.5 618 621 619.5C621.5 621 620.499 621 624.5 624C628.5 627 634 629.5 634.5 631C635 632.5 634.499 632 635 635C635.5 638 634.5 635.5 634.5 639C634.5 642.5 638.5 639.5 634.5 643.5C630.5 647.5 629.5 649 627.5 651C625.5 653 622.499 656 624.5 658.5C626.5 661 626 663 629.5 665C633 667 635.5 667 637 669C638.5 671 641.5 667 640 673C638.5 679 642 675 637 683C632 691 630.5 690 630 693C629.5 696 625.5 704 632 706C638.5 708 640 707.5 644 709.5C648 711.5 661.5 712.5 664 711.5C666.5 710.5 667.5 709 669 708.5C670.2 708.1 671.167 706.667 671.5 706" stroke="#E6E2DC" stroke-opacity="0.2" stroke-width="0.5"/>
<path d="M280.5 478.5C279 476 274 473.5 276.5 471.5C279 469.5 280 468 281 466C282 464 281.5 464 284.5 458.5C287.5 453 286.5 453 288.5 451.5C290.5 450 285.5 449.5 292 449C298.5 448.5 295 449 301.5 449C308 449 307 449.5 312 450C317 450.5 316.5 447.5 323.5 451.5C330.5 455.5 331 454 332.5 457.5C334 461 336.5 463 333.5 464.5C330.5 466 329.5 467 327.5 467C325.5 467 325.5 466.5 324.5 468.5C323.5 470.5 324 471 323 472C322 473 321.5 472.5 320 473.5C318.5 474.5 318.5 475.5 318 476.5" stroke="#E6E2DC" stroke-opacity="0.2" stroke-width="0.5"/>
<path d="M286 475C285 473.5 281.5 473 286 471C291.5 468 291.5 470 292.5 466C293.5 462 291.5 461 295 458.5C298.5 456 295.5 455 300 455.5C304.5 456 303.5 455.5 310.5 458C317.5 460.5 318.5 460.5 320 461C321.5 461.5 325.5 459 323.5 464C321.5 469 318 468 316.5 470C315 472 314 473 312 474.5C310 476 309 478 306.5 477.5C304 477 300.5 476.5 299 474.5C297.5 472.5 301.5 471 296 472C290.5 473 290 473 288 474C286.4 474.8 285.667 474.667 285.5 474.5" stroke="#E6E2DC" stroke-opacity="0.2" stroke-width="0.5"/>
<path d="M310 464.5C310 463.5 308.5 464 305 463C304.333 463 302.8 462.9 302 462.5C301 462 300 465 301 466.5C302 468 301.5 467 302 468C302.5 469 303.5 468.5 305 468.5C306.5 468.5 307.5 468.5 310 466.5C312.5 464.5 310 465.5 310 464.5Z" stroke="#E6E2DC" stroke-opacity="0.2" stroke-width="0.5"/>
<path d="M667.5 328.5C665.5 329.5 662 331.5 660.5 334C659 336.5 659.5 333 658.5 337.5C657.5 342 659 344.5 658.5 347.5C658 350.5 658.5 349 658 352.5C657 355.5 653.5 350.5 653 348.5C652.5 346.5 652.5 344.5 650 344C642.5 346.5 643 348.5 641.5 346C640 343.5 641.5 348.5 639.5 341.5C637.5 334.5 637.5 334.5 638 330.5C638.4 327.3 638.833 325.833 639 325.5" stroke="#E6E2DC" stroke-opacity="0.2" stroke-width="0.5"/>
<path d="M674 316C679 315 677.5 313 684.5 314.5C691.5 316 693.5 317 695 315C696.5 313 697.5 313 700 309C702.5 305 699.5 307.5 703 303.5C706.5 299.5 704 301.5 709.5 297.5C715 293.5 714.5 291 718 291.5C721.5 292 722.5 292.5 726 293C729.5 293.5 730.5 293 733.5 294.5C736.5 296 732.5 299 738 297.5C743.5 296 744.5 294.5 748 291.5C751.5 288.5 752 287.5 753 286C754 284.5 762.5 278 770 280C777.5 282 779 283 783 285C787 287 787.5 289.5 792 290C796.5 290.5 800.5 291.5 803 291.5C805.5 291.5 807.5 291.5 814.5 291.5C820.1 291.5 822.833 291.833 823.5 292C831.167 293.5 847.2 296.6 850 297C853.5 297.5 854 296 859.5 299.5C865 303 864.5 301.5 865 305C865.5 308.5 862.5 311 868 310C873.5 309 874 308 876.5 306.5C879 305 880 305 885 305C890 305 889 304 892 306.5C894.4 308.5 896.667 311 897.5 312C897.833 315.5 898.7 322.8 899.5 324C900.5 325.5 898.5 330.5 898.5 332.5C898.5 334.5 898.5 336 904 335.5C909.5 335 908.5 338 914.5 333.5C920.5 329 921.5 326.5 923 323.5C924.5 320.5 928.5 308.5 931.5 308.5" stroke="#E6E2DC" stroke-opacity="0.2" stroke-width="0.5"/>
<path d="M920.5 303C919.5 305.5 917.2 310.8 916 312C914.5 313.5 910 315 909 315C908 315 908.5 316 907 314C905.5 312 906.5 315 904 309C901.5 303 900.5 302 898 298C892 292 889.5 288 885.5 288.5C881.5 289 882 289 879.5 291C875 293 862 289 860.5 287.5C859 286 857 282 853.5 282.5C850 283 852 283.5 845.5 283.5C839 283.5 827 281.5 824 281.5C821 281.5 814 281.5 811 281.5C808 281.5 808 282.5 803.5 280.5C799 278.5 797 279.5 794.5 275.5C792 271.5 791 269.5 790 269C789 268.5 779.5 261 777 260.5C774.5 260 763.5 257.5 762.5 257.5C761.5 257.5 752.5 260.5 750 262.5C747.5 264.5 745 268 744 269C743 270 741.5 271.5 741 273C740.5 274.5 738.5 278.5 737.5 279.5C736.7 280.3 733.5 280.5 732 280.5C730.167 280.833 726.1 281.5 724.5 281.5C722.5 281.5 724 280 717 283C710 286 708 287.5 706 288C704 288.5 700.5 289 696.5 289C692.5 289 691.5 289.5 688.5 290C685.5 290.5 682 290 678 291C674 292 675 289.5 671.5 293C668 296.5 665.5 299 663 300" stroke="#E6E2DC" stroke-opacity="0.2" stroke-width="0.5"/>
<path d="M530 423C530.8 421.8 536.333 414.833 539 411.5C542.833 410.5 550.6 408.5 551 408.5C551.5 408.5 551.5 409 555 404C558.5 399 560 398 562.5 394C565 390 564.5 390.5 566 387.5C567.5 384.5 564.5 390.5 569 381.5C573.5 372.5 570 375 574.5 370.5C579 366 573.5 369.5 584.5 361C595.5 352.5 595 352.5 597 352.5C599 352.5 601 354 605 352.5C609 351 610 350 612.5 349.5C620.5 352.5 629.5 358.5 629 362C628.5 365.5 629 369.5 630 371.5C631 373.5 636 379 637 379C637.8 379 639.333 379 640 379C640.167 377.5 640.8 374.1 642 372.5C643.5 370.5 648 368.5 648.5 367C649 365.5 649.5 364 649.5 362.5C649.5 361 647.5 362 650.5 361C653.5 360 657.5 359 658 363C658.5 367 659.5 369.5 660.5 370.5C661.5 371.5 659 373 661.5 374C664 375 665 377.5 666.5 379C668 380.5 669 380 671 379.5C673 379 676.5 381.5 674.5 376.5C672.5 371.5 672 370 670.5 367C669 364 670.5 366.5 669 363C667.5 359.5 667 358.5 667.5 355.5C668 352.5 675.5 346.5 677.5 346.5C679.5 346.5 677 347.5 683.5 346.5C690 345.5 683 349 693 344.5C701 340.9 707.667 338.667 710 338C715.167 336.333 725.7 333 726.5 333C727.5 333 731 333.5 733.5 329C736 324.5 736.5 324.5 737.5 322.5C738.3 320.9 739.167 319.167 739.5 318.5C741.667 316.667 746.6 313.1 749 313.5C752 314 756.5 315.5 759.5 316C762.5 316.5 763 316 767 315.5C771 315 770.5 316.5 776.5 315C782.5 313.5 789 312 789.5 311.5C790 311 813 304 814.5 304C816 304 822.5 301.5 826 304C829.5 306.5 825.5 304.5 831 308C836.5 311.5 834.5 307.5 841.5 314.5C848.5 321.5 848 323 848.5 325C849 327 849.5 329 851.5 329C853.5 329 865.5 323 869.5 322.5C873.5 322 880.5 319.5 881 319C881.5 318.5 883 317 884.5 317C886 317 893.5 309 889.5 320.5C885.5 332 885 332.5 883 335C881 337.5 879 337 878.5 340C878 343 875.5 343 878.5 344.5C881.5 346 882.5 346.5 883.5 347.5C884.5 348.5 886.5 348.5 892 348.5C897.5 348.5 903 349 907.5 349.5C912 350 912 349.5 915.5 350.5C919 351.5 919.5 352 922 353.5C924.5 355 933.5 366.5 934.5 368C935.5 369.5 937.5 370.5 939.5 371.5C941.5 372.5 942 370 941.5 373.5C941 377 943.5 376 939.5 379" stroke="#E6E2DC" stroke-opacity="0.2" stroke-width="0.5"/>
<path d="M336.5 467.5C336.5 463 338 458.5 340 458C342 457.5 340 456 344 458C348 460 346 462 350 459.5C354 457 356 455 361 452.5C366 450 365.5 450.5 367.5 449.5C369.5 448.5 370.5 449.5 375 450.5C379.5 451.5 379 451 385 449.5C391 448 391.5 446.5 394.5 448" stroke="#E6E2DC" stroke-opacity="0.2" stroke-width="0.5"/>
<path d="M345.5 456.5C338.5 453.5 338 455.5 336 452C334 448.5 332.5 447.5 332 445C331.5 442.5 329.5 446.5 332 437.5C334.5 428.5 336 430 335 427.5C334 425 332 425.5 332 423.5C332 421.5 336.5 420.5 339 421.5C341.5 422.5 339.5 420.5 342 423.5C344.5 426.5 342 431 349 424.5C356 418 354.5 420 357 416.5C359.5 413 357 414 360.5 412C364 410 364.5 409.5 367.5 409C370.5 408.5 371.5 408 375 409C378.5 410 377 408.5 381 411C385 413.5 384.5 413.5 389 415C393.5 416.5 397.5 417.5 398.5 417.5C399.5 417.5 412.5 416 414 414C415.5 412 417 413.5 417 407.5C417 401.5 414.5 406.5 417 398.5C419.5 390.5 419 390.5 421 386C423 381.5 420.5 381 426 377.5C431.5 374 429.5 373 436 373C442.5 373 445 372.5 449 374C453 375.5 455 376 458 379.5C461 383 458.5 381 463 386C467.5 391 468 390 470.5 395C473 400 475 402.5 475 405C475 407.5 474.5 409 472.5 411C470.5 413 470 411.5 467.5 414C465 416.5 462 416 462 417.5C462 419 460 420.5 463 422.5C466 424.5 467 422.5 468 426C469 429.5 467 432.5 470.5 433C474 433.5 475.5 433.5 476 435C476.5 436.5 467.5 438.5 477 438.5C486.5 438.5 488.5 442 490.5 442.5C492.5 443 495 444.5 497 445C499 445.5 497.5 446 503 446C508.5 446 507 444.5 510 443C513 441.5 511 438 515.5 442C520 446 520.5 448 522.5 450C524.5 452 523.5 451.5 529.5 452C535.5 452.5 529 451.5 536.5 453.5C544 455.5 547 459.5 549.5 461C552 462.5 543 457.5 558.5 463.5C574 469.5 577 471 578.5 471C580 471 576.5 472.5 582.5 471C588.5 469.5 604 470.5 606 470C608 469.5 612.5 470 619.5 470C626.5 470 627 469.5 631 472C635 474.5 636.5 476.5 641 477.5C645.5 478.5 640.5 473.5 650.5 480.5C660.5 487.5 669.5 493 671 494.5C672.5 496 669.5 494.5 675 501.5C680.5 508.5 677.5 508 684 515C690.5 522 689 523.5 695.5 526.5" stroke="#E6E2DC" stroke-opacity="0.2" stroke-width="0.5"/>
<path d="M276.5 479C271.5 475 261.8 466.8 263 466C264.2 465.2 266.167 462.667 267 461.5L272 455C272.5 455.167 273.8 455.2 275 454C276.5 452.5 276.5 452 279 449C281.5 446 281 445.5 283 444.5C285 443.5 285 441 288 441C291 441 299 442 300 442C300.8 442 305.333 441 307.5 440.5L312 433C312.333 431 312.9 426.8 312.5 426C312.1 425.2 312.333 423 312.5 422C313.5 420.5 316.4 417.5 320 417.5C324.5 417.5 325.5 416 327.5 414.5C329.5 413 330.5 412.5 332.5 410.5C334.5 408.5 336 406 337 406C338 406 342 405.5 344.5 406C347 406.5 358 400 358.5 399.5C359 399 367.5 395.5 369.5 396C371.5 396.5 371.5 397 375.5 396C379.5 395 384 394 386 394.5C388 395 389.5 394.5 390.5 396C391.5 397.5 392 398.5 393.5 399.5C395 400.5 396.5 401 398 401.5C399.5 402 401 402.5 403 401C405 399.5 406 399.5 407 397C408 394.5 408 389 409.5 386.5C411 384 412 383 416 379.5C420 376 419 376.5 423 374C427 371.5 429.5 372.5 434.5 369.5C439.5 366.5 438.5 364.5 444 364C449.5 363.5 450 365.5 452.5 362.5C454.5 360.1 453.333 349.166 452.5 344C453 343.666 454.2 342.2 455 339C456 335 461 329.5 462.5 329.5C464 329.5 464 328.5 466 330.5C468 332.5 468 333 470 336C472 339 471.5 335.5 474 341.5C476.5 347.5 477 345 476.5 349C476 353 478 350.5 476.5 357.5C475 364.5 474 363.5 474 368C474 372.5 474.5 373.5 475.5 375.5C476.5 377.5 489 382.5 490 382C491 381.5 490.5 381.5 494.5 379.5C498.5 377.5 494 381.5 502 375.5C510 369.5 510 370 512.5 367.5C515 365 516 364 518 361.5C520 359 518.5 358 521.5 356C526.5 362.5 523.5 363.5 525.5 368C527.5 372.5 530 370.5 530 378C530 385.5 528 390.5 530 391C535 394.5 535.5 397.5 540.5 394.5C545.5 391.5 544.5 392.5 547 388C549.5 383.5 552.5 381 552 375.5C551.5 370 550 370.5 551 366C552 361.5 550 360.5 555.5 357.5C561 354.5 560 354 564.5 354C569 354 575 354.5 576.5 352C578 349.5 583 344 585.5 343.5C588 343 596.5 339 600 339C603.5 339 600.5 341 606.5 337.5C612.5 334 611.5 333.5 615 332.5C618.5 331.5 618 331.5 620.5 331.5C623 331.5 625 331 626.5 335C628 339 629 344 630.5 349.5C632 355 633.5 358 634.5 359C635.5 360 635 361.5 637 361.5C645 361.5 645.5 360.5 646 357.5C646.5 354.5 642 353.5 646 352C650 350.5 648.5 348 652 351C655.5 354 654.5 353.5 656.5 357.5C658.5 361.5 659 362 660.5 362.5C662 363 661.5 365 661.5 361.5C661.5 358 660.5 357.5 662.5 353C664.5 348.5 661.5 351 666 345C670.5 339 668.5 336 677.5 336C686.5 336 691 337.5 693.5 335C696 332.5 695 334 698 332.5C701 331 711.5 319.5 713 317.5C714.5 315.5 721 314.5 721.5 314.5C722 314.5 725.5 316 727.5 316C729.5 316 740 312 741 311C742 310 744.5 308.5 745.5 307.5C746.5 306.5 758 302 759 302C760 302 771.5 299.5 773.5 300C775.5 300.5 786.5 300 788.5 300C790.1 300 801.833 298.667 807.5 298C811.833 297.833 820.7 297.5 821.5 297.5C822.5 297.5 838.5 303.5 839.5 304C840.5 304.5 852 311.5 852.5 312C853 312.5 856 317.5 856.5 318.5C857 319.5 862 320.5 864 320C866 319.5 871 316 873 315C875 314 877.5 311.5 880 311.5C882.5 311.5 887 311 888 311.5C889 312 891.5 312.5 892.5 315C893.5 317.5 894.5 319.5 892.5 322.5C890.5 325.5 889.5 328 889.5 329.5C889.5 331 887.5 336 886.5 337C885.5 338 885 343 886.5 343.5C887.7 343.9 894.667 344.333 898 344.5L911 341C914 339.667 920.4 337 922 337C924 337 931 336 932 338C933 340 934.5 339 935 342C935.5 345 935 344.5 935 348C935 351.5 935 354 935 355.5C935 357 939.5 360 941 360.5C942.2 360.9 948.167 361.333 951 361.5C951 361.667 952 362.7 956 365.5C961 369 962.5 369.5 964 370.5C966.5 373.5 967 374 965.5 375.5C964 377 961 383.5 960 384.5C959 385.5 958 388.5 956 390C954 391.5 954.5 390.5 951 393C947.5 395.5 945.5 399 945 399.5C944.5 400 944 398.5 943 402.5C942 406.5 941 406.5 941 408.5C941 410.5 937.5 409.5 935.5 411.5C933.5 413.5 934.5 412 932 415.5C929.5 419 921 436.5 919 438C917 439.5 912.5 441.5 911 442C909.5 442.5 903 445 901 445C899 445 887.5 446.5 886.5 446.5C885.7 446.5 878.833 441.833 875.5 439.5L871.5 445.5C869.167 449 864 456.4 862 458C859.5 460 857 462 851.5 463.5C846 465 830.5 474.5 830 475C829.5 475.5 821.5 477.5 820 478C818.5 478.5 814.5 475.5 814.5 479C814.5 481.8 813.833 491.833 813.5 496.5C814.167 497.667 815.5 500.7 815.5 503.5C815.5 507 818 507 820.5 507C823 507 829 507 831 508C833 509 831.5 509.5 836 510.5C840.5 511.5 841.5 511 844 510.5C846.5 510 846.5 508.5 848.5 509.5C850.5 510.5 853 510.5 854.5 512C856 513.5 859.5 513 863.5 510.5C867.5 508 867.5 508.5 870.5 507C873.5 505.5 872.5 504 877.5 504.5C882.5 505 880 507.5 888.5 506.5C897 505.5 897 504.5 901 504.5C905 504.5 903 503.5 908.5 504.5C914 505.5 912.5 506.5 917 506.5C921.5 506.5 922.5 506.5 926 506.5C929.5 506.5 926.5 505.5 930.5 508C934.5 510.5 932 513 935.5 510.5C939 508 938.5 507.5 941.5 507C944.5 506.5 946 505 948.5 506.5C951 508 964 512 968 510C972 508 970 507.5 973.5 507C977 506.5 978 506 983.5 508C989 510 988.5 512 994.5 512C1000.5 512 997 514.5 1002.5 510.5C1008 506.5 1006.5 508 1009.5 504.5C1012.5 501 1011 503 1016 499C1021 495 1017 498 1022 493.5" stroke="#E6E2DC" stroke-opacity="0.2" stroke-width="0.5"/>
<path d="M111 495.5L120 502.5C123 504 129.2 507 130 507C131 507 135 507 136 507C136.8 507 138.333 507 139 507C140 507.167 142 507.6 142 508C142 508.5 142 509.5 143.5 509.5C144.7 509.5 147.333 508.5 148.5 508C149.167 507.5 150.7 506.8 151.5 508C152.3 509.2 155.167 512.167 156.5 513.5C158.333 513.833 162.2 514.5 163 514.5C164 514.5 168.5 514.5 170 514.5C171.5 514.5 172.5 514 172.5 512.5C172.5 511.3 171.5 506.667 171 504.5L168.5 492C168 490.5 167.3 487.4 168.5 487C169.7 486.6 177.667 476.833 181.5 472C182 471.167 183.4 469.3 185 468.5C187 467.5 189 464.5 192.5 463.5C196 462.5 201.5 462 205.5 461C209.5 460 217.5 459.5 218.5 459C219.3 458.6 235.167 464.167 243 467L256.5 475C258.5 475.333 263.3 476.6 266.5 479C270.5 482 271 483 274 485C277 487 280 487.5 282 488C283.6 488.4 286.333 488.833 287.5 489C291 487.667 298.4 485 300 485C302 485 302 485 305.5 483.5C309 482 307.5 481 312.5 481C317.5 481 319.5 481 320.5 481C321.5 481 324.5 481 326 479" stroke="#E6E2DC" stroke-opacity="0.2" stroke-width="0.5"/>
<path d="M231.5 454C231.9 454 234.333 453.333 235.5 453L238 455.5L239 459.5C238 460.167 235.9 461.5 235.5 461.5C235 461.5 232 458 231.5 458C231 458 231 454 231.5 454Z" stroke="#E6E2DC" stroke-opacity="0.2" stroke-width="0.5"/>
<path d="M195 453.5L192.5 451C192.5 449.8 195.167 449.167 196.5 449C196.833 449.167 197.6 449.7 198 450.5C198.5 451.5 199 451.5 199.5 452.5C200 453.5 201.5 453.5 202.5 453.5C203.3 453.5 204.5 455.167 205 456C204.667 456.5 203.9 457.6 203.5 458C203 458.5 199 459.5 197.5 459C196 458.5 196 457 195 456C194.2 455.2 194.667 454 195 453.5Z" stroke="#E6E2DC" stroke-opacity="0.2" stroke-width="0.5"/>
<path d="M156.5 503.5C156 503.5 154 505.5 153.5 506.5C154.5 507.5 156.5 509.7 156.5 510.5C156.5 511.5 164 513.5 165.5 513.5C166.7 513.5 168.333 512.833 169 512.5C169.333 511.167 169.6 508.1 168 506.5C166 504.5 166.5 504.5 165.5 503C164.5 501.5 164.5 499.5 164 500.5C163.5 501.5 161.5 502.5 161.5 503C161.5 503.5 157 503.5 156.5 503.5Z" stroke="#E6E2DC" stroke-opacity="0.2" stroke-width="0.5"/>
<path d="M144.5 505C143.3 505 142.666 503.333 142.5 502.5C142.369 502 144 500.5 145 500.5C146 500.5 146.5 501 147 503.5C147.5 506 146 505 144.5 505Z" stroke="#E6E2DC" stroke-opacity="0.2" stroke-width="0.5"/>
<path d="M261.5 472.5C256.667 470.333 247.8 465 251 461C254.2 457 260 450.333 262.5 447.5C267.167 443.833 277.5 436.4 281.5 436C286.5 435.5 294.5 435 295 431.5C295.5 428 308.5 399 313 399C317.5 399 322 399 325 399C328 399 344.5 392 346.5 391C348.5 390 365.5 384.5 368.5 384C370.9 383.6 388.5 383.833 397 384C400.167 380 406.1 371.8 404.5 371C402.5 370 409 372.5 414 369C418 366.2 424.333 363.5 427 362.5C431.333 360.667 440.3 355.5 441.5 349.5C443 342 459.5 325 465 326.5C470.5 328 471 334 472 334.5C472.8 334.9 477.667 339 480 341L483 350.5L484.5 360.5L493.5 366.5C495.667 366.167 500.8 364.9 504 362.5C507.2 360.1 514 354.167 517 351.5L528 344C528.667 343.5 530.2 342.8 531 344C532 345.5 531.5 346.5 532.5 348.5C533.5 350.5 534 350 534 351.5C534 353 534 354.5 534 355C534 355.5 538 356.5 538.5 356.5C538.9 356.5 542.667 356.5 544.5 356.5L547.5 351.5" stroke="#E6E2DC" stroke-opacity="0.2" stroke-width="0.5"/>
<path d="M111.5 493.5C112 493.334 115.1 493.4 123.5 495C131.9 496.6 139 496.667 141.5 496.5H152.5L158.5 493.5L165 487V476.5L174 465.5L177 443.5C178.833 436.667 184.4 423.3 192 424.5C199.6 425.7 203.167 428.333 204 429.5L216.5 434C218.833 435.833 224.2 438.4 227 434C230.5 428.5 230 427.5 230.5 426C230.9 424.8 234.333 422.5 236 421.5C238.333 420 243.2 417 244 417C244.8 417 252.667 417.667 256.5 418L260.5 419L265 417L267 413.5L275 410.5C275.833 409.5 277.8 407.5 279 407.5C280.2 407.5 282.833 407.5 284 407.5L287 408.5C290.5 405.667 297.7 399 298.5 395C299.3 391 310.167 389 315.5 388.5L330 377L345 378L356 373.5H366L375.5 369.5H384C386 371.167 390.1 374.5 390.5 374.5C391 374.5 398.5 371.5 397 367C395.8 363.4 401.167 361.5 404 361L417 359C421.667 357.5 431.2 353.4 432 349C432.8 344.6 433.667 342.167 434 341.5L448 332.5L456 326.5L465.5 323L473 327.5L479.5 335L486.5 339L492.5 348.5L496 353L502.5 354.5L512 350.5L521.5 341.5L531 338L537 339V348.5C537.167 350.5 537.7 354.5 538.5 354.5C539.3 354.5 542.167 355.167 543.5 355.5C545.5 353.5 549.6 349.4 550 349C550.4 348.6 552.167 343.833 553 341.5L556 338L557 336.5L559 336L563.5 338.5C563.833 338.667 564.7 338.9 565.5 338.5C566.3 338.1 568.167 336.333 569 335.5C570.5 334 573.6 330.9 574 330.5C574.4 330.1 579.167 327.333 581.5 326L593 328.5C595.5 327.667 600.6 326 601 326C601.4 326 608.167 322.333 611.5 320.5L616.5 320L622.5 320.5L625.5 320L630.5 321.5C630.167 322.333 629.7 324.1 630.5 324.5C631.5 325 633.5 326 634.5 326C635.5 326 636.5 326 638 326C639.5 326 643.5 324.5 643.5 326.5C643.5 328.5 644.5 329 644.5 331.5C644.5 334 645.5 335 646 336.5C646.5 338 645.5 338.5 647.5 338.5C649.5 338.5 650 338.5 652 336.5C654 334.5 653.5 334.5 654.5 333C655.5 331.5 655.5 330 656 329C656.5 328 656 328 656.5 327" stroke="#E6E2DC" stroke-opacity="0.2" stroke-width="0.5"/>
</svg>
