<svg width="1110" height="550" viewBox="0 0 1110 550" fill="none" xmlns="http://www.w3.org/2000/svg">
<path d="M674 38.6899C653 49.6899 609 68.9899 601 58.1899C591 44.6899 593.5 5.68987 571 2.18987C553 -0.610131 534.833 11.0232 528 17.1899L88.4999 203.69C80.8332 201.357 65.0999 198.09 63.4999 203.69C61.8999 209.29 66.8332 218.357 69.4999 222.19L53.5 303.19C40.3333 310.857 15 328.49 19 337.69C24 349.19 34.5 383.19 46.5 381.19C56.1 379.59 156.5 370.19 205.5 365.69L601 357.19L637 361.19L618.5 376.69L591.5 394.69L577.5 422.69L591.5 451.19H630.5H685L715 388.69L701 321.69L532.5 132.69L528 95.1899L682 47.6899" stroke="white" stroke-dasharray="2 2"/>
</svg>
