<svg width="1110" height="550" viewBox="0 0 1110 550" fill="none" xmlns="http://www.w3.org/2000/svg">
<g clip-path="url(#clip0_4036_93)">
<path d="M49.3675 337.646L51.8897 343.951C52.0338 344.311 52.07 344.706 51.9939 345.086L51.8907 345.602C51.7219 346.446 51.0318 347.088 50.1776 347.195L48.1697 347.446C47.7898 347.493 47.4316 347.649 47.1374 347.894L45.0233 349.655C44.7292 349.901 44.3709 350.056 43.991 350.104L41.2378 350.448C40.7939 350.503 40.3443 350.408 39.9607 350.178L35.994 347.798C35.6886 347.615 35.4377 347.353 35.2672 347.041L32.5126 341.991L30.4266 339.07C30.1512 338.685 30.0216 338.214 30.0609 337.742L30.3337 334.469C30.4265 333.356 31.4138 332.534 32.5258 332.645L35.2861 332.921C35.4465 332.937 35.6083 332.934 35.7679 332.911L38.2251 332.56C38.7502 332.485 39.224 332.205 39.5423 331.78L41.6249 329.003C41.9062 328.628 42.0468 328.166 42.0221 327.698L41.5577 318.875C41.3902 317.87 41.6582 315.76 44.0703 315.358C46.0143 315.034 47.6537 317.517 48.5675 319.545C48.9211 320.33 49.6761 320.885 50.5369 320.885H52.3551C52.8449 320.885 53.3177 320.705 53.6838 320.38L57.0756 317.365C57.4382 317.043 57.6713 316.6 57.7315 316.118L58.6431 308.825V300.607C58.6431 300.392 58.6778 300.178 58.7458 299.974L60.5753 294.486C60.627 294.331 60.6976 294.182 60.7854 294.044L63.842 289.241C64.0533 288.909 64.1316 288.509 64.0612 288.122C63.787 286.614 65.6214 285.652 66.7054 286.736L68.3269 288.358C68.5672 288.598 68.8649 288.773 69.1917 288.867L71.4144 289.502C71.9244 289.648 72.4714 289.585 72.9351 289.327L76.7335 287.217L86.2276 281.52C86.5891 281.304 87.0099 281.206 87.4299 281.243L94.9167 281.894C96.3619 282.02 97.0694 283.718 96.1407 284.833C95.9366 285.078 95.8014 285.373 95.7489 285.687L94.9131 290.702C94.8547 291.052 94.7041 291.381 94.4768 291.654L92.3114 294.252L84.6019 303.407C84.385 303.665 84.2366 303.973 84.1705 304.303L82.8025 311.143C82.7767 311.272 82.7637 311.404 82.7637 311.535V312.974C82.7637 314.217 81.6408 315.159 80.4161 314.943L74.5794 313.913C74.3424 313.871 74.0998 313.873 73.8633 313.917L66.6717 315.266C66.3494 315.326 66.0469 315.465 65.7908 315.67L58.6431 321.388L52.4443 327.586C52.2248 327.806 52.0594 328.074 51.9612 328.368L49.3271 336.271C49.1775 336.719 49.1918 337.207 49.3675 337.646Z" fill="#A4A4A4" fill-opacity="0.1" stroke="#E6E2DC" stroke-opacity="0.4"/>
<path d="M587.184 420.169L585.082 426.122C584.662 427.312 585.436 428.589 586.686 428.768L598.341 430.433L610.152 431.417C610.318 431.431 610.484 431.424 610.647 431.397L619.446 429.93L632.555 426.046C632.857 425.956 633.133 425.797 633.362 425.581L651.607 408.322L683.913 371.543C684.147 371.276 684.447 371.077 684.783 370.965L692.707 368.324C693.103 368.192 693.447 367.94 693.692 367.603L696.877 363.224C697.172 362.819 697.304 362.317 697.246 361.819L695.913 350.265C695.858 349.79 695.635 349.35 695.283 349.025L689.579 343.76C689.392 343.587 689.173 343.451 688.935 343.361L679.263 339.676C678.922 339.546 678.624 339.326 678.4 339.04L671.475 330.192C670.615 329.092 668.921 329.19 668.193 330.381L664.431 336.537C664.26 336.818 664.16 337.137 664.141 337.466L663.227 353.461C663.188 354.141 662.805 354.755 662.211 355.09L655.364 358.941C655.205 359.031 655.059 359.141 654.93 359.27L652.06 362.14C651.766 362.435 651.57 362.814 651.502 363.226L651.167 365.234C651.126 365.481 651.038 365.719 650.909 365.934L649.866 367.673C649.69 367.967 649.441 368.21 649.143 368.38L646.706 369.773C646.301 370.004 645.99 370.37 645.826 370.807L645.059 372.853C644.766 373.634 644.02 374.151 643.186 374.151H642.059C641.892 374.151 641.557 373.247 641.557 369.629C641.557 366.469 638.747 365.89 636.807 366.017C636.304 366.05 635.861 366.335 635.559 366.739L631.765 371.797C631.595 372.024 631.378 372.212 631.129 372.349L621.456 377.669L607.271 386.474C607.016 386.632 606.8 386.846 606.639 387.099L603.366 392.242L597.101 400.434C596.925 400.665 596.801 400.932 596.738 401.215L594.917 409.409C594.855 409.686 594.735 409.947 594.564 410.175L587.47 419.635C587.348 419.797 587.251 419.978 587.184 420.169Z" fill="#A4A4A4" fill-opacity="0.1" stroke="#E6E2DC" stroke-opacity="0.4"/>
<path d="M828.673 363.308L823.862 358.498C822.776 357.412 823.269 355.558 824.75 355.154L826.058 354.797C826.626 354.643 827.233 354.745 827.717 355.079L843.033 365.609L851.503 369.843C851.877 370.031 852.301 370.096 852.714 370.029L863.863 368.246C864.363 368.166 864.814 367.899 865.125 367.499L867.558 364.371C867.937 363.884 868.52 363.599 869.137 363.599H872.45C873.208 363.599 873.9 363.171 874.239 362.493L876.233 358.506C876.526 357.919 877.089 357.513 877.739 357.42L887.114 356.081C887.207 356.068 887.302 356.061 887.396 356.061H900.607C901.071 356.061 901.52 355.9 901.879 355.605L909.867 349.026L923.495 340.567C924.083 340.202 924.44 339.56 924.44 338.868V332.654C924.44 332.192 924.6 331.745 924.892 331.388L928.818 326.589C928.914 326.472 929.023 326.366 929.143 326.273L939.731 318.092C939.921 317.945 940.136 317.834 940.365 317.763L946.263 315.948C946.454 315.89 946.652 315.86 946.851 315.86H955.185C955.456 315.86 955.724 315.915 955.973 316.022L962.254 318.713C962.503 318.82 962.771 318.875 963.042 318.875H973.471C973.614 318.875 973.757 318.89 973.896 318.921L996.454 323.824C996.684 323.874 996.921 323.883 997.154 323.851L1014.23 321.48C1014.66 321.42 1015.06 321.221 1015.37 320.913L1021.54 314.744C1021.79 314.488 1022.12 314.33 1022.46 314.473C1023.99 315.125 1028.54 318.457 1038.51 328.423C1049.61 339.522 1065.84 337.838 1073.59 335.338C1074.28 335.115 1074.76 334.511 1074.87 333.795L1075.47 329.889C1075.6 329.018 1076.29 328.338 1077.16 328.213L1089.15 326.501C1089.55 326.444 1089.96 326.51 1090.33 326.692L1106.75 334.905C1107.43 335.244 1107.86 335.936 1107.86 336.694V488.221L1105.93 514.725C1105.88 515.428 1105.46 516.053 1104.83 516.368L1100.21 518.679C1099.39 519.089 1098.39 518.888 1097.8 518.192L1096.19 516.316C1095.93 516.018 1095.6 515.802 1095.22 515.694L1093.11 515.093C1092.58 514.941 1092.01 515.016 1091.53 515.301L1085.03 519.202C1084.84 519.318 1084.63 519.4 1084.41 519.446L1070.68 522.286C1070.35 522.355 1070.03 522.512 1069.77 522.739L1066.48 525.62C1066.26 525.811 1066.09 526.047 1065.97 526.313L1064.46 529.709C1064.25 530.174 1063.88 530.542 1063.41 530.74L1054.59 534.453L1049.64 537.341C1048.98 537.726 1048.16 537.701 1047.52 537.278L1046.46 536.571C1045.89 536.19 1045.17 536.129 1044.54 536.407L1041.02 537.97L1036.85 540.475C1036.31 540.796 1035.66 540.849 1035.08 540.617L1031.15 539.045C1031.03 538.998 1030.91 538.963 1030.79 538.939L1008.03 534.486C1007.91 534.464 1007.8 534.431 1007.69 534.389L986.094 526.044C985.865 525.955 985.62 525.91 985.374 525.91H966.799C966.701 525.91 966.602 525.917 966.505 525.932L943.781 529.316C943.299 529.388 942.86 529.633 942.546 530.006L935.592 538.263C935.212 538.715 934.652 538.975 934.062 538.975H930.719C930.235 538.975 929.767 539.151 929.402 539.47L926.324 542.164C926.077 542.38 925.781 542.532 925.461 542.606L911.895 545.772C911.259 545.92 910.592 545.729 910.13 545.268C909.419 544.557 909.389 543.415 910.061 542.668L913.081 539.313C913.281 539.091 913.429 538.826 913.513 538.539L915.847 530.605C915.88 530.49 915.904 530.373 915.917 530.254L917.316 517.189C917.373 516.66 917.216 516.13 916.881 515.716L895.917 489.876C895.837 489.778 895.748 489.688 895.652 489.607L877.413 474.248C876.962 473.868 876.702 473.308 876.702 472.718V467.473C876.702 467.237 876.66 467.003 876.578 466.781L870.002 448.932C869.79 448.357 869.854 447.715 870.176 447.193L873.103 442.435C873.466 441.846 873.498 441.112 873.189 440.493L871.76 437.634C871.704 437.523 871.659 437.408 871.625 437.289L869.813 430.947C869.717 430.61 869.534 430.304 869.282 430.06L853.72 414.985C853.631 414.898 853.55 414.804 853.478 414.702L841.892 398.288C841.654 397.951 841.526 397.548 841.526 397.135V391.238C841.526 390.907 841.444 390.582 841.287 390.29L838.17 384.501C838.063 384.303 837.99 384.088 837.955 383.865L836.624 375.435C836.545 374.933 836.277 374.48 835.876 374.168L832.406 371.469C832.126 371.251 831.909 370.963 831.777 370.633L829.115 363.98C829.015 363.728 828.864 363.5 828.673 363.308Z" fill="#A4A4A4" fill-opacity="0.1" stroke="#E6E2DC" stroke-opacity="0.4"/>
<path d="M72.6026 209.109L71.9692 204.992C71.8234 204.044 72.4494 203.149 73.3899 202.961C73.9161 202.856 74.4618 202.992 74.8771 203.331L79.4937 207.109C79.6626 207.247 79.8077 207.412 79.9233 207.597L81.6668 210.386C82.036 210.977 82.0712 211.717 81.7596 212.341L81.4712 212.917C81.052 213.756 80.1067 214.191 79.1973 213.963L77.2021 213.465C76.8942 213.388 76.609 213.238 76.3702 213.029L73.2624 210.31C72.9079 210 72.6742 209.575 72.6026 209.109Z" fill="black" fill-opacity="0.1" stroke="#E6E2DC" stroke-opacity="0.4"/>
<path d="M548.089 14.741V16.8C548.089 17.4687 548.424 18.0932 548.98 18.4641L550.601 19.5446C550.929 19.7636 551.315 19.8805 551.71 19.8805H553.955C554.388 19.8805 554.809 20.0208 555.155 20.2805L555.244 20.3472C556.041 20.9444 557.155 20.8652 557.859 20.1614L560.15 17.8704L563.985 13.0767C564.107 12.9233 564.207 12.7526 564.28 12.5701L566.056 8.12865C566.138 7.92488 566.18 7.70741 566.18 7.48794V5.03398C566.18 4.0622 564.919 3.68059 564.38 4.48916C564.245 4.69246 564.038 4.83794 563.801 4.8972L560.363 5.75688C560.221 5.79228 560.084 5.84306 559.953 5.90831L553.357 9.2066C553.196 9.28698 553.047 9.38865 552.913 9.50887L548.751 13.2545C548.33 13.6337 548.089 14.1741 548.089 14.741Z" fill="#A4A4A4" fill-opacity="0.1" stroke="#E6E2DC" stroke-opacity="0.4"/>
<path d="M737.888 43.0695V41.1858C737.888 41.0355 737.905 40.8856 737.938 40.739L738.965 36.26C739 36.1067 739.053 35.9581 739.123 35.8172L741.724 30.5811C741.844 30.3389 742.012 30.1236 742.218 29.9482L745.433 27.2088C746.212 26.5455 747.366 26.5765 748.107 27.2807L750.949 29.9786C751.113 30.1344 751.303 30.2612 751.509 30.3537L755.586 32.1777C756.345 32.5175 757.235 32.3518 757.822 31.7616L759.038 30.5373C759.477 30.0946 760.098 29.8824 760.717 29.9637L761.726 30.0962C762.296 30.1711 762.871 29.9968 763.304 29.618L765.236 27.9262C765.418 27.7671 765.627 27.6423 765.853 27.5577L769.728 26.1086C769.846 26.0644 769.96 26.0092 770.068 25.9436L774.826 23.047C775.139 22.8562 775.499 22.7553 775.866 22.7553H777.682C778.518 22.7553 779.265 22.2362 779.557 21.4534L779.717 21.0232C780.008 20.2404 780.756 19.7213 781.591 19.7213H786.48H788.489C789.121 19.7213 789.716 19.4227 790.093 18.916L790.267 18.6832C790.716 18.0792 790.789 17.2735 790.454 16.5989L782.762 1.11044C782.424 0.430198 781.73 0 780.971 0H635.396C634.253 0 633.343 0.956304 633.399 2.09798L635.288 40.6113C635.299 40.8401 635.365 41.063 635.48 41.2613C635.871 41.9369 636.731 42.1764 637.415 41.8005L638.946 40.9596L643.978 37.7359C644.3 37.5295 644.674 37.4198 645.057 37.4198H648.313C648.674 37.4198 649.029 37.3217 649.34 37.1359L653.511 34.6386L657.111 32.8851C657.305 32.7906 657.482 32.6652 657.636 32.514L661.968 28.2588C662.342 27.8915 662.845 27.6856 663.37 27.6856H670.085L678.247 27.3064L681.925 27.6431C682.231 27.6711 682.539 27.6282 682.826 27.5179L686.137 26.2431C686.479 26.1117 686.85 26.0764 687.21 26.1412L692.908 27.1656C693.41 27.256 693.86 27.5355 694.163 27.9466L696.657 31.3268C696.853 31.5922 696.98 31.9018 697.027 32.2282L697.939 38.5418C697.953 38.6365 697.96 38.7321 697.96 38.8278V42.5724C697.96 43.2297 697.341 43.7116 696.704 43.5511C696.067 43.3907 695.448 43.8726 695.448 44.5299V44.6702C695.448 44.9656 695.332 45.249 695.123 45.4586L693.87 46.7206C693.751 46.8405 693.647 46.9751 693.562 47.1211L692.606 48.7571C692.493 48.9512 692.348 49.1248 692.176 49.2706L689.849 51.2531C689.417 51.6212 688.849 51.7884 688.286 51.7129L688.248 51.7077C687.643 51.6264 687.034 51.8333 686.604 52.2666C686.237 52.6355 685.739 52.8429 685.219 52.8429H682.271C682.116 52.8429 681.977 52.7472 681.922 52.6022C681.782 52.2381 681.249 52.3028 681.201 52.6897L681.157 53.0417C681.143 53.1577 681.085 53.2639 680.995 53.339L680.109 54.0825C679.796 54.3454 679.409 54.5059 679.002 54.5423L674.539 54.9418C674.172 54.9746 673.821 55.1081 673.525 55.3276L672.374 56.1816C671.88 56.5479 671.246 56.6668 670.653 56.504L669.531 56.1958C669.078 56.0715 668.596 56.1104 668.169 56.3058L665.602 57.4807C665.026 57.7442 664.359 57.7194 663.804 57.4138L658.482 54.4817C658.186 54.3189 657.854 54.2335 657.517 54.2335H656.399C655.99 54.2335 655.592 54.3585 655.256 54.5917L649.206 58.8005C648.981 58.9568 648.727 59.0653 648.459 59.1193L647.049 59.4033C646.599 59.4937 646.195 59.7357 645.903 60.0887L644.986 61.1961C644.656 61.5954 644.183 61.8508 643.668 61.9084L641.081 62.1979L636.561 62.83H633.718C633.131 62.83 632.575 63.0871 632.195 63.5335L631.632 64.1944C631.406 64.4601 631.114 64.6619 630.786 64.78L628.196 65.7114C627.916 65.8119 627.663 65.9733 627.453 66.184L626.031 67.6157C625.854 67.7947 625.644 67.9385 625.412 68.0394L622.31 69.393C622.102 69.4838 621.88 69.5384 621.653 69.5547L619.141 69.7354C618.712 69.7663 618.304 69.9349 617.978 70.2161L616.483 71.5066C616.074 71.8594 615.54 72.0319 615.001 71.9848L610.88 71.6239C610.359 71.5784 609.841 71.7385 609.437 72.0701L607.364 73.7702C606.927 74.1292 606.662 74.6567 606.635 75.222L606.444 79.2544C606.432 79.5115 606.371 79.7637 606.263 79.9974L605.259 82.1751C604.969 82.8022 604.377 83.2357 603.692 83.3219L602.785 83.4361L598.375 83.6761C598.218 83.6847 598.061 83.675 597.907 83.6453C597.375 83.5427 596.482 83.3568 595.879 83.1833C595.56 83.0917 595.35 83.2388 595.215 83.4742C594.901 84.0237 595.3 84.6699 595.808 85.0472L599.143 87.5211C599.547 87.8208 600.049 87.9573 600.549 87.9033L602.789 87.6616C603.116 87.6264 603.446 87.6722 603.751 87.7949L605.533 88.5125C606.664 88.9678 607.934 88.3097 608.215 87.1237C608.277 86.8594 608.285 86.5851 608.238 86.3177L607.869 84.2395C607.752 83.5798 607.973 82.9054 608.458 82.443L609.852 81.1132C609.995 80.977 610.157 80.8627 610.333 80.774L612.073 79.8982C612.403 79.7318 612.774 79.6603 613.143 79.6919L618.068 80.114C618.34 80.1373 618.604 80.2158 618.844 80.3447L625.511 83.9248C625.839 84.1012 626.211 84.1823 626.583 84.1588L629.702 83.9626C629.92 83.9488 630.135 83.8995 630.337 83.8164L635.979 81.4975C636.115 81.4417 636.245 81.371 636.365 81.2867L640.468 78.4182C640.624 78.3086 640.796 78.2221 640.977 78.1612L644.471 76.9888L653.65 74.6491C654.127 74.5276 654.631 74.5861 655.068 74.8133L657.823 76.2484C657.962 76.3204 658.108 76.3759 658.259 76.414L662.552 77.4945L670.603 79.0912C670.759 79.1222 670.912 79.1719 671.057 79.2392L673.774 80.5019C673.992 80.6031 674.226 80.6642 674.465 80.6824L685.271 81.5013C685.605 81.5266 685.928 81.6356 686.209 81.8183L689.494 83.9519C689.613 84.0293 689.723 84.119 689.823 84.2197L693.603 88.0254C693.744 88.1677 693.863 88.3305 693.956 88.5082L696.157 92.7186C696.27 92.9337 696.342 93.1675 696.371 93.4085L696.612 95.4357C696.671 95.9303 696.544 96.4291 696.254 96.8345L694.287 99.5904C693.985 100.013 693.53 100.302 693.019 100.396L690.009 100.947C689.786 100.987 689.572 101.066 689.376 101.178L684.275 104.098C683.653 104.455 683.269 105.117 683.269 105.834V105.908C683.269 106.338 683.408 106.757 683.665 107.102L684.048 107.616C684.671 108.453 684.541 109.643 683.992 110.531C683.834 110.786 683.689 111.047 683.558 111.303C682.987 112.416 683.836 113.692 684.825 114.457C684.911 114.523 684.993 114.591 685.072 114.659C685.804 115.294 685.605 116.373 684.968 117.103C684.608 117.515 684.287 117.955 684.148 118.328C683.873 119.065 684.551 119.858 685.022 120.248C685.107 120.319 685.201 120.375 685.3 120.424C686.526 121.031 688.901 122.091 689.673 121.994C690.385 121.904 691.611 121.41 692.317 121.094C692.48 121.021 692.629 120.925 692.763 120.807C693.379 120.265 694.481 119.229 695.197 118.328C696.001 117.316 697.625 116.895 698.336 116.811H705.292C705.509 116.811 705.723 116.846 705.929 116.915L706.588 117.136C706.94 117.254 707.317 117.272 707.677 117.188L710.016 116.645C710.263 116.587 710.497 116.483 710.706 116.338L720.086 109.809C720.396 109.593 720.761 109.469 721.139 109.452L725.783 109.245C726.065 109.232 726.346 109.279 726.609 109.383L729.372 110.476C729.606 110.569 729.856 110.616 730.108 110.616H732.677C732.967 110.616 733.253 110.679 733.515 110.8L735.77 111.841C736.008 111.95 736.265 112.012 736.526 112.023L741.93 112.245C742.163 112.255 742.393 112.305 742.609 112.394L744.339 113.106C744.793 113.294 745.301 113.307 745.765 113.143L749.559 111.807C749.892 111.689 750.188 111.486 750.417 111.217L754.864 105.993C755.172 105.632 755.341 105.172 755.341 104.697V103.976C755.341 103.773 755.275 103.575 755.154 103.413L754.909 103.083C754.732 102.845 754.395 102.797 754.159 102.976C753.872 103.192 753.458 103.07 753.335 102.733L752.894 101.527C752.771 101.192 752.773 100.825 752.899 100.492L754.963 95.0226C755.047 94.8009 755.169 94.5958 755.325 94.4169L756.848 92.6647L758.535 90.5124C758.665 90.347 758.82 90.2031 758.994 90.0859L760.614 88.9986L762.589 87.3893C762.972 87.0767 763.077 86.5345 762.838 86.1012C762.701 85.8528 762.467 85.6723 762.192 85.6031L756.281 84.1153C756.157 84.084 756.03 84.0647 755.902 84.0578L748.215 83.6394C747.369 83.5934 746.643 83.0188 746.404 82.2055L745.443 78.9301C745.271 78.3428 745.377 77.7089 745.731 77.2097L746.179 76.5792C746.34 76.3522 746.426 76.0808 746.426 75.8026V75.3901C746.426 74.8767 746.842 74.4604 747.356 74.4604C747.771 74.4604 748.137 74.1845 748.25 73.7845L748.572 72.651C748.725 72.1123 749.096 71.6623 749.597 71.4106L750.57 70.9207L751.227 70.5899C751.902 70.2502 752.438 69.488 753.119 69.1608C753.219 69.1125 753.332 69.0666 753.457 69.0245C754.361 68.721 754.922 69.3194 755.09 69.6565L754.582 68.2929C754.423 67.8663 754.414 67.3983 754.557 66.9662L757.104 59.2729C757.256 58.814 757.153 58.3088 756.833 57.9464C756.529 57.6018 756.071 57.4344 755.616 57.5014L751.968 58.0389C751.473 58.1119 750.967 57.9961 750.553 57.7144L746.334 54.8474C746.228 54.7754 746.13 54.6934 746.039 54.6026L742.083 50.6193C741.965 50.5009 741.863 50.3682 741.778 50.2243L738.164 44.0839C737.983 43.7765 737.888 43.4262 737.888 43.0695Z" fill="#A4A4A4" fill-opacity="0.1" stroke="#E6E2DC" stroke-opacity="0.4"/>
<path d="M703.675 109.989C703.675 110.073 703.339 110.576 704.178 110.744C705.017 110.912 705.856 110.828 706.443 110.576C707.03 110.325 708.54 111.75 708.707 111.75C708.875 111.75 708.875 112.254 709.63 111.583C710.385 110.912 711.056 110.66 711.224 110.325C711.391 109.989 711.14 109.989 711.643 109.57C712.146 109.15 713.237 109.402 713.321 108.731C713.404 108.06 714.159 107.892 713.069 107.221C711.979 106.55 711.643 106.886 711.643 106.131C711.643 105.376 711.14 105.46 712.23 104.621C713.321 103.782 712.901 103.866 713.572 103.447C714.243 103.027 713.404 102.859 714.747 102.943" stroke="#E6E2DC" stroke-opacity="0.2" stroke-width="0.3"/>
<path d="M696.545 105.292C696.377 105.292 695.622 105.46 694.616 105.292C693.609 105.124 693.19 105.208 692.603 104.957C692.015 104.705 691.596 104.118 691.764 104.118C691.932 104.118 692.099 104.118 693.106 104.034C694.112 103.95 694.196 104.118 694.783 103.782C695.371 103.447 696.041 103.363 696.545 103.111C697.048 102.86 696.88 102.776 697.3 102.776C697.719 102.776 697.971 102.692 698.139 102.356C698.306 102.021 698.726 101.769 698.893 101.518C699.061 101.266 699.984 101.098 700.152 100.93C700.319 100.763 700.236 100.847 700.571 100.511C700.907 100.176 700.655 100.427 701.074 99.5045C701.494 98.5819 701.745 98.3302 701.829 98.2464C701.913 98.1625 703.255 96.4011 703.255 95.9817C703.255 95.5623 703.003 95.3945 703.423 94.6397C703.842 93.8848 704.345 93.4654 704.429 93.2137C704.513 92.9621 707.113 92.375 707.197 92.375C707.281 92.375 707.03 92.2911 708.036 92.375C709.043 92.4588 708.539 92.375 709.462 92.5427C710.385 92.7105 711.056 92.8782 711.475 92.8782C711.894 92.8782 712.23 92.7105 712.482 92.7105C712.733 92.7105 712.062 92.2072 713.153 92.7105C714.243 93.2137 714.914 95.059 715.166 95.3107C715.417 95.5623 714.998 96.3172 715.921 95.9817C716.843 95.6462 716.843 95.8139 717.263 95.2268C717.682 94.6396 717.598 94.4719 717.85 94.2203C718.101 93.9686 717.263 93.717 718.772 93.717C720.282 93.717 719.779 93.717 720.702 93.717C721.624 93.717 722.379 92.5427 722.798 93.3815C723.218 94.2203 722.882 94.6397 723.637 94.6397C724.392 94.6397 725.315 94.5558 725.483 94.388C725.65 94.2203 726.489 91.6201 727.747 91.7878C729.005 91.9556 729.676 92.1233 730.096 92.0395C730.515 91.9556 731.102 92.0395 731.773 92.2072C732.444 92.375 732.36 92.9621 733.451 92.2072C734.541 91.4523 734.29 91.2007 734.793 91.2007C735.296 91.2007 736.47 92.1233 737.141 92.2072C737.812 92.2911 738.735 92.7105 738.483 92.9621C738.232 93.2137 737.645 93.046 736.974 93.717C736.303 94.388 736.219 94.7235 735.799 95.059C735.38 95.3945 734.457 96.4011 733.954 96.5688" stroke="#E6E2DC" stroke-opacity="0.2" stroke-width="0.3"/>
<path d="M754.672 88.2648C754.253 88.1809 753.414 88.097 752.995 88.097C752.575 88.097 752.995 87.6777 752.24 88.097C751.485 88.5164 751.149 88.6003 750.814 88.6003C750.478 88.6003 752.324 88.0971 749.724 88.6003C747.123 89.1036 745.781 89.1036 745.446 89.1036C745.11 89.1036 745.53 89.3552 744.104 89.1036C742.678 88.852 742.846 88.6003 741.42 88.6003C739.994 88.6003 739.491 88.2648 738.736 88.2648C737.981 88.2648 737.478 88.5165 737.31 88.9358C734.961 88.9358 734.793 89.1036 734.542 88.9358C734.29 88.7681 734.458 88.6003 733.787 88.7681C733.116 88.9358 733.032 88.6003 732.613 88.9358C732.193 89.2714 732.193 89.4391 732.025 89.523C731.858 89.6069 730.348 88.7681 729.929 88.7681C729.509 88.7681 729.341 89.0197 728.754 89.2714C728.167 89.523 728.335 89.4391 727.748 89.523C727.161 89.6069 726.741 89.3552 726.154 89.6069C725.567 89.8585 724.477 90.9489 724.225 91.2844C724.024 91.5528 723.694 91.7318 723.554 91.7877C723.218 91.5081 722.514 90.9153 722.38 90.7811C722.212 90.6134 722.044 90.4456 721.876 90.3618C721.742 90.2947 720.87 90.7252 720.45 90.9489C720.534 91.0607 720.601 91.2509 720.199 91.1167C719.696 90.9489 718.941 89.6907 718.521 89.8585C718.102 90.0262 716.76 90.4456 716.676 90.6134C716.592 90.7811 716.424 90.4456 716.257 91.1167C716.089 91.7877 716.424 91.8715 716.257 92.1232C715.753 92.1232 715.586 92.4587 714.999 91.7877C714.411 91.1167 713.908 90.3618 713.656 90.194C713.405 90.0262 713.992 90.194 712.482 90.0262C710.972 89.8585 710.553 89.8585 709.379 89.8585C708.204 89.8585 707.785 89.6907 706.862 90.0262C705.94 90.3618 705.94 90.1101 705.269 90.6134C704.598 91.1167 704.346 91.2844 704.011 91.536C703.088 92.1232 701.327 92.9619 701.327 93.633C701.327 94.304 701.327 94.8072 701.327 95.4783C701.327 96.1493 701.83 95.8976 700.907 97.1558C699.985 98.414 700.068 98.4978 699.733 99.085C699.397 99.6721 699.565 99.5882 699.146 100.008C698.726 100.427 698.81 100.679 698.307 100.763C697.804 100.846 697.552 101.182 697.217 101.35C696.881 101.517 696.042 101.266 695.539 101.517C695.036 101.769 695.036 102.188 694.029 102.356C693.023 102.524 693.107 102.524 692.1 102.608C691.094 102.692 691.094 102.859 690.506 103.111C689.919 103.363 690.842 102.943 690.674 104.118C690.506 105.292 688.997 105.711 691.094 106.131C693.19 106.55 694.113 106.634 694.616 106.634C695.12 106.634 693.861 106.718 695.539 106.55C697.971 106.298 697.971 106.047 698.475 106.298C698.978 106.55 699.984 106.298 701.494 106.298C703.004 106.298 704.346 105.544 704.094 106.55C703.843 107.557 703.759 107.976 703.675 108.228C703.591 108.479 703.675 108.395 703.675 108.731C703.675 109.066 703.675 109.066 703.675 109.234C703.675 109.368 703.675 109.793 703.675 109.989" stroke="#E6E2DC" stroke-opacity="0.2" stroke-width="0.3"/>
<path d="M737.394 108.06C737.477 107.976 737.645 107.892 738.148 107.724H739.155C739.658 107.724 739.49 108.395 739.49 108.647C739.49 108.898 739.323 108.815 738.484 109.066C737.645 109.318 737.477 109.066 737.142 108.815C736.806 108.563 737.31 108.144 737.394 108.06Z" stroke="#E6E2DC" stroke-opacity="0.2" stroke-width="0.3"/>
<path d="M749.304 104.956C750.143 105.124 750.227 105.543 750.311 105.711C750.394 105.879 751.065 105.208 750.311 106.215C749.556 107.221 749.64 107.053 748.885 107.808C748.13 108.563 747.878 108.899 747.626 109.066C747.375 109.234 748.298 109.066 746.872 109.402C745.446 109.737 745.278 109.821 744.775 110.073C744.271 110.324 744.188 110.324 743.433 110.408C742.678 110.492 742.51 110.408 742.007 110.241C741.503 110.073 741.503 109.905 740.665 109.821C739.826 109.737 740.161 109.821 738.819 109.821C737.477 109.821 736.471 109.821 736.219 109.821C735.968 109.821 735.548 109.318 734.961 109.066C734.374 108.815 734.961 108.815 733.619 108.731C732.109 108.311 732.193 108.311 732.109 107.976C732.025 107.64 732.025 107.808 731.941 107.305C731.858 106.802 731.187 106.298 731.774 106.382C732.361 106.466 732.612 106.298 732.696 106.55M749.136 104.956C748.745 105.04 747.828 105.258 747.291 105.46C746.62 105.711 746.955 105.963 745.53 105.963C744.104 105.963 745.53 106.466 743.433 106.215C741.336 105.963 739.658 104.789 739.323 104.705C738.987 104.621 738.484 104.872 738.819 104.705C739.155 104.537 739.91 103.698 740.161 103.698C740.413 103.698 740.245 103.363 741.336 103.53C742.208 103.665 743.992 103.586 744.775 103.53C745.026 103.502 745.53 103.329 745.53 102.859C745.53 102.272 745.53 102.44 745.865 101.601C746.201 100.427 746.117 100.259 745.53 99.8399C745.06 99.5044 744.439 99.4205 744.187 99.4205C743.824 98.6656 743.248 97.1558 743.852 97.1558C744.607 97.1558 744.271 97.1558 745.362 96.988C746.452 96.8203 745.865 96.7364 747.291 96.7364C749.304 96.7364 749.639 96.1493 749.975 96.988C750.311 97.8268 750.478 98.4139 750.646 98.4978C750.814 98.5817 750.562 98.5817 751.065 98.6656" stroke="#E6E2DC" stroke-opacity="0.2" stroke-width="0.3"/>
<path d="M751.653 95.0587C751.233 94.807 750.311 94.6393 749.723 94.5554C749.136 94.4715 749.807 93.8844 748.214 94.3877C746.62 94.8909 746.872 94.7231 746.117 95.0587C745.362 95.3942 745.278 95.562 744.691 95.562C744.104 95.562 744.607 95.0587 743.349 95.8136C742.091 96.5685 741.923 96.5685 741.42 96.9879C740.916 97.4073 741.084 97.4073 740.581 97.8267C740.078 98.246 739.742 98.5816 739.239 98.9171C738.736 99.2526 738.568 99.2526 738.316 99.672C738.065 100.091 737.981 100.175 737.729 100.427C737.477 100.678 737.31 100.846 737.142 101.014C736.974 101.182 736.974 101.182 736.639 101.433C736.37 101.635 736.135 101.797 736.051 101.853C735.744 101.853 734.995 101.853 734.458 101.853C733.787 101.853 732.948 101.601 732.948 101.853C732.948 102.104 732.864 101.853 733.2 102.608C733.535 103.363 733.703 103.782 733.955 103.866C733.619 105.04 733.871 105.04 732.948 105.04C732.025 105.04 732.78 105.376 731.606 105.04C730.264 105.04 730.264 105.208 730.348 105.543C730.432 105.879 730.516 105.543 730.516 106.13C730.516 106.718 731.27 106.885 730.516 107.053C729.761 107.221 729.845 107.64 729.09 107.221C728.335 106.802 728.251 106.969 727.748 106.382C727.244 105.795 727.16 105.879 727.077 105.376C726.993 104.872 727.58 104.788 726.741 104.453C725.902 104.117 725.818 104.034 725.651 103.866C725.483 103.698 725.147 103.53 725.399 103.446C725.651 103.363 724.56 103.111 725.986 103.279C727.412 103.446 727.161 103.614 727.664 103.53C728.167 103.446 727.748 103.698 728.503 103.279C729.258 102.859 729.174 102.775 729.761 102.608C730.851 102.356 730.935 102.356 731.187 102.104C731.438 101.853 731.27 101.853 731.606 101.433C731.942 101.014 731.522 101.014 732.361 100.846C733.2 100.678 732.948 100.762 733.703 100.678C734.458 100.595 733.703 101.098 734.877 100.678C736.051 100.259 735.297 100.93 736.639 99.9236C737.981 98.9171 737.729 99.1687 738.484 98.5816C739.239 97.9944 739.155 98.4138 739.658 97.8267C740.162 97.2395 739.742 97.2395 740.329 96.9879C740.916 96.7363 740.497 96.9879 741.252 96.4008C742.007 95.8136 741.42 96.0653 742.594 95.562" stroke="#E6E2DC" stroke-opacity="0.2" stroke-width="0.3"/>
<path d="M724.896 102.189C725.483 102.357 725.483 102.524 726.238 102.357C726.993 102.189 727.832 101.937 728.67 101.769C729.509 101.602 729.677 101.35 729.845 101.35C730.013 101.35 730.013 101.35 730.348 101.35C731.271 100.176 731.019 100.008 731.69 99.8402C732.361 99.6724 732.277 99.5886 732.948 99.5047C733.619 99.4208 733.032 100.008 734.374 99.3369C735.716 98.6659 735.381 98.9175 736.471 98.3304C737.561 97.7433 737.645 97.5755 738.149 97.4078C738.652 97.24 737.561 97.9949 739.239 96.9045C740.917 95.8141 740.413 96.1496 741.336 95.4786C742.259 94.8076 741.839 95.1431 743.097 94.4721C744.355 93.801 743.433 94.0527 745.027 93.3817C746.62 92.7106 745.278 93.13 747.207 92.3751C749.136 91.6202 748.885 91.7041 749.388 91.6202C749.891 91.5364 749.64 91.6202 750.646 91.2847C751.653 90.9492 750.982 91.117 751.904 90.9492" stroke="#E6E2DC" stroke-opacity="0.2" stroke-width="0.3"/>
<path d="M725.818 100.259C726.181 100.231 727.076 100.075 727.747 99.6721C728.586 99.1688 728.167 99.4204 729.173 98.9172C730.18 98.4139 730.934 97.9106 731.941 97.4912C732.948 97.0719 732.193 96.988 733.451 96.9041C734.709 96.8202 734.038 97.5751 736.135 96.5686C738.232 95.5621 738.903 95.5621 740.077 94.5555C741.251 93.549 740.664 93.549 742.342 92.7941C744.019 92.0392 743.768 92.2909 744.69 91.9554C745.613 91.6198 745.865 91.9554 746.452 91.2005C747.039 90.4456 747.794 90.2778 745.865 90.2778C743.935 90.2778 744.523 90.2778 742.677 90.2778C740.832 90.2778 741 90.5294 740.077 90.2778C739.154 90.0262 740.329 89.1874 738.483 90.1101C736.638 91.0327 736.638 91.3682 735.883 91.0327C735.128 90.6972 734.961 90.2778 734.29 90.2778C732.696 90.865 732.612 90.865 732.193 91.0327C731.773 91.2005 732.528 91.3682 731.354 91.2005C730.18 91.0327 730.18 90.7811 729.341 90.7811C728.502 90.7811 726.321 91.3682 726.07 91.9554C725.818 92.5425 725.482 92.7941 725.315 92.9619C725.147 93.1297 725.818 93.2974 724.895 93.2974C723.973 93.2974 723.469 93.9684 722.966 93.2974C722.463 92.6264 722.631 92.5425 721.876 92.5425C721.121 92.5425 721.456 92.2909 720.701 92.5425C719.947 92.7941 720.03 92.7941 719.359 92.7941C718.688 92.7941 718.437 92.7941 717.934 92.5425C717.43 92.2909 717.598 91.7876 716.675 92.7941C715.753 93.8007 716.004 93.5491 715.669 94.0523C715.333 94.5555 714.495 91.9554 714.243 91.9554C713.991 91.9554 712.649 91.3682 712.062 91.2005C711.475 91.0327 710.972 91.0327 710.301 91.0327C709.63 91.0327 707.952 91.0327 707.533 91.0327C707.113 91.0327 705.268 91.3682 704.597 91.9554C703.926 92.5425 704.429 92.6264 703.842 92.7941C703.255 92.9619 702.584 93.4652 702.332 94.2201C702.081 94.975 702.5 94.3039 702.165 95.4782C701.829 96.6525 702.081 96.4847 701.745 97.0719C701.41 97.659 701.074 97.9945 700.823 98.4139C700.571 98.8333 700.655 98.8333 700.487 99.0849C700.319 99.3366 699.984 99.9237 699.648 100.343C699.313 100.762 699.061 100.846 698.642 101.266C697.887 102.188 698.139 101.937 697.635 102.272C697.166 102.608 696.936 102.803 696.88 102.859" stroke="#E6E2DC" stroke-opacity="0.2" stroke-width="0.3"/>
<path d="M748.13 83.9872C748.046 84.2389 748.13 84.4905 747.878 84.9099C747.627 85.3293 746.704 85.3293 746.368 85.3293C746.033 85.3293 745.446 84.9099 744.942 84.9099C744.439 84.9099 744.271 84.9099 743.768 84.9099C743.265 84.9099 743.097 84.5744 742.594 84.7421C742.091 84.9099 742.175 85.3293 741.839 85.3293C741.504 85.3293 740.413 84.6583 739.826 84.5744C739.356 84.5073 738.4 84.155 737.981 83.9872C737.785 83.9872 737.36 83.9872 737.226 83.9872C737.058 83.9872 736.806 83.7356 736.052 83.6517C735.297 83.5679 734.29 83.6517 733.871 83.6517C733.032 82.8968 733.032 82.5613 732.193 82.8968C731.354 83.2323 731.774 83.1485 731.103 83.4001C730.432 83.6517 729.425 83.4001 729.257 83.4001C729.123 83.4001 728.586 83.7915 728.335 83.9872C728.363 84.127 728.352 84.2557 728.083 83.6517C727.244 82.7291 726.573 82.5614 726.154 82.7291C725.735 82.8968 725.735 82.813 725.147 83.4001C724.057 83.9872 723.302 83.4001 723.051 83.4001C722.799 83.4001 723.218 83.4001 722.38 83.4001C721.541 83.4001 721.038 83.1485 721.121 82.7291C721.205 82.3097 720.954 82.5613 721.792 81.8064C722.631 81.0515 721.96 81.3032 723.051 80.716C724.141 80.1289 724.141 80.2128 725.147 79.374C726.154 78.5352 725.818 79.2062 726.573 78.2836C727.664 77.3609 727.748 77.6965 728.335 77.8642C728.922 78.032 728.503 78.1998 729.341 78.032C730.18 77.8642 729.677 77.8642 730.935 77.6965C733.032 77.4449 731.69 78.1998 733.871 77.2771C736.052 76.3545 735.8 76.9416 736.639 75.8512C737.645 73.6704 737.31 73.5026 737.645 72.8316C737.981 72.1606 737.897 72.2445 738.484 71.4057C739.071 70.5669 738.316 71.4896 739.826 69.8959C741.336 68.3023 741.839 68.47 741.839 68.1345C741.839 67.8661 743.125 67.2398 743.768 66.9602C743.572 66.9323 743.416 66.9267 744.355 67.128C745.53 67.3796 746.368 67.2118 746.368 66.4569C746.368 65.702 745.781 65.7859 746.368 65.3665C746.955 64.9472 746.536 64.5278 747.878 64.9472C749.22 65.3665 749.052 65.3666 749.556 65.7859C751.317 65.7859 751.401 64.9472 751.736 64.9472C752.072 64.9472 752.827 64.9472 753.33 64.9472" stroke="#E6E2DC" stroke-opacity="0.2" stroke-width="0.3"/>
<path d="M738.987 56.4756C739.043 56.895 739.289 57.8512 739.826 58.3209C740.497 58.908 740.497 58.8241 741.168 58.908C741.839 58.9919 740.748 58.908 742.594 59.6629" stroke="#E6E2DC" stroke-opacity="0.2" stroke-width="0.3"/>
<path d="M740.078 60.25C740.749 60.3339 741.923 60.7533 742.678 61.0888C743.433 61.4243 743.181 60.921 743.936 62.1792C744.691 63.4373 745.026 63.3535 744.775 64.36C744.523 65.3665 744.355 65.6181 743.936 65.9536C743.517 66.2892 743.517 66.373 743.097 66.5408" stroke="#E6E2DC" stroke-opacity="0.2" stroke-width="0.3"/>
<path d="M737.225 51.3589C738.232 51.6944 739.49 52.5332 739.574 53.1203C739.658 53.7074 740.077 55.0495 740.077 55.6366" stroke="#E6E2DC" stroke-opacity="0.2" stroke-width="0.3"/>
<path d="M702.165 66.7927C702.249 66.3734 704.094 65.4507 704.513 65.1152C704.765 65.0313 705.402 64.83 705.939 64.6958C706.61 64.5281 707.449 64.3603 709.043 64.4442C710.636 64.5281 710.888 64.7797 711.391 64.8636C711.895 64.9474 712.146 66.2056 711.559 67.0444C711.056 67.0444 710.553 66.9605 710.049 67.0444C709.546 67.1283 707.617 68.1348 707.03 68.1348C706.443 68.1348 702.165 68.3025 702.165 67.8831C702.165 67.4638 702.081 67.2121 702.165 66.7927Z" stroke="#E6E2DC" stroke-opacity="0.2" stroke-width="0.3"/>
<path d="M703.507 63.4374C702.669 63.4374 700.907 65.4505 700.823 65.6182C700.6 65.8139 700.102 66.3228 699.901 66.7925C699.649 67.3796 699.901 67.2119 700.152 67.8829C700.404 68.5539 700.823 68.2184 701.83 68.9733C702.836 69.7282 702.836 69.1411 704.262 69.3927C705.688 69.6443 706.443 69.0572 707.953 68.9733C709.463 68.8894 709.463 69.1411 710.889 69.3927C712.314 69.6443 711.727 69.6443 711.979 70.2315C712.231 70.8186 712.314 70.9864 712.566 71.3219C712.818 71.6574 713.405 71.1541 713.573 70.9864C713.74 70.8186 712.902 69.4766 713.573 68.5539C714.244 67.6313 715.334 67.799 717.012 67.2119C718.689 66.6247 717.766 67.6313 718.857 68.0507C719.947 68.47 720.954 68.0507 722.128 68.0507C723.302 68.0507 722.464 67.6313 722.547 66.2054C722.631 64.7794 722.296 65.115 722.128 65.115C721.96 65.115 721.122 64.9472 720.451 64.4439C719.779 63.9407 719.779 63.9407 718.437 62.8503C717.095 61.7599 717.766 62.347 717.179 62.6825C716.592 63.018 715.166 63.8568 714.411 63.7729C713.656 63.689 713.321 62.9341 712.566 62.347C711.811 61.7599 711.727 62.0954 710.05 62.1793C708.372 62.2631 708.288 62.5148 706.108 63.1858C703.927 63.8568 704.346 63.4374 703.507 63.4374Z" stroke="#E6E2DC" stroke-opacity="0.2" stroke-width="0.3"/>
<path d="M695.203 72.7482C695.958 71.7417 695.874 72.0772 696.126 71.9933L696.461 71.8255C696.741 71.6019 697.35 70.8358 697.552 69.5609C697.636 68.4704 697.971 68.3866 697.971 67.9672C697.971 67.5478 698.307 67.1284 698.81 66.3735C699.313 65.6186 699.565 65.367 700.487 64.3605C701.41 63.354 701.158 63.9411 702.081 63.6056C703.004 63.2702 703.172 62.5991 703.843 62.2636C704.514 61.9282 704.849 61.8442 709.378 60.3344C713.908 58.8246 709.966 60.3344 710.301 60.3344C710.637 60.3344 710.888 60.5021 711.14 60.9215C711.391 61.3409 712.062 61.928 713.321 61.3409C713.74 60.4182 714.495 60.2505 714.747 60.0827C714.998 59.915 715.166 59.6634 716.424 57.3987C717.682 55.1341 717.263 57.6504 717.682 58.2375C718.102 58.8246 718.269 58.6569 719.36 59.4118C720.45 60.1667 720.115 60.2506 721.121 62.2636C722.128 64.2767 723.721 63.2701 724.56 63.6056C725.399 63.9412 725.567 63.6056 725.567 65.7864C725.567 67.9673 725.315 66.4575 724.392 67.6317C723.47 68.806 723.554 68.6382 723.05 69.1415C722.547 69.6449 721.96 70.0642 721.373 70.6513C720.786 71.2384 721.037 70.8191 719.611 71.6578C718.186 72.4966 719.024 71.7417 718.521 71.1546C718.018 70.5674 718.102 68.7221 716.089 68.6382C714.076 68.5543 716.005 69.1415 715.837 69.7286C715.669 70.3157 715.25 70.6513 713.992 71.4061C712.734 72.161 713.153 72.2449 712.901 72.3288C712.65 72.4127 712.482 72.2449 710.301 70.9868C708.12 69.7286 708.791 70.6513 707.869 70.6513C706.946 70.6513 707.365 70.4835 706.443 70.6513C705.52 70.819 705.268 71.0707 703.591 71.9933C701.913 72.916 702.5 72.7482 701.578 73.7547C700.655 74.7613 701.075 74.3419 700.32 74.929C699.565 75.5162 700.068 75.1807 698.978 75.6839C697.887 76.1872 698.474 76.0194 697.971 76.5227C697.468 77.0259 697.552 77.1098 697.132 77.8647C696.713 78.6196 696.797 78.2002 695.706 78.7035C694.616 79.2068 694.868 78.7035 693.022 78.2002C692.603 77.9486 692.016 76.9421 692.687 76.1872C693.358 75.4323 693.442 75.6 693.945 75.1807C694.448 74.7613 694.197 74.6774 694.281 74.1741C694.364 73.6709 694.448 73.7547 695.203 72.7482Z" stroke="#E6E2DC" stroke-opacity="0.2" stroke-width="0.3"/>
<path d="M693.106 79.3739C693.61 79.5417 694.197 80.2966 695.119 80.2127C696.042 80.1288 696.713 80.3805 697.216 79.8772C697.72 79.3739 698.558 78.7868 699.146 78.619C699.733 78.4513 701.41 77.277 702.417 76.8576C703.423 76.4382 703.339 76.6899 704.094 76.1866C704.849 75.6833 704.598 75.935 706.191 74.0058C708.54 71.9927 709.211 71.6572 709.966 71.9927C710.721 72.3282 712.147 73.7542 712.482 73.7542C712.75 73.7542 713.824 72.8595 714.327 72.4121" stroke="#E6E2DC" stroke-opacity="0.2" stroke-width="0.3"/>
<path d="M707.785 99.337C707.047 99.337 706.471 99.6725 706.275 99.8402C706.219 99.9521 706.108 100.226 706.108 100.427C706.108 100.679 705.52 100.679 705.017 101.769C704.514 102.86 705.017 102.357 706.108 102.692C707.198 103.028 706.611 102.86 707.45 102.86H709.043C709.798 102.86 709.547 102.692 710.134 102.357C710.721 102.021 710.385 102.105 712.147 101.098C712.818 101.015 713.153 101.015 713.656 100.679C714.16 100.344 713.824 100.26 713.656 99.8402C713.489 99.4208 712.65 99.8402 711.895 99.8402C711.14 99.8402 711.056 99.8402 710.134 99.337C709.211 98.8337 708.708 99.337 707.785 99.337Z" stroke="#E6E2DC" stroke-opacity="0.2" stroke-width="0.3"/>
<path d="M717.514 101.266C717.347 101.098 716.508 101.098 716.172 101.098C715.977 101.154 715.468 101.232 714.998 101.098C714.411 100.93 714.83 101.266 714.411 101.601C713.992 101.937 713.992 101.769 713.237 102.272C712.482 102.776 712.901 102.44 712.482 102.44C712.062 102.44 712.146 102.44 710.888 103.027C710.385 103.447 710.469 103.614 710.133 103.866C709.798 104.118 709.714 103.95 709.043 104.034C708.372 104.118 707.281 103.782 705.855 103.614C704.43 103.447 704.43 103.195 703.926 103.027C703.423 102.86 703.591 102.86 703.171 102.44C703.171 102.272 703.171 102.105 703.339 101.601C703.507 101.434 703.759 100.679 704.43 100.176C705.101 99.6722 704.765 99.7561 705.855 98.5818C706.946 97.4076 706.275 98.3302 706.526 97.9947C706.778 97.6592 706.694 97.8269 707.617 97.4914C708.54 97.1559 708.204 97.2398 708.875 97.2398C709.546 97.2398 709.378 97.2398 710.133 97.4914C710.888 97.7431 710.636 97.8269 711.391 97.8269C712.146 97.8269 712.314 97.9947 713.237 98.3302C714.159 98.6657 714.746 98.7496 715.166 98.7496C715.585 98.7496 716.508 97.9947 717.682 97.8269C718.856 97.6592 718.018 97.8269 718.269 97.4914C718.521 97.1559 718.437 97.2398 718.94 97.2398C719.444 97.2398 719.947 97.4914 720.198 97.8269C720.45 98.1624 720.115 98.3302 719.695 99.4206C719.444 100.008 719.695 99.84 719.695 100.343V101.769C719.695 102.776 719.444 102.105 719.108 102.105C718.773 102.105 718.856 102.189 718.269 102.105C717.682 102.021 717.682 101.434 717.514 101.266Z" stroke="#E6E2DC" stroke-opacity="0.2" stroke-width="0.3"/>
<path d="M717.683 100.595C717.263 100.343 717.347 100.343 716.844 100.092V99.5044C716.844 99.2528 717.095 99.3367 717.515 99.2528C717.934 99.1689 717.934 99.3367 718.186 99.5044C718.437 99.6722 718.521 100.092 718.605 100.427C718.689 100.763 718.605 100.763 718.354 100.93C718.102 101.098 718.102 100.846 717.683 100.595Z" stroke="#E6E2DC" stroke-opacity="0.2" stroke-width="0.3"/>
<path d="M709.462 107.138H708.623C708.567 107.222 708.422 107.389 708.288 107.389C708.12 107.389 708.036 107.641 708.036 108.312C708.036 108.647 708.12 108.647 708.623 108.899C709.127 109.151 708.875 109.067 710.217 107.976C710.469 107.893 710.888 107.893 710.888 107.389C710.888 107.305 710.888 107.138 710.385 107.138H709.462Z" stroke="#E6E2DC" stroke-opacity="0.2" stroke-width="0.3"/>
<path d="M711.055 104.537L711.81 103.783C711.978 103.727 712.414 103.514 712.817 103.112C713.32 102.608 713.991 102.692 714.494 102.273C714.998 101.853 714.83 102.105 715.585 101.937C716.34 101.77 716.088 102.021 716.34 102.273C716.591 102.524 716.675 102.692 716.927 102.86C717.178 103.028 717.178 103.279 717.514 103.615C717.85 103.95 718.017 103.615 718.604 103.615H719.695H721.288H721.792C721.904 103.419 722.144 102.961 722.211 102.692C722.295 102.357 722.211 102.357 721.959 101.602C721.708 100.847 721.792 101.182 721.792 100.931C721.792 100.679 721.792 100.679 722.547 99.9242C723.218 99.5048 723.218 99.5887 723.805 99.1693C724.392 98.7499 724.224 98.9177 724.644 98.7499C725.063 98.5822 725.315 98.4983 725.902 98.4983C726.489 98.4983 726.489 98.5822 726.908 98.4983C727.328 98.4144 727.328 98.3305 728.166 97.7434C729.005 97.1563 728.754 97.4079 729.089 97.2401C729.425 97.0724 729.844 96.9046 730.263 96.5691C730.683 96.2335 730.85 96.3175 731.018 96.1497C731.186 95.9819 731.689 95.982 731.857 95.8981C732.025 95.8142 733.535 95.4787 734.625 94.8916C735.715 94.3044 735.296 94.7238 735.548 94.3883C735.799 94.0528 735.883 93.4656 735.799 92.9624C735.715 92.4592 735.799 92.7108 734.877 92.2075C734.541 92.2075 733.283 92.9624 732.947 93.214C732.612 93.4657 731.018 92.7108 730.683 92.7108H730.096H728.502C727.411 92.7108 727.999 92.7947 727.831 92.9624C727.663 93.1302 727.328 93.4656 726.908 93.4656C726.489 93.4656 726.74 93.8011 726.489 94.2206C726.237 94.64 725.902 95.0593 725.65 95.2271C725.398 95.3949 723.385 95.3949 722.966 95.0593C722.547 94.7238 722.127 94.7238 721.541 94.7238H721.54C721.205 94.7238 720.617 95.0593 720.03 95.2271C719.561 95.3613 719.611 95.283 719.695 95.2271C719.471 95.1712 718.973 95.0593 718.772 95.0593C718.521 95.0593 718.185 95.4787 717.262 96.1497C716.34 96.8207 716.759 96.4014 716.088 96.5691C715.417 96.7368 715.585 96.5691 715.165 96.5691C714.746 96.5691 714.83 96.4014 714.494 96.1497C714.159 95.898 714.494 95.8981 714.494 95.6465C714.494 95.3949 714.243 95.0593 713.991 94.7238C713.74 94.3884 713.236 94.3044 712.817 94.0528C712.397 93.8011 711.978 93.5495 711.726 93.4656C711.525 93.3985 711.195 93.6613 711.055 93.8011C710.58 93.885 709.596 94.0528 709.462 94.0528C709.294 94.0528 708.371 93.5495 708.204 93.5495C708.036 93.5495 707.029 93.885 706.61 94.0528C706.191 94.2205 705.939 94.4722 705.1 95.0593C704.261 95.6464 704.681 95.4787 704.261 96.1497C703.926 96.6865 703.898 96.653 703.926 96.5691C703.255 97.4358 701.863 99.2699 701.661 99.6725C701.41 100.176 701.577 100.511 701.41 100.511C701.242 100.511 700.906 101.35 700.403 101.35C699.9 101.35 700.151 101.434 699.564 101.602C698.977 101.769 699.397 101.853 699.061 102.44C698.977 102.608 698.893 103.028 698.39 103.195C697.887 103.363 698.054 103.195 697.887 103.195C697.719 103.195 696.041 104.034 696.796 104.034C697.216 103.95 697.467 104.034 697.887 104.118C698.306 104.202 698.222 104.537 698.558 104.789C698.893 105.041 699.145 104.789 700.906 104.789C702.668 104.789 701.997 104.789 702.584 104.537C703.171 104.286 703.423 104.537 705.1 104.537C706.778 104.537 706.526 104.957 706.862 105.041C707.197 105.125 707.616 105.292 707.868 105.712C708.12 106.131 707.784 106.299 707.616 106.718C707.449 107.138 707.449 106.97 707.197 107.305C706.945 107.641 707.029 107.725 707.029 108.48C707.029 109.235 707.197 108.647 707.449 108.899C707.7 109.151 707.7 109.067 708.623 110.241C709.126 110.996 708.958 110.241 709.126 110.073L709.127 110.073C709.294 109.905 709.462 109.738 709.63 109.486C709.797 109.235 709.63 109.235 710.217 108.48C710.284 108.345 710.412 108.312 710.468 108.312C710.58 108.312 711.039 108.161 711.978 107.557C711.894 107.138 711.81 107.389 711.307 106.97C710.804 106.55 711.055 106.886 710.468 106.55C709.881 106.215 710.217 106.215 709.63 106.047C709.042 105.879 709.126 105.712 709.462 104.789C709.713 104.202 709.797 104.789 710.636 104.789C711.475 104.789 710.972 104.621 711.055 104.537Z" stroke="#E6E2DC" stroke-opacity="0.2" stroke-width="0.3"/>
<path d="M692.267 114.77C692.519 114.435 692.938 114.435 693.022 114.435H693.441C693.609 114.435 693.525 114.77 693.441 114.938C693.358 115.106 693.022 115.106 692.435 115.86C691.848 116.615 692.016 115.944 691.764 115.693C691.563 115.491 691.68 115.441 691.764 115.441L692.267 114.77Z" stroke="#E6E2DC" stroke-opacity="0.2" stroke-width="0.3"/>
<path d="M690.171 116.616C690.254 116.364 690.506 115.777 690.59 115.609V115.441C690.618 115.386 690.774 115.173 691.177 114.77L691.177 114.77C691.513 114.519 691.513 114.519 691.848 114.435C692.184 114.351 692.016 114.099 692.267 113.932C692.519 113.764 692.771 113.68 694.364 113.177C695.958 112.673 695.371 113.177 695.539 113.428C695.706 113.68 695.539 113.932 695.371 114.519C695.203 115.106 695.119 114.854 694.616 115.19C694.113 115.525 694.113 115.609 693.61 116.112C693.106 116.616 692.603 116.951 692.267 117.203C691.932 117.454 691.932 117.622 691.177 118.293C690.422 118.964 690.59 118.377 690.422 118.293C690.254 118.209 690.338 117.79 690.171 117.371C690.003 116.951 690.087 116.867 690.171 116.616Z" stroke="#E6E2DC" stroke-opacity="0.2" stroke-width="0.3"/>
<path d="M692.519 111.919C692.519 112.17 691.764 113.428 691.513 113.596C691.261 113.764 691.177 113.764 690.842 114.099C690.506 114.435 690.674 114.099 690.255 114.686C689.835 115.274 689.584 115.274 689.248 115.693C688.913 116.112 688.661 117.119 688.829 117.371C688.997 117.622 688.997 117.538 689.248 117.958C689.5 118.377 689.332 117.958 689.584 118.545C689.835 119.132 689.332 119.132 690.087 119.216C690.842 119.3 690.758 119.3 691.093 119.216C691.429 119.132 691.429 119.216 691.848 118.88C692.268 118.545 692.687 118.125 692.939 117.958C693.19 117.79 693.107 117.874 693.526 117.538C693.945 117.203 693.945 117.371 694.197 116.951C694.7 116.364 694.113 116.867 695.12 116.029C696.126 115.19 695.958 115.358 696.462 114.854C696.965 114.351 696.965 114.351 697.552 113.764C698.139 113.177 698.055 112.925 698.391 112.841C698.726 112.757 699.062 112.422 699.23 112.422C699.397 112.422 699.481 112.59 699.565 112.841C699.649 113.093 699.313 112.925 699.817 113.261C700.32 113.596 700.404 113.596 700.572 113.596C700.739 113.596 701.075 113.261 701.41 113.261C701.746 113.261 701.83 113.177 702.081 113.093C702.333 113.009 702.585 112.673 702.836 112.673C703.34 112.673 703.675 113.093 704.43 113.261C705.185 113.428 705.185 113.093 705.436 113.596C706.695 113.261 707.03 114.015 707.45 114.267C707.869 114.519 707.198 114.351 708.037 114.519C708.875 114.686 709.043 115.106 709.714 114.686C710.385 114.267 710.385 114.435 711.056 113.932C711.727 113.428 711.727 113.68 711.979 113.261C712.231 112.841 713.573 112.338 713.74 111.919C713.908 111.499 713.489 111.667 714.327 111.164C715.166 110.66 715.25 110.577 715.837 110.241C716.424 109.905 717.179 109.57 717.263 109.402C717.347 109.234 716.005 110.744 716.76 109.402C717.515 108.06 718.857 107.725 717.515 107.473C716.173 107.221 715.669 108.144 715.334 107.138C714.998 106.131 714.244 106.299 715.166 105.46C716.089 104.621 716.257 104.286 716.76 104.286C717.263 104.286 717.85 103.615 718.521 104.453C719.192 105.292 718.941 105.712 719.528 105.879C720.115 106.047 723.302 106.215 723.806 105.46C724.309 104.705 724.309 104.621 724.477 104.118C724.644 103.615 724.98 103.531 724.477 102.776C723.973 102.021 722.128 102.776 723.806 101.518C725.483 100.26 725.064 100.26 725.902 100.176" stroke="#E6E2DC" stroke-opacity="0.2" stroke-width="0.3"/>
<path d="M692.687 118.964C692.267 119.216 692.267 119.132 691.429 119.468C690.59 119.803 691.177 119.551 690.841 119.551C690.506 119.551 690.003 119.384 688.661 119.216C687.319 119.048 688.325 119.048 687.738 118.964C687.151 118.88 687.151 118.545 686.731 118.209C686.312 117.874 686.396 117.706 686.396 117.119C686.396 116.532 686.648 116.532 687.151 116.532C687.654 116.532 687.486 116.532 687.822 116.448C688.046 116.057 688.577 115.257 688.912 115.19C689.332 115.106 690.841 113.68 690.841 113.428C690.841 113.177 690.674 112.338 690.59 112.002C690.506 111.667 689.919 110.828 689.919 110.157C689.919 109.486 690.254 109.989 689.583 108.983C688.912 107.976 688.996 108.06 688.661 107.389C688.325 106.718 688.241 106.634 688.157 106.55C688.074 106.467 687.906 106.047 687.151 105.712C686.396 105.376 686.228 105.041 685.893 104.789C685.557 104.537 685.306 104.705 685.473 104.286C685.641 103.866 685.809 103.782 686.228 103.531C686.648 103.279 685.977 103.195 686.983 103.028C687.99 102.86 687.906 102.86 688.325 102.608C688.745 102.357 688.325 102.524 689.583 101.937C690.841 101.35 691.093 101.35 691.429 101.35C692.183 101.35 691.848 101.518 692.603 101.35C693.358 101.182 693.358 101.182 693.609 101.015C693.861 100.847 693.777 100.763 694.28 100.763C694.784 100.763 695.035 100.763 695.203 100.763C695.371 100.763 695.287 100.679 695.958 100.427C696.629 100.176 697.048 100.092 697.3 99.9241C697.501 99.7899 698.279 99.0295 698.642 98.666C698.446 98.666 698.172 98.4982 698.642 97.8272C699.229 96.9885 699.313 97.2401 699.481 96.8207C699.649 96.4013 699.145 96.5691 699.816 96.0658C700.487 95.5625 700.32 94.7238 700.487 94.1366C700.655 93.5495 700.655 93.214 700.907 92.7107C701.158 92.2075 700.907 92.3752 701.326 91.8719C701.745 91.3687 701.578 91.3687 701.913 91.2009C702.249 91.0332 704.43 89.1879 704.513 88.9362C704.597 88.6846 704.513 88.7685 704.513 87.9297C704.513 87.0909 704.933 87.3426 704.094 86.5877C703.255 85.8328 703.171 85.7489 702.836 85.4134C702.5 85.0779 702.165 85.0779 702.333 84.7424C702.5 84.4069 702.249 84.5746 702.668 84.2391C703.088 83.9036 703.759 83.3165 704.681 83.8197C705.604 84.323 705.352 84.5746 706.107 84.7424C706.862 84.9102 706.946 86.0844 707.701 85.4134C708.456 84.7424 709.211 85.9167 708.456 84.4069C707.701 82.8971 707.198 83.3165 708.204 81.5551C709.211 79.7937 709.294 80.0453 709.546 79.3743C709.798 78.7033 709.965 77.7806 709.965 77.6967C709.965 77.6129 709.965 77.3612 710.217 77.4451" stroke="#E6E2DC" stroke-opacity="0.2" stroke-width="0.3"/>
<path d="M711.308 79.3742C711.308 79.9613 710.805 80.9679 711.224 82.0583C711.643 83.1487 711.56 82.897 711.811 83.9036C712.063 84.9101 712.231 85.2456 712.231 85.4133C712.231 85.5811 712.314 85.8327 712.231 86.2521C712.147 86.6715 712.147 86.9231 711.979 87.007C711.811 87.0909 711.811 87.2586 711.811 87.5941C711.811 87.9297 711.979 88.2652 712.231 88.4329C712.482 88.6007 712.231 88.6846 712.818 89.0201C713.405 89.3556 713.657 89.1039 714.076 89.5233C714.495 89.9427 714.076 90.0266 714.747 90.0266C715.418 90.0266 715.334 89.6911 716.424 89.3556C717.515 89.0201 717.766 89.0201 717.85 89.0201C717.934 89.0201 719.276 89.3556 719.444 89.5233C719.578 89.6575 720.115 89.9148 720.367 90.0266C720.534 89.747 720.954 89.171 721.289 89.1039C721.709 89.0201 721.541 88.7684 722.296 89.0201C723.051 89.2717 722.38 89.6911 723.135 90.0266C724.141 90.3621 724.644 90.0266 725.064 89.5233C725.483 89.0201 725.064 89.0201 725.735 88.6846C726.406 88.349 726.406 87.9297 727.328 87.7619C728.251 87.5941 728.503 87.4264 728.922 87.5941C729.342 87.7619 729.593 87.9297 730.013 87.9297C730.432 87.9297 730.684 87.5941 731.271 87.7619C731.858 87.9297 731.858 87.7619 732.193 88.0974C732.529 88.4329 733.368 87.9297 733.871 87.7619C734.374 87.5941 734.039 87.4264 734.961 87.5941C735.884 87.7619 735.884 87.7619 736.136 88.0974C736.387 88.4329 736.471 88.6007 736.89 88.5168C737.31 88.4329 737.561 88.4329 737.981 88.0974C738.316 87.829 738.736 87.5941 738.904 87.5103C739.966 87.4264 742.192 87.2922 742.594 87.4264C743.097 87.5941 742.93 87.7619 743.601 87.7619C744.272 87.7619 743.936 87.7619 744.859 87.9297C745.781 88.0974 746.201 88.2652 746.872 88.5168C747.543 88.7684 747.123 88.6007 748.466 88.2652C749.808 87.9297 748.717 87.9297 750.479 87.5103C752.24 87.0909 752.492 87.007 752.911 87.007C753.33 87.007 753.163 86.8393 754.337 87.007C755.511 87.1748 756.014 87.4264 756.518 87.4264C758.111 87.2586 757.524 87.678 757.189 87.1748C756.853 86.6715 756.685 86.6715 754.589 86.2521C752.492 85.8327 753.582 85.0778 751.233 85.7489C748.885 86.4199 749.808 86.0844 748.466 86.7554C747.123 87.4264 747.459 87.4264 746.369 87.4264C745.278 87.4264 744.775 87.3425 743.936 87.1748C743.097 87.007 743.517 86.7554 742.594 86.7554C741.671 86.7554 742.426 86.7554 741.252 86.7554C740.078 86.7554 739.575 86.9231 739.071 86.7554C738.568 86.5876 739.323 85.9166 738.149 86.5037C737.209 86.9735 736.918 87.3705 736.89 87.5103C737.03 87.678 737.159 87.9297 736.555 87.5941C735.951 87.2586 735.241 86.7274 734.961 86.5037C735.073 86.4478 735.095 86.3695 734.29 86.5037C733.284 86.6715 732.948 86.5876 732.529 86.7554C732.109 86.9231 732.109 87.1748 731.69 87.1748C731.271 87.1748 730.935 86.7554 730.767 86.7554C730.6 86.7554 729.929 86.7554 729.258 86.7554C728.587 86.7554 728.671 86.8393 728.251 86.9231C727.832 87.007 727.748 87.1748 727.328 87.1748C726.909 87.1748 727.664 86.6715 726.657 86.7554C725.651 86.8393 725.651 86.6715 725.232 87.007C724.812 87.3425 723.973 87.9297 723.89 87.9297C723.806 87.9297 723.973 87.8458 723.722 88.2652C723.47 88.6846 723.302 89.1039 723.218 89.1039C723.135 89.1039 722.883 88.6846 722.715 88.5168C722.547 88.349 722.464 87.9297 721.876 87.9297C721.289 87.9297 721.625 87.5941 720.618 87.9297C719.528 88.349 718.102 88.0974 717.179 88.0974C716.257 88.0974 716.005 88.2652 715.586 87.9297C715.166 87.5941 715.418 88.4329 714.747 87.3425C714.076 86.2521 713.824 87.0909 714.076 85.8327C714.328 84.5746 714.579 85.0778 714.411 84.0713C714.244 83.0648 714.076 82.897 713.992 82.5615C713.925 82.2931 713.796 80.6044 713.74 79.7936C713.74 79.6538 713.807 79.3742 714.076 79.3742C714.411 79.3742 714.411 79.5419 714.999 79.3742C715.586 79.2064 715.586 79.2064 715.921 79.1226C716.257 79.0387 716.005 79.2064 716.424 78.9548C716.844 78.7032 716.928 78.5354 717.179 78.4515C717.431 78.3677 717.515 78.2838 717.85 78.2838C718.186 78.2838 718.437 78.5354 719.025 78.2838C719.612 78.0322 722.883 76.6062 723.051 76.5224C723.218 76.4385 722.799 76.6901 724.141 75.7675C725.483 74.8448 725.483 74.6771 725.903 74.1738C726.322 73.6705 726.993 72.9157 727.161 72.664C727.328 72.4124 728.251 73.4189 728.838 73.4189C729.425 73.4189 730.264 73.4189 731.103 73.1673C731.942 72.9156 734.374 70.3993 734.542 70.2316C734.71 70.0638 734.961 69.8961 735.632 69.0573C736.303 68.2185 736.387 68.1347 736.807 67.7153C737.226 67.2959 737.897 66.7087 737.981 66.2894C738.065 65.87 738.316 65.199 738.149 65.3667" stroke="#E6E2DC" stroke-opacity="0.2" stroke-width="0.3"/>
<path d="M737.729 65.6179C737.394 65.8696 737.226 66.2051 736.722 66.4567C736.219 66.7083 736.051 67.0438 735.8 67.1277C735.548 67.2116 735.464 66.96 734.961 67.4632C734.458 67.9665 734.122 68.2181 733.367 69.0569C732.613 69.8957 732.864 69.7279 732.361 70.1473C731.858 70.5667 732.109 70.7344 731.019 71.2377C729.928 71.741 729.341 71.9087 728.922 71.9087C728.503 71.9087 727.832 71.6571 727.496 71.6571C727.161 71.6571 726.657 71.5732 726.406 71.4054C726.154 71.2377 726.154 70.9022 725.818 70.8183C725.483 70.7344 725.147 70.5667 725.064 70.6506C724.98 70.7344 724.393 71.2377 723.554 71.6571C722.715 72.0765 722.212 72.1603 721.541 72.5797C720.87 72.9991 720.366 73.4185 719.947 73.5863C719.528 73.754 719.36 74.0056 718.605 74.0895C717.85 74.1734 718.186 75.5993 717.263 74.0895C716.34 72.5797 716.089 72.412 715.921 71.9087C715.753 71.4054 716.173 70.8183 715.502 71.2377C714.831 71.6571 713.908 73.754 713.74 73.754C713.572 73.754 713.656 74.0056 713.405 74.2573C713.153 74.5089 713.069 74.5928 712.985 74.8444C712.901 75.096 712.65 75.5993 711.811 75.5993C710.972 75.5993 711.056 76.1026 710.721 75.1799C710.385 74.2573 710.637 74.2573 709.966 74.2573C709.295 74.2573 709.127 74.2573 708.037 75.096C706.946 75.9348 706.107 76.8575 705.688 77.193C705.269 77.5285 705.185 77.7801 704.933 77.9479C704.681 78.1156 703.759 78.3672 703.088 79.9609C702.417 81.5546 701.746 82.4772 701.494 82.3933C701.242 82.3095 700.823 82.5611 699.984 82.3095C699.146 82.0578 697.804 82.1417 697.216 81.8901C696.629 81.6385 696.965 81.8062 696.21 81.6385C695.455 81.4707 695.371 82.1417 694.784 81.2191C694.197 80.2964 694.029 80.3803 693.526 79.9609C693.023 79.5415 693.61 80.1287 692.519 78.8705C691.429 77.6124 691.261 77.6962 690.842 77.3607C690.422 77.0252 690.003 76.522 689.667 76.2703C689.332 76.0187 689.164 75.9348 688.661 76.2703C688.158 76.6058 688.661 76.9413 687.654 76.7736C686.648 76.6058 684.383 76.1026 684.048 75.6832C684.215 74.5089 688.493 74.9283 688.661 75.0122C688.795 75.0793 689.276 75.3197 689.5 75.4315C690.758 75.1799 691.177 74.8444 691.513 74.2573C691.848 73.6701 691.68 73.754 692.603 73.083C693.526 72.412 695.287 70.9022 695.455 70.8183C695.623 70.7344 695.119 71.2377 695.958 69.4763C696.797 67.7149 697.384 65.8696 697.72 65.2824C698.223 64.5275 700.571 62.5145 700.823 62.5145C701.075 62.5145 705.604 60.6692 705.94 60.4175C706.275 60.1659 706.527 59.8304 707.449 59.4949C708.372 59.1594 707.953 59.3271 709.127 59.2433C710.301 59.1594 710.553 58.74 711.308 59.2433C712.063 59.7465 711.979 60.4175 712.314 60.4175C712.65 60.4175 712.65 60.8369 713.321 60.4175C713.992 59.9982 714.663 58.9078 714.831 58.4045C715.334 57.4819 715.334 56.8108 716.089 56.5592C716.844 56.3076 717.011 55.2172 718.186 56.3076C719.36 57.398 719.444 57.5658 720.199 58.4045C720.954 59.2433 722.799 61.1724 722.967 61.1724C723.134 61.1724 723.302 61.3402 723.386 61.5918C723.47 61.8434 723.386 62.3466 723.386 62.4306C723.386 62.5145 725.483 63.2693 725.986 63.2693C726.489 63.2693 726.993 63.1854 727.244 63.6048C727.496 64.0242 727.244 63.521 727.58 64.2759C727.915 65.0307 728.586 64.3597 727.999 65.4501C727.412 66.5405 726.657 67.3793 726.489 67.5471C726.355 67.6813 726.098 67.9385 725.986 68.0503C725.651 68.3299 725.097 68.9226 725.567 69.0568C726.154 69.2246 726.154 69.7279 726.993 69.3924C727.832 69.0568 727.748 69.2246 728.419 68.4697C729.09 67.7148 729.928 67.4632 730.264 66.3728C730.599 65.2824 730.348 65.6179 730.683 64.5275C731.019 63.4371 731.774 63.2693 731.103 62.8499C730.432 62.4306 729.174 62.7661 727.832 62.4306C726.489 62.095 726.154 62.095 724.56 61.3402C722.967 60.5853 724.057 59.6626 724.141 59.6626C724.225 59.6626 724.56 58.9077 724.141 58.4883C723.722 58.0689 722.212 58.6561 721.876 58.6561C721.541 58.6561 721.121 58.9916 720.199 57.8173C719.276 56.643 717.934 54.2945 717.515 54.1267C717.095 53.959 717.515 53.4557 716.592 54.1267C715.669 54.7977 714.914 55.6366 714.495 55.9721C714.076 56.3076 714.327 56.6432 713.824 57.5658C713.321 58.4883 713.405 58.9917 713.153 58.9078C712.901 58.8239 713.237 59.1594 712.23 58.4045C711.224 57.6496 711.559 57.5658 710.553 57.2302C709.546 56.8947 706.611 56.5592 706.275 56.8947C705.94 57.2302 705.52 57.5656 705.352 57.8173C705.185 58.069 704.849 58.2366 704.514 58.6561C704.178 59.0755 699.984 61.1725 699.733 61.2563C699.481 61.3402 699.313 61.3402 698.726 61.508C698.139 61.6757 697.887 61.508 697.3 62.0112C696.713 62.5145 696.21 62.6823 695.958 63.521C695.707 64.3598 695.707 64.3598 695.707 64.6114C695.707 64.8631 694.952 67.8826 694.784 68.0504C694.616 68.2181 694.7 68.302 694.448 68.8053C694.197 69.3086 694.784 68.973 694.113 69.5602C693.442 70.1473 692.939 70.3151 692.519 70.6506C692.1 70.9861 691.345 72.2443 691.093 72.5798C690.842 72.9153 690.506 73.1669 690.422 73.2508C690.338 73.3347 691.177 73.5862 689.667 73.083C688.158 72.5798 688.409 72.9991 687.822 72.5798C687.235 72.1604 686.899 71.9926 686.145 71.9087C685.39 71.8249 684.97 71.9087 684.048 71.9087C683.125 71.9087 682.873 72.0765 682.286 71.5732C681.699 71.07 680.944 70.6506 680.86 70.6506C680.776 70.6506 679.099 69.6441 678.847 69.8118C678.596 69.9796 678.009 70.315 677.421 70.8183C676.834 71.3216 676.583 71.741 676.415 72.412C676.247 73.083 676.415 72.8314 676.247 73.5863C676.079 74.3412 675.995 74.3412 676.163 75.3477C676.331 76.3542 675.66 76.4381 676.834 76.9414C678.008 77.4446 678.428 77.6963 679.267 77.6963C680.105 77.6963 680.776 77.864 681.447 77.6963C682.118 77.5285 680.609 77.193 682.706 77.4446C684.803 77.6963 684.886 77.5285 685.138 77.6963C685.39 77.864 684.467 77.6963 686.312 78.1156C688.158 78.535 687.151 78.2834 688.493 78.7028C689.835 79.1222 689.332 79.2899 691.093 80.7158C692.855 82.1418 692.687 82.0578 693.106 82.3095C693.526 82.5611 693.61 82.7289 694.281 83.0644C694.952 83.3999 694.952 83.2322 695.287 83.6515C695.623 84.0709 695.874 84.2387 696.042 84.3226C696.21 84.4064 696.042 84.7419 696.713 84.3226C697.384 83.9032 696.713 83.4838 697.636 83.6515C698.558 83.8193 698.558 83.6515 698.726 84.1548C698.894 84.6581 698.055 85.1613 699.146 85.0775C700.236 84.9936 700.655 85.3291 700.488 84.7419C700.353 84.2722 700.096 83.8752 699.984 83.7354C699.341 83.372 697.803 82.6115 696.797 82.4773C695.539 82.3095 695.036 82.3094 694.281 81.8901C693.526 81.4707 693.61 81.8062 692.519 80.7158C691.429 79.6254 691.345 79.7093 690.59 79.0383" stroke="#E6E2DC" stroke-opacity="0.2" stroke-width="0.3"/>
<path d="M697.888 85.4971C697.971 85.7487 697.888 86.0003 697.888 86.7552C697.888 87.5101 697.468 87.8456 697.552 88.265C697.636 88.6844 697.384 89.4393 698.726 88.8522C700.068 88.265 699.733 88.3489 700.488 87.7618C701.243 87.1746 700.907 86.923 701.662 86.923C702.417 86.923 702.333 86.923 702.92 86.923C703.507 86.923 703.759 86.923 703.843 87.2585" stroke="#E6E2DC" stroke-opacity="0.2" stroke-width="0.3"/>
<path d="M699.816 90.0264C699.733 90.5296 700.152 89.7747 698.894 91.4523C697.636 93.1298 696.881 93.4653 697.552 93.6331C698.223 93.8008 699.397 93.3815 699.397 93.8008C699.397 94.2202 699.397 95.059 699.062 95.5623C698.726 96.0655 698.726 96.3172 697.971 96.8204C697.216 97.3237 697.049 97.4076 696.629 97.9108C696.21 98.4141 696.461 98.8335 695.706 99.0012C694.952 99.169 694.616 99.3367 693.945 99.5884C693.274 99.84 692.435 100.259 691.009 100.679C689.583 101.098 689.332 101.014 688.325 101.35C687.319 101.685 687.235 101.769 686.48 102.105C685.725 102.44 685.222 102.692 684.719 103.195C684.215 103.698 684.048 104.285 684.131 104.537C684.215 104.789 684.048 104.789 684.719 105.292C685.39 105.795 686.312 106.215 686.396 106.466C686.48 106.718 686.396 106.634 686.48 107.137C686.564 107.641 686.396 107.221 686.396 107.808C686.396 108.395 687.067 107.892 686.396 108.563C685.725 109.234 685.557 109.486 685.222 109.821C684.886 110.157 684.383 110.66 684.719 111.08C685.054 111.499 684.97 111.834 685.557 112.17C686.145 112.505 686.564 112.505 686.816 112.841C687.067 113.176 687.57 112.505 687.319 113.512C687.067 114.518 687.654 113.847 686.816 115.19C685.977 116.532 685.725 116.364 685.641 116.867C685.557 117.37 684.886 118.712 685.977 119.048C687.067 119.383 687.319 119.299 687.99 119.635C688.661 119.971 690.926 120.138 691.345 119.971C691.764 119.803 691.932 119.551 692.184 119.467C692.385 119.4 692.547 119.16 692.603 119.048" stroke="#E6E2DC" stroke-opacity="0.2" stroke-width="0.3"/>
<path d="M627.012 80.8835C626.76 80.4641 625.921 80.0447 626.341 79.7092C626.76 79.3737 626.928 79.1221 627.095 78.7866C627.263 78.4511 627.179 78.4511 627.683 77.5284C628.186 76.6058 628.018 76.6058 628.354 76.3541C628.689 76.1025 627.85 76.0186 628.941 75.9347C630.031 75.8509 629.444 75.9347 630.534 75.9347C631.625 75.9347 631.457 76.0186 632.296 76.1025C633.135 76.1864 633.051 75.6831 634.225 76.3541C635.399 77.0251 635.483 76.7735 635.735 77.3606C635.986 77.9478 636.406 78.2833 635.903 78.5349C635.399 78.7866 635.232 78.9543 634.896 78.9543C634.561 78.9543 634.561 78.8704 634.393 79.2059C634.225 79.5414 634.309 79.6253 634.141 79.7931C633.973 79.9608 633.89 79.877 633.638 80.0447C633.386 80.2125 633.386 80.3802 633.302 80.548" stroke="#E6E2DC" stroke-opacity="0.2" stroke-width="0.3"/>
<path d="M627.934 80.2961C627.766 80.0445 627.179 79.9606 627.934 79.6251C628.856 79.1218 628.856 79.4573 629.024 78.7863C629.192 78.1153 628.856 77.9475 629.443 77.5281C630.031 77.1088 629.527 76.941 630.282 77.0249C631.037 77.1088 630.869 77.0249 632.044 77.4443C633.218 77.8636 633.386 77.8636 633.637 77.9475C633.889 78.0314 634.56 77.612 634.224 78.4508C633.889 79.2896 633.302 79.1218 633.05 79.4573C632.798 79.7928 632.631 79.9606 632.295 80.2122C631.96 80.4638 631.792 80.7993 631.373 80.7155C630.953 80.6316 630.366 80.5477 630.114 80.2122C629.863 79.8767 630.534 79.6251 629.611 79.7928C628.688 79.9606 628.605 79.9606 628.269 80.1283C628.001 80.2625 627.878 80.2402 627.85 80.2122" stroke="#E6E2DC" stroke-opacity="0.2" stroke-width="0.3"/>
<path d="M631.96 78.5348C631.96 78.367 631.709 78.4509 631.121 78.2831C631.01 78.2831 630.752 78.2664 630.618 78.1993C630.45 78.1154 630.283 78.6186 630.45 78.8703C630.618 79.1219 630.534 78.9542 630.618 79.1219C630.702 79.2897 630.87 79.2058 631.121 79.2058C631.373 79.2058 631.541 79.2058 631.96 78.8703C632.38 78.5348 631.96 78.7025 631.96 78.5348Z" stroke="#E6E2DC" stroke-opacity="0.2" stroke-width="0.3"/>
<path d="M691.932 55.7201C691.597 55.8878 691.01 56.2233 690.758 56.6427C690.506 57.0621 690.59 56.475 690.422 57.2298C690.255 57.9847 690.506 58.4041 690.422 58.9074C690.339 59.4107 690.423 59.159 690.339 59.7462C690.171 60.2494 689.584 59.4107 689.5 59.0751C689.416 58.7396 689.416 58.4041 688.997 58.3203C687.739 58.7396 687.822 59.0751 687.571 58.6558C687.319 58.2364 687.571 59.0751 687.235 57.9009C686.9 56.7266 686.9 56.7266 686.984 56.0556C687.051 55.5188 687.123 55.2727 687.151 55.2168" stroke="#E6E2DC" stroke-opacity="0.2" stroke-width="0.3"/>
<path d="M693.022 53.6236C693.861 53.4559 693.609 53.1204 694.783 53.372C695.958 53.6236 696.293 53.7914 696.545 53.4559C696.796 53.1204 696.964 53.1204 697.384 52.4494C697.803 51.7784 697.3 52.1978 697.887 51.5267C698.474 50.8557 698.055 51.1912 698.977 50.5202C699.9 49.8492 699.816 49.4298 700.403 49.5137C700.99 49.5976 701.158 49.6815 701.745 49.7653C702.332 49.8492 702.5 49.7653 703.003 50.017C703.507 50.2686 702.836 50.7718 703.758 50.5202C704.681 50.2686 704.849 50.0169 705.436 49.5137C706.023 49.0104 706.107 48.8427 706.275 48.5911C706.442 48.3394 707.868 47.249 709.126 47.5845C710.385 47.92 710.636 48.0877 711.307 48.4232C711.978 48.7588 712.062 49.1781 712.817 49.262C713.572 49.3459 714.243 49.5137 714.662 49.5137C715.082 49.5137 715.417 49.5137 716.591 49.5137C717.531 49.5137 717.989 49.5696 718.101 49.5975C719.387 49.8492 722.077 50.3692 722.547 50.4363C723.134 50.5202 723.218 50.2685 724.14 50.8557C725.063 51.4428 724.979 51.1912 725.063 51.7783C725.147 52.3655 724.644 52.7849 725.566 52.6171C726.489 52.4494 726.573 52.2816 726.992 52.03C727.412 51.7783 727.579 51.7783 728.418 51.7783C729.257 51.7783 729.089 51.6106 729.592 52.03C729.995 52.3655 730.375 52.7849 730.515 52.9526C730.571 53.5398 730.716 54.7644 730.851 54.9657C731.018 55.2173 730.683 56.0561 730.683 56.3916C730.683 56.7271 730.683 56.9787 731.605 56.8948C732.528 56.811 732.36 57.3142 733.367 56.5593C734.373 55.8044 734.541 55.3851 734.793 54.8818C735.044 54.3785 735.715 52.3655 736.219 52.3655" stroke="#E6E2DC" stroke-opacity="0.2" stroke-width="0.3"/>
<path d="M734.374 51.4429C734.206 51.8623 733.82 52.7514 733.619 52.9527C733.367 53.2043 732.613 53.4559 732.445 53.4559C732.277 53.4559 732.361 53.6237 732.109 53.2882C731.858 52.9527 732.025 53.4559 731.606 52.4494C731.187 51.4429 731.019 51.2751 730.6 50.6041C729.593 49.5976 729.174 48.9266 728.503 49.0105C727.832 49.0943 727.915 49.0943 727.496 49.4298C726.741 49.7653 724.56 49.0943 724.309 48.8427C724.057 48.5911 723.722 47.92 723.134 48.0039C722.547 48.0878 722.883 48.1717 721.792 48.1717C720.702 48.1717 718.689 47.8362 718.186 47.8362C717.682 47.8362 716.508 47.8362 716.005 47.8362C715.502 47.8362 715.502 48.0039 714.747 47.6684C713.992 47.3329 713.656 47.5007 713.237 46.8296C712.818 46.1586 712.65 45.8231 712.482 45.7392C712.314 45.6554 710.721 44.3972 710.301 44.3133C709.882 44.2294 708.037 43.8101 707.869 43.8101C707.701 43.8101 706.191 44.3133 705.772 44.6488C705.352 44.9843 704.933 45.5715 704.765 45.7392C704.598 45.907 704.346 46.1586 704.262 46.4102C704.178 46.6619 703.843 47.3329 703.675 47.5007C703.541 47.6349 703.004 47.6684 702.752 47.6684C702.445 47.7243 701.763 47.8362 701.494 47.8362C701.159 47.8362 701.41 47.5845 700.236 48.0878C699.062 48.5911 698.726 48.8427 698.391 48.9266C698.055 49.0104 697.468 49.0943 696.797 49.0943C696.126 49.0943 695.958 49.1782 695.455 49.2621C694.952 49.3459 694.365 49.2621 693.694 49.4298C693.023 49.5976 693.19 49.1782 692.603 49.7653C692.016 50.3525 691.597 50.7719 691.177 50.9396" stroke="#E6E2DC" stroke-opacity="0.2" stroke-width="0.3"/>
<path d="M668.866 71.5739C669 71.3726 669.928 70.2039 670.376 69.6447C671.019 69.477 672.321 69.1415 672.389 69.1415C672.472 69.1415 672.472 69.2254 673.06 68.3866C673.647 67.5478 673.898 67.3801 674.318 66.709C674.737 66.038 674.653 66.1219 674.905 65.6186C675.157 65.1154 674.653 66.1219 675.408 64.6121C676.163 63.1023 675.576 63.5217 676.331 62.7668C677.086 62.0119 676.163 62.5991 678.008 61.1732C679.854 59.7472 679.77 59.7472 680.105 59.7472C680.441 59.7472 680.776 59.9989 681.447 59.7472C682.118 59.4956 682.286 59.3279 682.705 59.244C684.047 59.7472 685.557 60.7538 685.473 61.3409C685.39 61.928 685.473 62.5991 685.641 62.9346C685.809 63.2701 686.648 64.1927 686.815 64.1927C686.95 64.1927 687.207 64.1927 687.319 64.1927C687.347 63.9411 687.453 63.3707 687.654 63.1023C687.906 62.7668 688.661 62.4313 688.745 62.1797C688.828 61.928 688.912 61.6764 688.912 61.4248C688.912 61.1732 688.577 61.3409 689.08 61.1732C689.583 61.0054 690.254 60.8376 690.338 61.5087C690.422 62.1797 690.59 62.5991 690.758 62.7668C690.925 62.9346 690.506 63.1862 690.925 63.354C691.345 63.5217 691.513 63.9411 691.764 64.1927C692.016 64.4444 692.184 64.3605 692.519 64.2766C692.855 64.1927 693.442 64.6121 693.106 63.7733C692.771 62.9346 692.687 62.6829 692.435 62.1797C692.184 61.6764 692.435 62.0958 692.184 61.5087C691.932 60.9215 691.848 60.7538 691.932 60.2505C692.016 59.7472 693.274 58.7407 693.609 58.7407C693.945 58.7407 693.526 58.9085 694.616 58.7407C695.706 58.573 694.532 59.1601 696.21 58.4052C697.552 57.8013 698.67 57.4266 699.061 57.3148C699.928 57.0352 701.695 56.476 701.829 56.476C701.997 56.476 702.584 56.5599 703.004 55.805C703.423 55.0501 703.507 55.0501 703.675 54.7146C703.809 54.4462 703.954 54.1554 704.01 54.0436C704.374 53.736 705.201 53.1377 705.604 53.2048C706.107 53.2887 706.862 53.5404 707.365 53.6242C707.869 53.7081 707.952 53.6242 708.623 53.5404C709.295 53.4565 709.211 53.7082 710.217 53.4565C711.224 53.2048 712.314 52.9532 712.398 52.8694C712.482 52.7855 716.34 51.6112 716.592 51.6112C716.843 51.6112 717.934 51.1918 718.521 51.6112C719.108 52.0306 718.437 51.695 719.36 52.2822C720.282 52.8694 719.947 52.1983 721.121 53.3726C722.295 54.5469 722.212 54.7985 722.295 55.134C722.379 55.4695 722.463 55.805 722.799 55.805C723.134 55.805 725.147 54.7985 725.818 54.7146C726.489 54.6307 727.664 54.2113 727.747 54.1275C727.831 54.0436 728.083 53.792 728.335 53.792C728.586 53.792 729.844 52.4499 729.173 54.3791C728.502 56.3083 728.418 56.3921 728.083 56.8115C727.747 57.2309 727.412 57.147 727.328 57.6503C727.244 58.1536 726.825 58.1536 727.328 58.4052C727.831 58.6568 727.999 58.7407 728.167 58.9085C728.335 59.0762 728.67 59.0762 729.593 59.0762C730.515 59.0762 731.438 59.1601 732.193 59.244C732.948 59.3278 732.948 59.244 733.535 59.4117C734.122 59.5795 734.206 59.6634 734.625 59.915C735.045 60.1666 736.555 62.0958 736.722 62.3474C736.89 62.5991 737.226 62.7668 737.561 62.9346C737.897 63.1023 737.98 62.6829 737.897 63.2701C737.813 63.8572 738.232 63.6895 737.561 64.1927" stroke="#E6E2DC" stroke-opacity="0.2" stroke-width="0.3"/>
<path d="M636.405 79.0386C636.405 78.2837 636.656 77.5288 636.992 77.4449C637.327 77.361 636.992 77.1094 637.663 77.4449C638.334 77.7804 637.998 78.1159 638.669 77.6965C639.34 77.2771 639.676 76.9416 640.515 76.5222C641.354 76.1029 641.27 76.1867 641.605 76.019C641.941 75.8512 642.108 76.019 642.863 76.1867C643.618 76.3545 643.534 76.2706 644.541 76.019C645.547 75.7673 645.631 75.5157 646.135 75.7673" stroke="#E6E2DC" stroke-opacity="0.2" stroke-width="0.3"/>
<path d="M637.915 77.1933C636.741 76.69 636.657 77.0255 636.321 76.4384C635.986 75.8512 635.734 75.6835 635.65 75.2641C635.566 74.8447 635.231 75.5157 635.65 74.0059C636.07 72.4961 636.321 72.7478 636.154 72.3284C635.986 71.909 635.65 71.9929 635.65 71.6574C635.65 71.3219 636.405 71.1541 636.825 71.3219C637.244 71.4896 636.908 71.1541 637.328 71.6574C637.747 72.1607 637.328 72.9156 638.502 71.8252C639.676 70.7348 639.425 71.0703 639.844 70.4831C640.264 69.896 639.844 70.0637 640.431 69.7282C641.018 69.3927 641.102 69.3088 641.606 69.225C642.109 69.1411 642.277 69.0572 642.864 69.225C643.451 69.3927 643.199 69.1411 643.87 69.5604C644.541 69.9798 644.457 69.9798 645.212 70.2315C645.967 70.4831 646.638 70.6508 646.806 70.6508C646.974 70.6508 649.154 70.3992 649.406 70.0637C649.658 69.7282 649.909 69.9798 649.909 68.9733C649.909 67.9668 649.49 68.8056 649.909 67.4635C650.329 66.1215 650.245 66.1215 650.58 65.3666C650.916 64.6117 650.497 64.5278 651.419 63.9407C652.342 63.3535 652.006 63.1858 653.097 63.1858C654.187 63.1858 654.606 63.1019 655.278 63.3535C655.949 63.6052 656.284 63.6891 656.787 64.2762C657.291 64.8633 656.871 64.5278 657.626 65.3666C658.381 66.2054 658.465 66.0376 658.884 66.8764C659.304 67.7152 659.639 68.1346 659.639 68.5539C659.639 68.9733 659.555 69.2249 659.22 69.5604C658.884 69.896 658.8 69.6443 658.381 70.0637C657.962 70.4831 657.458 70.3992 657.458 70.6508C657.458 70.9025 657.123 71.1541 657.626 71.4896C658.129 71.8252 658.297 71.4896 658.465 72.0768C658.633 72.6639 658.297 73.1672 658.884 73.2511C659.471 73.3349 659.723 73.3349 659.807 73.5866C659.891 73.8382 658.381 74.1737 659.975 74.1737C661.568 74.1737 661.904 74.7608 662.239 74.8447C662.575 74.9286 662.994 75.1802 663.33 75.2641C663.665 75.348 663.414 75.4319 664.336 75.4319C665.259 75.4319 665.007 75.1802 665.511 74.9286C666.014 74.677 665.678 74.0898 666.433 74.7608C667.188 75.4319 667.272 75.7674 667.607 76.1029C667.943 76.4384 667.775 76.3545 668.782 76.4384C669.788 76.5223 668.698 76.3545 669.956 76.69C671.214 77.0255 671.717 77.6965 672.137 77.9482C672.556 78.1998 671.046 77.361 673.647 78.3676C676.247 79.3741 676.75 79.6257 677.002 79.6257C677.253 79.6257 676.666 79.8773 677.673 79.6257C678.679 79.3741 681.279 79.5418 681.615 79.458C681.95 79.3741 682.705 79.458 683.88 79.458C685.054 79.458 685.138 79.3741 685.809 79.7935C686.48 80.2129 686.731 80.5484 687.486 80.7161C688.241 80.8839 687.402 80.0451 689.08 81.2194C690.758 82.3937 692.267 83.3163 692.519 83.5679C692.771 83.8196 692.267 83.5679 693.19 84.7422C694.113 85.9165 693.609 85.8326 694.7 87.0069C695.79 88.1812 695.539 88.4328 696.629 88.9361" stroke="#E6E2DC" stroke-opacity="0.2" stroke-width="0.3"/>
<path d="M626.34 80.9679C625.501 80.2969 623.874 78.9213 624.075 78.7871C624.276 78.6529 624.606 78.2279 624.746 78.0322L625.585 76.9418C625.669 76.9697 625.887 76.9753 626.088 76.774C626.34 76.5224 626.34 76.4385 626.759 75.9353C627.179 75.432 627.095 75.3481 627.43 75.1804C627.766 75.0126 627.766 74.5932 628.269 74.5932C628.772 74.5932 630.114 74.761 630.282 74.761C630.416 74.761 631.177 74.5932 631.54 74.5093L632.295 73.2512C632.351 72.9157 632.446 72.2111 632.379 72.0769C632.312 71.9427 632.351 71.5736 632.379 71.4059C632.547 71.1543 633.033 70.651 633.637 70.651C634.392 70.651 634.56 70.3994 634.895 70.1477C635.231 69.8961 635.399 69.8122 635.734 69.4767C636.07 69.1412 636.321 68.7218 636.489 68.7218C636.657 68.7218 637.328 68.6379 637.747 68.7218C638.167 68.8057 640.012 67.7153 640.096 67.6314C640.18 67.5475 641.605 66.9604 641.941 67.0443C642.276 67.1281 642.276 67.212 642.947 67.0443C643.619 66.8765 644.373 66.7088 644.709 66.7927C645.044 66.8765 645.296 66.7927 645.464 67.0443C645.632 67.2959 645.715 67.4637 645.967 67.6314C646.219 67.7991 646.47 67.883 646.722 67.9669C646.974 68.0508 647.225 68.1346 647.561 67.883C647.896 67.6314 648.064 67.6314 648.232 67.212C648.4 66.7927 648.4 65.87 648.651 65.4506C648.903 65.0312 649.071 64.8634 649.742 64.2763C650.413 63.6892 650.245 63.773 650.916 63.3537C651.587 62.9343 652.006 63.102 652.845 62.5988C653.684 62.0955 653.516 61.76 654.439 61.6761C655.361 61.5922 655.445 61.9278 655.865 61.4245C656.2 61.0219 656.004 59.1878 655.865 58.321C655.948 58.2651 656.15 58.0191 656.284 57.4823C656.452 56.8112 657.29 55.8886 657.542 55.8886C657.794 55.8886 657.794 55.7208 658.129 56.0564C658.465 56.3919 658.465 56.4757 658.8 56.979C659.136 57.4823 659.052 56.8951 659.471 57.9016C659.891 58.9082 659.975 58.4888 659.891 59.1598C659.807 59.8308 660.142 59.4114 659.891 60.5857C659.639 61.76 659.471 61.5922 659.471 62.3471C659.471 63.102 659.555 63.2698 659.723 63.6053C659.891 63.9408 661.988 64.7796 662.155 64.6957C662.323 64.6118 662.239 64.6118 662.91 64.2763C663.581 63.9408 662.826 64.6118 664.168 63.6053C665.51 62.5988 665.51 62.6826 665.93 62.2633C666.349 61.8439 666.517 61.6761 666.852 61.2567C667.188 60.8373 666.936 60.6696 667.44 60.3341C668.278 61.4245 667.775 61.5922 668.111 62.3471C668.446 63.102 668.866 62.7665 668.866 64.0247C668.866 65.2828 668.53 66.1216 668.866 66.2055C669.704 66.7926 669.788 67.2959 670.627 66.7926C671.466 66.2894 671.298 66.4571 671.717 65.7022C672.137 64.9473 672.64 64.5279 672.556 63.6053C672.472 62.6826 672.221 62.7665 672.388 62.0116C672.556 61.2567 672.221 61.089 673.143 60.5857C674.066 60.0825 673.898 59.9986 674.653 59.9986C675.408 59.9986 676.414 60.0825 676.666 59.6631C676.918 59.2437 677.757 58.321 678.176 58.2372C678.595 58.1533 680.021 57.4823 680.608 57.4823C681.195 57.4823 680.692 57.8178 681.699 57.2306C682.705 56.6435 682.538 56.5596 683.125 56.3919C683.712 56.2241 683.628 56.2241 684.047 56.2241C684.467 56.2241 684.802 56.1402 685.054 56.8112C685.305 57.4823 685.473 58.321 685.725 59.2437C685.976 60.1663 686.228 60.6696 686.396 60.8373C686.564 61.0051 686.48 61.2567 686.815 61.2567C688.157 61.2567 688.241 61.089 688.325 60.5857C688.409 60.0825 687.654 59.9147 688.325 59.6631C688.996 59.4114 688.744 58.9921 689.332 59.4953C689.919 59.9986 689.751 59.9147 690.086 60.5857C690.422 61.2567 690.506 61.3406 690.757 61.4245C691.009 61.5084 690.925 61.8439 690.925 61.2567C690.925 60.6696 690.757 60.5857 691.093 59.8308C691.428 59.0759 690.925 59.4953 691.68 58.4888C692.435 57.4823 692.1 56.979 693.609 56.979C695.119 56.979 695.874 57.2306 696.293 56.8112C696.713 56.3919 696.545 56.6435 697.048 56.3919C697.552 56.1402 699.313 54.2111 699.565 53.8755C699.816 53.54 700.907 53.3723 700.99 53.3723C701.074 53.3723 701.661 53.6239 701.997 53.6239C702.333 53.6239 704.094 52.9529 704.262 52.7851C704.429 52.6174 704.849 52.3658 705.017 52.198C705.184 52.0302 707.114 51.2754 707.281 51.2754C707.449 51.2754 709.378 50.856 709.714 50.9398C710.049 51.0237 711.895 50.9398 712.23 50.9398C712.498 50.9398 714.467 50.7162 715.417 50.6044C716.144 50.5764 717.632 50.5205 717.766 50.5205C717.934 50.5205 720.618 51.527 720.785 51.6109C720.953 51.6948 722.882 52.8691 722.966 52.9529C723.05 53.0368 723.553 53.8756 723.637 54.0433C723.721 54.2111 724.56 54.3789 724.895 54.295C725.231 54.2111 726.07 53.624 726.405 53.4562C726.741 53.2885 727.16 52.8691 727.58 52.8691C727.999 52.8691 728.754 52.7852 728.922 52.8691C729.089 52.9529 729.509 53.0368 729.676 53.4562C729.844 53.8756 730.012 54.2111 729.676 54.7144C729.341 55.2176 729.173 55.637 729.173 55.8886C729.173 56.1403 728.838 56.979 728.67 57.1468C728.502 57.3146 728.418 58.1533 728.67 58.2372C728.871 58.3043 730.04 58.377 730.599 58.405L732.78 57.8178C733.283 57.5941 734.357 57.1468 734.625 57.1468C734.961 57.1468 736.135 56.979 736.303 57.3146C736.471 57.6501 736.722 57.4823 736.806 57.9856C736.89 58.4888 736.806 58.405 736.806 58.9921C736.806 59.5792 736.806 59.9986 736.806 60.2503C736.806 60.5019 737.561 61.0052 737.813 61.089C738.014 61.1561 739.015 61.2288 739.49 61.2568C739.49 61.2847 739.658 61.4581 740.329 61.9278C741.168 62.5149 741.419 62.5988 741.671 62.7666C742.09 63.2698 742.174 63.3537 741.923 63.6053C741.671 63.857 741.168 64.9474 741 65.1151C740.832 65.2829 740.664 65.7861 740.329 66.0378C739.993 66.2894 740.077 66.1217 739.49 66.541C738.903 66.9604 738.567 67.5476 738.484 67.6314C738.4 67.7153 738.316 67.4637 738.148 68.1347C737.98 68.8057 737.813 68.8057 737.813 69.1412C737.813 69.4767 737.225 69.309 736.89 69.6445C736.554 69.98 736.722 69.7284 736.303 70.3155C735.883 70.9027 734.457 73.8384 734.122 74.09C733.786 74.3416 733.032 74.6771 732.78 74.761C732.528 74.8449 731.438 75.2643 731.102 75.2643C730.767 75.2643 728.838 75.5159 728.67 75.5159C728.536 75.5159 727.384 74.733 726.825 74.3416L726.154 75.3481C725.762 75.9353 724.895 77.1767 724.56 77.4451C724.141 77.7806 723.721 78.1161 722.799 78.3677C721.876 78.6193 719.276 80.213 719.192 80.2969C719.108 80.3808 717.766 80.7163 717.514 80.8002C717.263 80.884 716.592 80.3808 716.592 80.9679C716.592 81.4376 716.48 83.1208 716.424 83.9036C716.536 84.0993 716.759 84.6082 716.759 85.0779C716.759 85.665 717.179 85.665 717.598 85.665C718.018 85.665 719.024 85.665 719.36 85.8328C719.695 86.0005 719.443 86.0844 720.198 86.2522C720.953 86.4199 721.121 86.336 721.54 86.2522C721.96 86.1683 721.96 85.9167 722.295 86.0844C722.631 86.2522 723.05 86.2522 723.302 86.5038C723.553 86.7554 724.141 86.6716 724.812 86.2522C725.483 85.8328 725.483 85.9167 725.986 85.665C726.489 85.4134 726.321 85.1618 727.16 85.2456C727.999 85.3295 727.58 85.7489 729.005 85.5812C730.431 85.4134 730.431 85.2456 731.102 85.2456C731.773 85.2456 731.438 85.0779 732.361 85.2456C733.283 85.4134 733.032 85.5812 733.786 85.5812C734.541 85.5812 734.709 85.5812 735.296 85.5812C735.883 85.5812 735.38 85.4134 736.051 85.8328C736.722 86.2522 736.303 86.6716 736.89 86.2522C737.477 85.8328 737.393 85.7489 737.896 85.665C738.4 85.5812 738.651 85.3295 739.071 85.5812C739.49 85.8328 741.671 86.5038 742.342 86.1683C743.013 85.8328 742.677 85.7489 743.265 85.665C743.852 85.5812 744.019 85.4973 744.942 85.8328C745.865 86.1683 745.781 86.5038 746.787 86.5038C747.794 86.5038 747.207 86.9232 748.129 86.2522C749.052 85.5812 748.8 85.8328 749.304 85.2456C749.807 84.6585 749.555 84.994 750.394 84.323C751.233 83.652 750.562 84.1552 751.401 83.4003" stroke="#E6E2DC" stroke-opacity="0.2" stroke-width="0.3"/>
<path d="M598.577 83.7353L600.086 84.9096C600.59 85.1613 601.63 85.6645 601.764 85.6645C601.932 85.6645 602.603 85.6645 602.771 85.6645C602.905 85.6645 603.162 85.6645 603.274 85.6645C603.442 85.6925 603.777 85.7652 603.777 85.8323C603.777 85.9162 603.777 86.0839 604.029 86.0839C604.23 86.0839 604.672 85.9162 604.867 85.8323C604.979 85.7484 605.237 85.631 605.371 85.8323C605.505 86.0336 605.986 86.5313 606.209 86.7549C606.517 86.8108 607.166 86.9227 607.3 86.9227C607.468 86.9227 608.223 86.9227 608.474 86.9227C608.726 86.9227 608.894 86.8388 608.894 86.5872C608.894 86.3859 608.726 85.6086 608.642 85.2451L608.223 83.1482C608.139 82.8966 608.021 82.3765 608.223 82.3094C608.424 82.2423 609.76 80.6039 610.403 79.7931C610.487 79.6533 610.722 79.3402 610.99 79.206C611.326 79.0382 611.661 78.535 612.249 78.3672C612.836 78.1995 613.758 78.1156 614.429 77.9478C615.1 77.7801 616.442 77.6962 616.61 77.6123C616.744 77.5452 619.406 78.479 620.72 78.9544L622.985 80.2964C623.32 80.3523 624.126 80.5648 624.662 80.9674C625.333 81.4707 625.417 81.6384 625.921 81.9739C626.424 82.3094 626.927 82.3933 627.263 82.4772C627.531 82.5443 627.99 82.617 628.185 82.645C628.772 82.4213 630.014 81.9739 630.282 81.9739C630.618 81.9739 630.618 81.9739 631.205 81.7223C631.792 81.4707 631.54 81.3029 632.379 81.3029C633.218 81.3029 633.553 81.3029 633.721 81.3029C633.889 81.3029 634.392 81.3029 634.644 80.9674" stroke="#E6E2DC" stroke-opacity="0.2" stroke-width="0.3"/>
<path d="M618.79 76.7742C618.858 76.7742 619.266 76.6624 619.461 76.6064L619.881 77.0258L620.049 77.6968C619.881 77.8087 619.529 78.0324 619.461 78.0324C619.378 78.0324 618.874 77.4452 618.79 77.4452C618.707 77.4452 618.707 76.7742 618.79 76.7742Z" stroke="#E6E2DC" stroke-opacity="0.2" stroke-width="0.3"/>
<path d="M612.668 76.69L612.249 76.2706C612.249 76.0693 612.696 75.963 612.92 75.9351C612.975 75.963 613.104 76.0525 613.171 76.1867C613.255 76.3544 613.339 76.3544 613.423 76.5222C613.507 76.69 613.758 76.69 613.926 76.69C614.06 76.69 614.262 76.9695 614.345 77.1093C614.29 77.1932 614.161 77.3777 614.094 77.4448C614.01 77.5287 613.339 77.6965 613.087 77.6126C612.836 77.5287 612.836 77.2771 612.668 77.1093C612.534 76.9751 612.612 76.7738 612.668 76.69Z" stroke="#E6E2DC" stroke-opacity="0.2" stroke-width="0.3"/>
<path d="M606.209 85.0782C606.125 85.0782 605.79 85.4137 605.706 85.5815C605.874 85.7492 606.209 86.1183 606.209 86.2525C606.209 86.4202 607.467 86.7557 607.719 86.7557C607.92 86.7557 608.194 86.6439 608.306 86.588C608.362 86.3643 608.407 85.8499 608.138 85.5815C607.803 85.246 607.887 85.246 607.719 84.9943C607.551 84.7427 607.551 84.4072 607.467 84.5749C607.384 84.7427 607.048 84.9104 607.048 84.9943C607.048 85.0782 606.293 85.0782 606.209 85.0782Z" stroke="#E6E2DC" stroke-opacity="0.2" stroke-width="0.3"/>
<path d="M604.197 85.3296C603.995 85.3296 603.889 85.05 603.861 84.9102C603.839 84.8263 604.113 84.5747 604.28 84.5747C604.448 84.5747 604.532 84.6586 604.616 85.078C604.7 85.4974 604.448 85.3296 604.197 85.3296Z" stroke="#E6E2DC" stroke-opacity="0.2" stroke-width="0.3"/>
<path d="M623.824 79.8769C623.013 79.5135 621.526 78.6188 622.062 77.9477C622.599 77.2767 623.572 76.1584 623.991 75.6831C624.774 75.068 626.508 73.821 627.179 73.7539C628.018 73.67 629.36 73.5861 629.443 72.999C629.527 72.4119 631.708 67.547 632.463 67.547C633.218 67.547 633.973 67.547 634.476 67.547C634.979 67.547 637.747 66.3727 638.083 66.2049C638.418 66.0372 641.27 65.1145 641.773 65.0307C642.176 64.9636 645.128 65.0027 646.554 65.0307C647.086 64.3596 648.081 62.984 647.813 62.8498C647.477 62.6821 648.567 63.1015 649.406 62.5143C650.077 62.0446 651.14 61.5917 651.587 61.4239C652.314 61.1164 653.818 60.2496 654.019 59.2431C654.271 57.985 657.039 55.1331 657.962 55.3848C658.884 55.6364 658.968 56.6429 659.136 56.7268C659.27 56.7939 660.087 57.4817 660.478 57.8172L660.981 59.4109L661.233 61.0884L662.743 62.095C663.106 62.039 663.967 61.8265 664.504 61.4239C665.041 61.0213 666.182 60.026 666.685 59.5786L668.53 58.3205C668.642 58.2366 668.899 58.1192 669.033 58.3205C669.201 58.5721 669.117 58.7399 669.285 59.0754C669.453 59.4109 669.537 59.327 669.537 59.5786C669.537 59.8303 669.537 60.0819 669.537 60.1658C669.537 60.2497 670.208 60.4174 670.292 60.4174C670.359 60.4174 670.991 60.4174 671.298 60.4174L671.801 59.5786" stroke="#E6E2DC" stroke-opacity="0.2" stroke-width="0.3"/>
<path d="M598.661 83.3998C598.745 83.3719 599.265 83.3831 600.674 83.6515C602.083 83.9199 603.274 83.9311 603.693 83.9031H605.539L606.545 83.3998L607.635 82.3095V80.5481L609.145 78.7028L609.649 75.0122C609.956 73.8658 610.89 71.6235 612.165 71.8248C613.44 72.0261 614.038 72.4678 614.178 72.6635L616.275 73.4184C616.666 73.726 617.567 74.1565 618.036 73.4184C618.623 72.4958 618.54 72.3279 618.623 72.0764C618.691 71.8751 619.266 71.4893 619.546 71.3215C619.937 71.0699 620.754 70.5666 620.888 70.5666C621.022 70.5666 622.342 70.6784 622.985 70.7344L623.656 70.9021L624.411 70.5666L624.746 69.9795L626.088 69.4762C626.228 69.3084 626.558 68.9729 626.759 68.9729C626.961 68.9729 627.403 68.9729 627.598 68.9729L628.102 69.1407C628.689 68.6654 629.896 67.547 630.031 66.876C630.165 66.205 631.988 65.8695 632.883 65.7856L635.315 63.8564L637.831 64.0242L639.677 63.2693H641.354L642.948 62.5983H644.374C644.709 62.8779 645.397 63.437 645.464 63.437C645.548 63.437 646.806 62.9338 646.554 62.1789C646.353 61.575 647.253 61.2562 647.729 61.1724L649.91 60.8368C650.692 60.5852 652.292 59.8974 652.426 59.1593C652.56 58.4212 652.705 58.013 652.761 57.9012L655.11 56.3914L656.452 55.3848L658.046 54.7977L659.304 55.5526L660.394 56.8107L661.568 57.4818L662.575 59.0754L663.162 59.8303L664.253 60.082L665.846 59.4109L667.44 57.9012L669.034 57.314L670.04 57.4818V59.0754C670.068 59.4109 670.158 60.082 670.292 60.082C670.426 60.082 670.907 60.1938 671.13 60.2497C671.466 59.9142 672.154 59.2264 672.221 59.1593C672.288 59.0922 672.584 58.2926 672.724 57.9012L673.227 57.314L673.395 57.0624L673.731 56.9785L674.486 57.3979C674.541 57.4258 674.687 57.465 674.821 57.3979C674.955 57.3308 675.268 57.0344 675.408 56.8946C675.66 56.643 676.18 56.123 676.247 56.0559C676.314 55.9888 677.114 55.5246 677.505 55.301L679.434 55.7203C679.854 55.5805 680.709 55.301 680.776 55.301C680.843 55.301 681.979 54.6859 682.538 54.3783L683.377 54.2944L684.383 54.3783L684.886 54.2944L685.725 54.5461C685.669 54.6859 685.591 54.9822 685.725 55.0493C685.893 55.1332 686.228 55.301 686.396 55.301C686.564 55.301 686.732 55.301 686.983 55.301C687.235 55.301 687.906 55.0493 687.906 55.3848C687.906 55.7203 688.074 55.8042 688.074 56.2236C688.074 56.643 688.241 56.8107 688.325 57.0624C688.409 57.314 688.241 57.3979 688.577 57.3979C688.912 57.3979 688.996 57.3979 689.332 57.0624C689.667 56.7269 689.583 56.7269 689.751 56.4752C689.919 56.2236 689.919 55.972 690.003 55.8042C690.087 55.6365 690.003 55.6365 690.087 55.4687" stroke="#E6E2DC" stroke-opacity="0.2" stroke-width="0.3"/>
<circle cx="598.843" cy="85.7098" r="2.01005" fill="#666666"/>
<circle cx="822.963" cy="359.076" r="2.01005" fill="#666666"/>
<path d="M922.979 543.725L912.829 546.545C911.088 547.028 909.649 545.138 910.578 543.589L915.653 535.13C916.345 533.977 917.955 533.822 918.855 534.821L923.93 540.46C924.923 541.564 924.41 543.328 922.979 543.725Z" fill="white" fill-opacity="0.1"/>
</g>
<defs>
<clipPath id="clip0_4036_93">
<rect width="1110" height="550" fill="white"/>
</clipPath>
</defs>
</svg>
