<svg width="249" height="168" viewBox="0 0 249 168" fill="none" xmlns="http://www.w3.org/2000/svg">
<g clip-path="url(#clip0_20_194)">
<path opacity="0.947" fill-rule="evenodd" clip-rule="evenodd" d="M170.529 -0.267578C171.958 -0.267578 173.386 -0.267578 174.814 -0.267578C177.307 0.975594 179.093 2.93444 180.171 5.60897C183.8 6.97334 187.192 8.75415 190.348 10.9513C191.753 12.6545 192.645 14.6133 193.026 16.8278C196.175 18.4874 199.389 20.001 202.668 21.3688C203.127 21.7369 203.483 22.1821 203.739 22.7044C202.624 24.9734 201.195 27.0213 199.454 28.848C195.323 29.565 191.217 30.4553 187.134 31.5192C184.245 32.9754 181.657 34.8452 179.367 37.1286C178.808 36.5289 178.451 35.8166 178.296 34.9917C178.118 33.2109 177.939 31.4301 177.76 29.6494C174.761 32.9587 172.44 36.6983 170.797 40.8682C170.256 41.3152 169.631 41.4933 168.922 41.4025C169.002 39.7424 168.734 38.1397 168.119 36.5944C165.808 33.6655 163.218 30.9944 160.352 28.5809C157.108 31.9964 153.715 35.2018 150.175 38.1971C145.897 34.1981 141.702 30.1024 137.588 25.9098C134.204 28.8387 130.901 31.866 127.678 34.9917C124.465 31.9644 121.251 28.9371 118.037 25.9098C115.616 27.7417 113.295 29.7006 111.074 31.7863C109.743 30.7269 108.493 29.5695 107.324 28.3138C106.967 27.9576 106.61 27.9576 106.253 28.3138C102.585 32.0613 98.8353 35.7118 95.0045 39.2655C92.8619 37.4848 90.8977 35.5259 89.1125 33.389C85.6222 36.7816 82.0512 40.0761 78.3997 43.2723C77.8919 43.5302 77.3563 43.6193 76.7928 43.5394C75.466 37.2439 77.0729 31.8125 81.6135 27.2453C80.1743 26.9582 78.8352 27.2254 77.5963 28.0467C76.8651 27.4628 76.6862 26.7505 77.0606 25.9098C83.018 17.2953 90.9631 11.3298 100.896 8.01301C110.857 7.30686 120.677 8.28627 130.357 10.9513C134.48 8.71755 138.587 6.49162 142.676 4.27339C147.012 3.4013 151.297 3.66842 155.531 5.07474C158.402 4.35895 161.259 3.64664 164.102 2.93781C162.161 9.75182 164.482 14.3818 171.065 16.8278C171.629 16.3266 171.986 15.7033 172.136 14.958C170.865 13.7417 169.526 12.5842 168.119 11.4855C165.207 6.76595 166.01 2.84828 170.529 -0.267578ZM172.136 4.5405C174.807 4.4363 175.699 5.59379 174.814 8.01301C172.197 8.2329 171.305 7.07538 172.136 4.5405ZM184.456 14.6909C185.754 14.7631 186.826 14.9411 187.67 15.2251C186.263 17.3784 185.192 17.2003 184.456 14.6909ZM148.568 15.2251C150.589 16.611 152.553 18.1246 154.46 19.7661C150.889 20.1223 147.319 20.1223 143.747 19.7661C145.622 18.5191 147.229 17.0055 148.568 15.2251ZM178.028 18.9648C179.661 18.9615 179.929 19.4958 178.832 20.5674C178.275 20.1701 178.007 19.6359 178.028 18.9648ZM95.0045 21.1017C96.1427 21.5652 96.2316 22.0994 95.2723 22.7044C94.3708 22.343 94.2814 21.8087 95.0045 21.1017ZM128.214 21.1017C129.914 21.3433 130.092 21.8775 128.75 22.7044C127.668 22.3663 127.489 21.832 128.214 21.1017ZM173.207 23.2386C174.346 23.7021 174.435 24.2363 173.475 24.8413C172.574 24.4799 172.484 23.9457 173.207 23.2386ZM134.106 39.2655C135.311 39.0953 136.382 39.3625 137.32 40.0669C135.973 40.982 134.544 41.071 133.035 40.334C133.433 39.9698 133.789 39.6136 134.106 39.2655Z" fill="white"/>
<path opacity="0.855" fill-rule="evenodd" clip-rule="evenodd" d="M116.965 31.2529C117.529 31.1731 118.064 31.2621 118.572 31.52C120.269 33.2118 121.964 34.9035 123.661 36.5952C123.519 38.3688 122.626 39.7934 120.983 40.8691C118.715 38.6076 116.483 36.3817 114.287 34.1912C115.279 33.2921 116.171 32.3127 116.965 31.2529Z" fill="white"/>
<path opacity="0.894" fill-rule="evenodd" clip-rule="evenodd" d="M248.732 79.867C248.732 80.5791 248.732 81.2918 248.732 82.0039C248.31 82.1551 247.953 82.4222 247.661 82.8053C165.314 83.2498 83.0047 83.1605 0.732422 82.5382C0.732422 81.4697 0.732422 80.4012 0.732422 79.3328C25.3497 78.8931 49.989 78.626 74.6503 78.5314C72.5464 75.0472 70.5827 71.4855 68.7583 67.8468C71.6036 63.9491 74.8175 60.3873 78.3998 57.1622C83.7562 56.9843 89.1125 56.8058 94.4689 56.6279C94.7137 56.4068 94.8926 56.1397 95.0046 55.8266C88.9299 55.2197 82.859 55.3084 76.7929 56.0937C75.9 56.5387 75.0076 56.9843 74.1147 57.4293C73.5089 56.5884 73.4195 55.6978 73.8469 54.7581C77.7163 48.4933 82.6265 43.151 88.5769 38.7312C90.7114 40.5927 92.7645 42.5515 94.7367 44.6077C98.6726 40.5932 102.69 36.6755 106.789 32.8546C111.431 36.9504 116.073 41.0462 120.715 45.142C125.931 40.2044 131.376 35.5744 137.052 31.252C141.063 34.54 144.634 38.1015 147.765 41.9366C145.77 45.1785 143.002 47.4044 139.462 48.6145C136.85 51.9394 133.636 54.4323 129.821 56.0937C127.321 56.45 124.822 56.45 122.322 56.0937C120.456 53.7158 118.403 51.4897 116.162 49.4158C114.725 50.7599 113.386 52.1845 112.145 53.6897C110.039 54.4349 107.897 55.0584 105.717 55.5595C98.7867 62.4639 90.9305 68.162 82.1493 72.6549C82.574 73.2345 82.9313 73.858 83.2205 74.5247C86.1783 74.7533 88.4992 76.0889 90.1838 78.5314C95.1829 78.8878 100.183 78.8878 105.182 78.5314C103.417 77.3396 101.542 76.3603 99.5575 75.5932C99.2104 72.8135 98.7642 70.0532 98.2184 67.3126C101.296 64.0869 104.688 61.2373 108.395 58.7649C111.426 58.4983 114.461 58.4091 117.501 58.4978C116.253 62.2358 114.557 65.7975 112.413 69.1824C112.146 70.7755 112.057 72.3782 112.145 73.9905C115.931 73.7607 118.788 75.2742 120.715 78.5314C126.786 78.8878 132.856 78.8878 138.927 78.5314C137.272 77.4753 135.486 76.6739 133.57 76.1274C132.398 70.3128 131.684 64.4363 131.428 58.4978C136.026 58.3284 140.579 58.5068 145.087 59.032C145.871 60.7554 146.496 62.536 146.961 64.3743C146.139 66.4589 145.246 68.5066 144.283 70.518C144.778 71.6083 144.956 72.766 144.819 73.9905C148.485 74.1278 151.521 75.552 153.925 78.2643C157.841 78.8867 161.769 78.9754 165.709 78.5314C164.003 77.7279 162.307 76.9266 160.62 76.1274C159.658 73.7111 159.032 71.2178 158.745 68.6481C156.592 69.1851 154.449 69.1851 152.318 68.6481C151.234 64.6799 149.984 60.7624 148.568 56.8951C145.944 56.1589 143.266 55.7133 140.534 55.5595C140.289 55.3383 140.11 55.0712 139.998 54.7581C146.409 47.6515 153.015 40.7065 159.817 33.9231C161.772 35.6064 163.647 37.3872 165.441 39.2654C166.947 51.1505 169.715 62.7257 173.743 73.9905C177.469 74.1764 180.505 75.6899 182.849 78.5314C204.453 78.7093 226.057 78.8878 247.661 79.0657C247.953 79.4487 248.31 79.7158 248.732 79.867ZM134.106 39.2654C133.79 39.6135 133.433 39.9696 133.035 40.3339C134.544 41.0709 135.973 40.9819 137.32 40.0668C136.383 39.3623 135.311 39.0952 134.106 39.2654ZM158.745 43.5393C159.819 43.9421 160.177 44.5654 159.817 45.4091C157.646 45.6593 157.288 45.036 158.745 43.5393ZM101.968 44.6077C115.446 45.3215 115.446 45.7667 101.968 45.9433C101.38 45.5321 101.38 45.0869 101.968 44.6077ZM129.285 44.6077C131.306 44.4813 133.27 44.7484 135.177 45.4091C132.957 46.2612 130.635 46.4393 128.214 45.9433C128.036 45.7653 127.857 45.5871 127.678 45.4091C128.341 45.2851 128.877 45.018 129.285 44.6077ZM82.6849 49.9501C85.3867 49.7751 88.0648 49.9532 90.7195 50.4843C90.6075 50.7973 90.4286 51.0645 90.1838 51.2856C87.6904 51.5523 85.1911 51.6413 82.6849 51.5527C82.6849 51.0185 82.6849 50.4843 82.6849 49.9501ZM95.5402 49.9501C97.8681 49.8615 100.189 49.9506 102.503 50.2172C102.748 50.4383 102.927 50.7055 103.039 51.0185C100.564 51.5492 98.0652 51.7272 95.5402 51.5527C95.5402 51.0185 95.5402 50.4843 95.5402 49.9501ZM125 49.9501C125.958 49.7977 126.851 49.9757 127.678 50.4843C126.734 51.7857 125.663 51.8747 124.465 50.7514C124.762 50.547 124.941 50.2799 125 49.9501ZM150.711 49.9501C153.573 49.8614 156.43 49.9504 159.281 50.2172C159.526 50.4383 159.705 50.7055 159.817 51.0185C156.603 51.7308 153.389 51.7308 150.175 51.0185C150.37 50.6534 150.548 50.2972 150.711 49.9501ZM154.996 55.8266C157.68 55.7379 160.358 55.8271 163.03 56.0937C160.672 56.7001 158.262 57.1451 155.799 57.4293C155.243 57.0318 154.975 56.4976 154.996 55.8266ZM81.078 61.7031C83.25 61.5301 85.3925 61.7079 87.5056 62.2374C86.4344 62.4153 85.3631 62.5937 84.2918 62.7716C82.9784 62.7508 81.9072 62.3944 81.078 61.7031ZM156.603 61.7031C164.277 61.8559 164.367 62.3902 156.871 63.3058C155.945 62.8507 155.856 62.3164 156.603 61.7031ZM107.324 62.2374C108.796 62.0702 110.224 62.2481 111.609 62.7716C111.059 63.5858 110.256 63.9421 109.199 63.8401C107.488 64.1163 106.862 63.582 107.324 62.2374ZM136.249 62.2374C138.421 62.0643 140.563 62.2422 142.676 62.7716C141.605 62.9495 140.534 63.1279 139.462 63.3058C138.149 63.285 137.078 62.9287 136.249 62.2374Z" fill="white"/>
<path opacity="0.774" fill-rule="evenodd" clip-rule="evenodd" d="M64.4732 38.1969C66.2675 38.1088 68.0528 38.1979 69.8295 38.4641C71.1863 39.4877 71.1863 40.5561 69.8295 41.6695C68.0443 42.0256 66.2584 42.0256 64.4732 41.6695C63.1014 40.5177 63.1014 39.3602 64.4732 38.1969Z" fill="white"/>
<path opacity="0.837" fill-rule="evenodd" clip-rule="evenodd" d="M55.9026 46.2111C61.0833 46.1221 66.2613 46.2112 71.4361 46.4782C72.2047 47.6894 72.0263 48.7579 70.9004 49.6836C65.5441 50.0397 60.1877 50.0397 54.8313 49.6836C53.9919 48.1313 54.349 46.9738 55.9026 46.2111Z" fill="white"/>
<path opacity="0.832" fill-rule="evenodd" clip-rule="evenodd" d="M174.279 46.2111C179.817 46.1221 185.352 46.2112 190.884 46.4782C192.335 47.2581 192.692 48.3265 191.955 49.6836C186.063 50.0397 180.171 50.0397 174.279 49.6836C172.907 48.5318 172.907 47.3743 174.279 46.2111Z" fill="white"/>
<path opacity="0.833" fill-rule="evenodd" clip-rule="evenodd" d="M47.3325 54.2246C52.8703 54.136 58.4052 54.2246 63.9372 54.4918C65.0632 55.4176 65.2415 56.486 64.4729 57.6971C58.4025 58.0535 52.3318 58.0535 46.2612 57.6971C45.9817 57.3974 45.8031 57.0411 45.7256 56.6287C46.1619 55.7509 46.6976 54.9496 47.3325 54.2246Z" fill="white"/>
<path opacity="0.708" fill-rule="evenodd" clip-rule="evenodd" d="M178.028 54.2244C179.897 54.0882 181.325 54.8003 182.313 56.3613C181.28 58.3214 179.673 58.9449 177.492 58.2311C175.997 56.637 176.175 55.3014 178.028 54.2244Z" fill="white"/>
<path opacity="0.748" fill-rule="evenodd" clip-rule="evenodd" d="M187.134 54.2246C191.779 54.136 196.422 54.2246 201.06 54.4918C203.054 55.1644 203.59 56.4107 202.667 58.2314C197.489 58.5877 192.312 58.5877 187.134 58.2314C185.014 56.821 185.014 55.4854 187.134 54.2246Z" fill="white"/>
<path opacity="0.722" fill-rule="evenodd" clip-rule="evenodd" d="M209.63 54.2249C211.781 53.9044 213.656 54.4386 215.255 55.8276C215.612 56.5397 215.612 57.2524 215.255 57.9645C213.249 58.5661 211.196 58.6553 209.095 58.2317C208.519 57.8369 208.162 57.3026 208.023 56.629C208.46 55.7512 208.996 54.9499 209.63 54.2249Z" fill="white"/>
<path opacity="0.778" fill-rule="evenodd" clip-rule="evenodd" d="M32.8707 62.2379C34.6651 62.1498 36.4505 62.239 38.2271 62.5051C39.2046 63.2882 39.4724 64.2675 39.0306 65.4433C37.0254 66.0449 34.972 66.1341 32.8707 65.7104C31.4988 64.5586 31.4988 63.401 32.8707 62.2379Z" fill="white"/>
<path opacity="0.83" fill-rule="evenodd" clip-rule="evenodd" d="M45.7255 62.2385C52.5126 62.1493 59.2975 62.2385 66.0797 62.5057C66.8483 63.7168 66.67 64.7852 65.5441 65.711C58.4024 66.0674 51.2604 66.0674 44.1186 65.711C43.5738 65.1506 43.4845 64.5272 43.8507 63.8412C44.4641 63.2343 45.089 62.7001 45.7255 62.2385Z" fill="white"/>
<path opacity="0.81" fill-rule="evenodd" clip-rule="evenodd" d="M188.741 62.2383C191.703 62.9146 194.649 62.9146 197.579 62.2383C199.468 62.8649 200.182 64.1113 199.721 65.9779C195.747 66.5907 191.729 66.6793 187.669 66.245C186.468 64.6044 186.825 63.2688 188.741 62.2383Z" fill="white"/>
<path opacity="0.817" fill-rule="evenodd" clip-rule="evenodd" d="M205.882 62.2383C210.272 62.928 214.647 62.928 219.005 62.2383C221.452 62.6999 222.255 64.0354 221.415 66.245C216.237 66.6013 211.06 66.6013 205.882 66.245C204.478 64.8779 204.478 63.5423 205.882 62.2383Z" fill="white"/>
<path opacity="0.831" fill-rule="evenodd" clip-rule="evenodd" d="M37.1557 70.7854C43.5858 70.6962 50.0135 70.7854 56.4387 71.0525C57.8672 72.121 57.8672 73.1895 56.4387 74.2579C49.8325 74.6143 43.2263 74.6143 36.6201 74.2579C36.1612 73.8898 35.8042 73.4448 35.5488 72.9223C36.0975 72.2001 36.6332 71.4879 37.1557 70.7854Z" fill="white"/>
<path opacity="0.728" fill-rule="evenodd" clip-rule="evenodd" d="M61.7943 70.7856C64.684 70.2807 65.5764 71.3492 64.4725 73.9909C61.1462 74.7747 60.2533 73.7062 61.7943 70.7856Z" fill="white"/>
<path opacity="0.712" fill-rule="evenodd" clip-rule="evenodd" d="M187.67 70.7853C191.253 70.1608 192.146 71.3179 190.348 74.2578C187.542 74.5751 186.649 73.4174 187.67 70.7853Z" fill="white"/>
<path opacity="0.827" fill-rule="evenodd" clip-rule="evenodd" d="M197.846 70.7854C204.098 70.6962 210.347 70.7854 216.594 71.0525C218.412 71.8886 218.591 72.9571 217.129 74.2579C211.059 74.6143 204.988 74.6143 198.918 74.2579C197.992 73.3022 197.634 72.1445 197.846 70.7854Z" fill="white"/>
<path opacity="0.901" fill-rule="evenodd" clip-rule="evenodd" d="M60.7239 90.5527C63.5526 95.1199 66.1413 99.928 68.4906 104.977C72.2754 112.525 75.7571 120.182 78.9355 127.949C76.2515 128.038 73.5733 127.948 70.901 127.682C69.5908 125.337 68.3412 122.933 67.1515 120.47C63.2355 119.847 59.3077 119.759 55.3675 120.203C54.2205 122.742 52.9706 125.236 51.618 127.682C48.7447 128.125 45.888 128.036 43.0479 127.415C49.0834 115.197 54.9754 102.91 60.7239 90.5527ZM60.7239 104.977C62.3415 107.579 63.77 110.339 65.009 113.258C62.4904 113.7 59.9906 113.611 57.5101 112.99C58.7961 110.386 59.8674 107.714 60.7239 104.977Z" fill="white"/>
<path opacity="0.897" fill-rule="evenodd" clip-rule="evenodd" d="M115.359 90.5527C121.978 102.688 128.048 115.154 133.57 127.949C130.691 128.124 127.835 127.946 125 127.415C123.614 125.012 122.543 122.519 121.786 119.935C117.68 119.935 113.573 119.935 109.467 119.935C108.622 122.6 107.551 125.182 106.253 127.682C103.402 127.948 100.545 128.038 97.6826 127.949C103.573 115.487 109.465 103.022 115.359 90.5527ZM115.359 104.977C116.83 107.667 118.259 110.427 119.644 113.258C117.125 113.7 114.625 113.611 112.145 112.99C113.371 110.368 114.443 107.697 115.359 104.977Z" fill="white"/>
<path opacity="0.897" fill-rule="evenodd" clip-rule="evenodd" d="M155.531 90.5527C156.201 90.5939 156.647 90.9502 156.87 91.6212C161.193 101.082 165.567 110.52 169.993 119.935C171.753 120.376 173.538 120.643 175.35 120.737C175.594 120.958 175.773 121.225 175.885 121.538C175.389 125.417 175.21 129.246 175.35 133.024C173.029 133.38 170.707 133.38 168.386 133.024C167.874 131.211 167.696 129.341 167.851 127.415C159.814 127.325 151.78 127.415 143.747 127.682C144.461 129.462 144.461 131.244 143.747 133.024C141.29 133.451 138.88 133.362 136.516 132.757C136.159 128.839 136.159 124.921 136.516 121.004C138.369 120.666 140.243 120.309 142.14 119.935C146.757 110.193 151.221 100.399 155.531 90.5527ZM155.531 105.511C156.222 105.809 156.668 106.344 156.87 107.114C158.359 111.57 160.055 115.932 161.959 120.203C158.031 120.559 154.103 120.559 150.175 120.203C152.332 115.438 154.118 110.542 155.531 105.511Z" fill="white"/>
<path opacity="0.901" fill-rule="evenodd" clip-rule="evenodd" d="M196.24 90.5527C198.533 94.0498 200.586 97.7894 202.399 101.772C206.719 110.387 210.737 119.113 214.451 127.949C211.767 128.038 209.089 127.948 206.417 127.682C205.106 125.337 203.857 122.933 202.667 120.47C198.751 119.847 194.823 119.759 190.883 120.203C189.488 122.63 188.238 125.122 187.134 127.682C184.261 128.125 181.403 128.036 178.563 127.415C184.599 115.197 190.491 102.91 196.24 90.5527ZM196.24 104.977C197.865 107.596 199.294 110.356 200.525 113.258C198.006 113.7 195.506 113.611 193.026 112.99C194.256 110.363 195.327 107.691 196.24 104.977Z" fill="white"/>
<path opacity="0.897" fill-rule="evenodd" clip-rule="evenodd" d="M0.732422 127.949C0.732422 126.168 0.732422 124.387 0.732422 122.606C2.63579 112.233 4.06416 101.726 5.01752 91.0866C5.64691 90.9696 6.18255 91.1475 6.62443 91.6208C11.3111 98.6534 15.864 105.776 20.2832 112.99C25.106 105.604 30.016 98.3024 35.0132 91.0866C37.1052 103.326 38.8906 115.613 40.3696 127.949C37.6914 127.949 35.0132 127.949 32.335 127.949C31.8624 121.656 31.059 115.423 29.9246 109.25C26.9342 114.327 23.8096 119.313 20.551 124.209C16.949 119.272 13.6459 114.107 10.6417 108.716C9.81003 114.935 9.09586 121.168 8.49916 127.414C5.96201 127.932 3.3731 128.11 0.732422 127.949Z" fill="white"/>
<path opacity="0.902" fill-rule="evenodd" clip-rule="evenodd" d="M82.6846 92.1543C89.1947 92.1912 95.8007 92.1912 102.503 92.1543C102.503 94.6476 102.503 97.1403 102.503 99.6335C98.3964 99.6335 94.2902 99.6335 90.1835 99.6335C90.1835 109.072 90.1835 118.51 90.1835 127.948C87.6837 127.948 85.1844 127.948 82.6846 127.948C82.6846 116.017 82.6846 104.085 82.6846 92.1543Z" fill="white"/>
<path opacity="0.899" fill-rule="evenodd" clip-rule="evenodd" d="M248.732 92.6893C248.732 104.442 248.732 116.195 248.732 127.949C246.232 127.949 243.733 127.949 241.233 127.949C241.233 122.784 241.233 117.62 241.233 112.456C236.055 112.456 230.877 112.456 225.699 112.456C225.788 117.445 225.699 122.432 225.431 127.414C222.894 127.932 220.305 128.11 217.665 127.949C217.49 116.066 217.668 104.224 218.2 92.4222C220.552 92.0098 222.873 92.0984 225.164 92.6893C225.867 96.9054 225.867 101.09 225.164 105.244C230.517 105.511 235.873 105.6 241.233 105.511C241.144 101.233 241.233 96.9594 241.501 92.6893C243.91 91.9916 246.321 91.9916 248.732 92.6893Z" fill="white"/>
<path opacity="0.863" fill-rule="evenodd" clip-rule="evenodd" d="M0.732422 141.304C0.732422 140.236 0.732422 139.167 0.732422 138.099C25.1552 137.479 49.616 137.389 74.1147 137.832C75.6525 139.349 75.4736 140.596 73.5791 141.571C49.2748 142.011 24.9926 141.922 0.732422 141.304Z" fill="white"/>
<path opacity="0.892" fill-rule="evenodd" clip-rule="evenodd" d="M149.104 160.536C146.961 160.536 144.819 160.536 142.676 160.536C142.05 158.928 141.157 157.503 139.998 156.263C138.213 156.975 136.427 156.975 134.641 156.263C133.639 157.55 132.925 158.975 132.499 160.536C130.356 160.536 128.214 160.536 126.071 160.536C129.386 152.678 133.135 145.02 137.32 137.564C141.399 145.167 145.326 152.824 149.104 160.536ZM137.32 147.715C137.942 149.043 138.657 150.379 139.462 151.722C138.176 152.156 136.926 152.067 135.713 151.454C136.357 150.236 136.892 148.99 137.32 147.715Z" fill="white"/>
<path opacity="0.843" fill-rule="evenodd" clip-rule="evenodd" d="M248.733 138.633C248.733 139.345 248.733 140.058 248.733 140.77C248.31 140.921 247.953 141.188 247.661 141.571C224.807 141.928 201.954 141.928 179.1 141.571C177.671 140.325 177.671 139.078 179.1 137.832C201.954 137.475 224.807 137.475 247.661 137.832C247.953 138.215 248.31 138.482 248.733 138.633Z" fill="white"/>
<path opacity="0.892" fill-rule="evenodd" clip-rule="evenodd" d="M100.361 160.536C96.2539 160.536 92.1477 160.536 88.041 160.536C88.041 153.235 88.041 145.934 88.041 138.633C93.3974 138.633 98.7538 138.633 104.11 138.633C104.11 140.236 104.11 141.838 104.11 143.441C100.718 143.441 97.3252 143.441 93.933 143.441C93.933 144.509 93.933 145.578 93.933 146.646C96.4864 146.481 98.9862 146.748 101.432 147.448C105.021 149.465 106.181 152.403 104.914 156.262C103.79 158.187 102.272 159.612 100.361 160.536ZM93.933 151.454C95.3723 151.367 96.8008 151.456 98.2181 151.721C100.361 152.968 100.361 154.215 98.2181 155.461C96.8008 155.727 95.3723 155.816 93.933 155.728C93.933 154.303 93.933 152.879 93.933 151.454Z" fill="white"/>
<path opacity="0.895" fill-rule="evenodd" clip-rule="evenodd" d="M115.894 160.536C113.93 160.536 111.966 160.536 110.002 160.536C110.002 153.235 110.002 145.934 110.002 138.633C113.399 138.544 116.791 138.633 120.179 138.9C124.991 140.214 126.866 143.33 125.803 148.249C125.014 150.461 123.496 151.975 121.25 152.79C119.263 152.883 117.298 153.151 115.358 153.591C115.861 155.87 116.04 158.185 115.894 160.536ZM115.358 143.975C117.664 142.969 119.449 143.593 120.715 145.845C120.566 146.856 120.031 147.568 119.108 147.982C117.858 148.338 116.608 148.338 115.358 147.982C116.062 146.59 116.062 145.255 115.358 143.975Z" fill="white"/>
<path opacity="0.866" fill-rule="evenodd" clip-rule="evenodd" d="M159.816 160.536C157.852 160.536 155.888 160.536 153.924 160.536C153.924 155.016 153.924 149.495 153.924 143.975C151.96 143.975 149.996 143.975 148.032 143.975C148.032 142.195 148.032 140.413 148.032 138.633C153.924 138.633 159.816 138.633 165.708 138.633C165.708 140.413 165.708 142.195 165.708 143.975C163.744 143.975 161.78 143.975 159.816 143.975C159.816 149.495 159.816 155.016 159.816 160.536Z" fill="white"/>
</g>
<defs>
<clipPath id="clip0_20_194">
<rect width="248" height="168" fill="white" transform="translate(0.5)"/>
</clipPath>
</defs>
</svg>
