<svg width="249" height="168" viewBox="0 0 249 168" fill="none" xmlns="http://www.w3.org/2000/svg">
<path d="M135.384 57.8755C131.287 58.1878 128.222 59.1819 125.22 61.1829C124.099 61.9348 123.468 62.451 122.474 63.4387C120.466 65.4525 119.077 67.7275 118.217 70.4103C117.204 73.5966 117.114 77.5539 117.987 80.8931C119.746 87.5907 125.43 92.625 132.676 93.8995C136.149 94.5112 139.973 94.3264 143.172 93.3897C148.04 91.9686 152.157 88.6294 154.349 84.3279C155.585 81.9064 156.152 79.574 156.235 76.5662C156.382 71.2324 154.598 66.7461 150.921 63.1838C147.951 60.3098 144.051 58.5191 139.622 57.9966C138.813 57.901 136.085 57.8245 135.384 57.8755ZM138.87 66.2427C139.711 66.4275 140.482 66.7079 141.266 67.1093C142.184 67.5873 142.847 68.0843 143.567 68.8363C145.001 70.3211 145.842 72.099 146.154 74.2912C146.262 75.0623 146.281 76.8211 146.179 77.5922C145.893 79.9436 144.994 81.8363 143.446 83.3912C142.139 84.7103 140.603 85.5132 138.698 85.8892C138.137 86.0039 137.768 86.0294 136.85 86.0294C135.136 86.0294 134.021 85.7872 132.644 85.1181C129.91 83.7799 128.126 81.3328 127.54 78.1338C127.374 77.2289 127.374 74.8966 127.54 73.9917C127.941 71.7931 128.821 70.0789 130.286 68.6324C131.554 67.3833 133.403 66.4402 135.098 66.1917C135.359 66.1534 135.646 66.1088 135.735 66.0961C135.824 66.077 136.423 66.077 137.073 66.0897C137.965 66.1088 138.405 66.1471 138.87 66.2427Z" fill="white"/>
<path d="M47.0298 62.4574V66.3765H62.7062H78.3827V62.4574V58.5382H62.7062H47.0298V62.4574Z" fill="white"/>
<path d="M82.0909 76.0436L82.11 93.5554L87.0041 93.5745L91.8918 93.5872V76.0627V58.5383H86.985H82.0781L82.0909 76.0436Z" fill="white"/>
<path d="M95.3335 62.0941V65.6564L97.5511 65.6946C99.9345 65.7329 100.54 65.7966 101.445 66.0961C102.917 66.5868 103.682 67.6 103.682 69.0529C103.682 70.6843 102.751 71.7549 100.948 72.2137C100.208 72.4049 98.8766 72.4941 96.7864 72.4941H95.3335V75.9034V79.3127H98.1884C101.113 79.3127 101.789 79.351 102.662 79.574C104.414 80.0201 105.402 81.199 105.402 82.8495C105.402 84.4299 104.504 85.5706 102.885 86.0613C101.948 86.3416 101.349 86.3863 98.2457 86.3863H95.3335L95.3462 89.9676L95.3654 93.5554L98.9977 93.549C102.732 93.5426 103.739 93.498 105.37 93.2622C110.424 92.5421 113.814 90.2735 114.948 86.8642C115.267 85.8956 115.369 85.2137 115.369 83.9647C115.369 82.2632 115.076 80.9568 114.413 79.6887C113.482 77.9363 111.673 76.3686 109.627 75.5466C109.334 75.4319 109.098 75.3172 109.098 75.298C109.098 75.2725 109.334 75.1069 109.627 74.9284C111.749 73.6221 113.081 71.7676 113.533 69.4799C113.591 69.1931 113.648 68.5559 113.667 68.0652C113.852 63.2539 110.532 59.9083 104.567 58.8951C103.038 58.6338 102.305 58.5892 98.7938 58.5574L95.3335 58.5255V62.0941Z" fill="white"/>
<path d="M173.205 58.5829C171.141 58.7039 168.764 59.1946 166.992 59.8574C162.895 61.3995 160.307 64.1397 159.345 67.9696C158.854 69.9069 158.81 72.2137 159.218 74.2529C159.906 77.6495 162.098 80.5809 165.24 82.2951C166.196 82.8176 168.662 83.5314 170.656 83.8627C172.568 84.1814 173.256 84.226 177.048 84.2642L180.598 84.3024V88.9416V93.5872H185.536H190.475V76.0627V58.5383H185.536H180.598V67.5554V76.5725H177.322C173.218 76.5725 172.683 76.5088 171.389 75.8716C170.625 75.4892 170.134 75.075 169.713 74.4505C169.14 73.5902 168.898 72.5451 168.955 71.1877C169.012 69.8049 169.363 68.8618 170.128 68.0333C170.561 67.5681 171.115 67.1794 171.714 66.9309C172.727 66.5039 173.524 66.3828 175.519 66.3319L177.093 66.2936V62.4191V58.5383L175.327 58.551C174.352 58.5574 173.397 58.5701 173.205 58.5829Z" fill="white"/>
<path d="M57.7988 81.7343V93.5872H62.7375H67.6763V81.7343V69.8814H62.7375H57.7988V81.7343Z" fill="white"/>
<path d="M161.123 89.3304C159.657 91.4715 158.402 93.3005 158.338 93.4024L158.217 93.5872H163.506H168.796L170.778 90.6877C171.867 89.0946 172.779 87.75 172.798 87.7054C172.823 87.6353 172.708 87.6098 172.288 87.5715C171.052 87.4823 169.165 87.1446 167.502 86.7304C166.4 86.45 164.666 85.8828 164.169 85.6279L163.793 85.4367L161.123 89.3304Z" fill="white"/>
<path d="M50.3429 101.598C48.8198 101.648 46.9973 101.897 45.6845 102.222C39.1081 103.86 34.0929 108.582 32.3978 114.738C31.6204 117.554 31.5311 120.906 32.1556 123.882C32.7037 126.47 34.0738 129.261 35.839 131.351C38.4199 134.416 42.3007 136.685 46.411 137.52C50.7443 138.405 55.3772 138.055 59.1561 136.564C61.6159 135.595 63.6296 134.282 65.4522 132.46C68.2561 129.669 69.811 126.578 70.4227 122.614C70.6075 121.416 70.6522 119.052 70.5183 117.752C70.1997 114.77 69.3075 112.233 67.7399 109.888C66.9816 108.748 66.459 108.11 65.5095 107.161C62.5973 104.236 58.8693 102.432 54.4595 101.801C53.6693 101.693 51.3943 101.534 50.9801 101.566C50.8909 101.572 50.6041 101.585 50.3429 101.598ZM53.1086 109.965C54.9566 110.328 56.4987 111.15 57.7987 112.45C59.1306 113.775 59.9718 115.369 60.386 117.319C60.5835 118.274 60.6664 120.186 60.5453 121.244C60.284 123.519 59.4174 125.444 57.9708 126.96C56.6772 128.311 55.084 129.191 53.1914 129.605C52.3184 129.796 50.1772 129.815 49.3041 129.637C45.7164 128.917 43.0336 126.355 42.0968 122.773C41.7463 121.454 41.6444 119.613 41.8355 118.166C42.4282 113.622 45.6272 110.372 50.0242 109.837C50.7443 109.754 52.3693 109.818 53.1086 109.965Z" fill="white"/>
<path d="M0 112.272V122.296L0.159313 122.136C0.242156 122.047 2.44706 119.67 5.0598 116.847L9.80734 111.717L9.79459 107.001L9.78185 102.286L4.89411 102.267L0 102.254V112.272Z" fill="white"/>
<path d="M23.2725 102.362C23.1132 102.509 10.9544 115.572 4.7348 122.289L0.00637254 127.394V132.345L0 137.303H4.90686H9.81371V132.919V128.528L11.6426 126.578C12.6431 125.501 13.4843 124.621 13.5034 124.621C13.5225 124.621 15.7593 127.451 18.474 130.905C21.1887 134.352 23.4446 137.207 23.4828 137.239C23.5338 137.284 25.6112 137.296 29.2754 137.29L34.9852 137.271L27.472 127.527L19.9524 117.784L21.4372 116.184C27.147 110.003 34.2205 102.318 34.2205 102.286C34.2205 102.267 31.7862 102.254 28.8103 102.254C23.7505 102.254 23.3936 102.26 23.2725 102.362Z" fill="white"/>
<path d="M76.961 119.683C72.7297 129.267 69.2503 137.156 69.2311 137.207C69.1993 137.29 69.7983 137.303 74.2463 137.303H79.3061L86.3032 119.823C90.1458 110.213 93.2938 102.33 93.2938 102.298C93.2938 102.273 91.3502 102.254 88.9733 102.254H84.6527L76.961 119.683Z" fill="white"/>
<path d="M113.54 102.298C113.514 102.318 113.495 110.207 113.495 119.823V137.303H118.466H123.436L123.424 119.791L123.404 102.286L118.491 102.267C115.789 102.26 113.559 102.273 113.54 102.298Z" fill="white"/>
<path d="M147.27 119.778V137.303H152.208H157.147V119.778V102.254H152.208H147.27V119.778Z" fill="white"/>
<path d="M164.074 102.298C164.048 102.318 164.029 102.764 164.029 103.286V104.236L173.097 119.052L182.159 133.862H184.517L186.875 133.855L191.285 126.642C193.713 122.671 197.778 116.031 200.321 111.883L204.941 104.331V103.293V102.254H200.894H196.848L196.695 102.49C196.606 102.623 193.84 107.161 190.552 112.565C187.264 117.975 184.549 122.41 184.517 122.41C184.492 122.417 181.713 117.892 178.342 112.354L172.218 102.286L168.165 102.267C165.941 102.26 164.093 102.273 164.074 102.298Z" fill="white"/>
<path d="M222.841 102.681C222.739 102.923 219.26 110.799 215.111 120.193L207.573 137.271L212.55 137.29C215.284 137.296 217.539 137.284 217.565 137.258C217.616 137.207 231.502 102.585 231.559 102.362C231.591 102.26 231.361 102.254 227.315 102.254H223.033L222.841 102.681Z" fill="white"/>
<path d="M231.877 110.908C230.66 113.947 229.666 116.471 229.666 116.516C229.666 116.56 230.252 118.064 230.972 119.848C231.692 121.639 232.279 123.13 232.279 123.162C232.279 123.194 231.195 123.22 229.615 123.22H226.951L225.53 126.769C224.746 128.725 224.096 130.363 224.077 130.401C224.052 130.465 225.205 130.484 229.64 130.497L235.235 130.516L236.605 133.906L237.982 137.303H243.125H248.267L248.178 137.093C247.796 136.194 234.171 105.459 234.139 105.427C234.114 105.408 233.101 107.874 231.877 110.908Z" fill="white"/>
<path d="M95.7346 105.606C95.6963 105.67 94.6895 108.187 93.4914 111.188L91.3057 116.649L95.4478 126.96L99.59 137.271L104.726 137.29C107.549 137.296 109.862 137.29 109.862 137.265C109.862 137.233 95.9321 105.746 95.8429 105.574C95.8047 105.504 95.7856 105.51 95.7346 105.606Z" fill="white"/>
<path d="M164.029 124.131V137.303H168.618H173.206V131.58V125.864L168.681 118.478C166.196 114.413 164.131 111.061 164.093 111.022C164.048 110.978 164.029 114.993 164.029 124.131Z" fill="white"/>
<path d="M200.359 118.453L195.828 125.864V131.58V137.303H200.384H204.941V124.175C204.941 116.955 204.928 111.048 204.915 111.048C204.903 111.048 202.857 114.381 200.359 118.453Z" fill="white"/>
<path d="M126.877 115.413V119.269H128.426C130.65 119.269 131.549 119.428 132.708 120.021C133.505 120.428 134.155 121.078 134.512 121.824C134.939 122.703 134.996 123.022 135.002 124.335C135.002 125.641 134.907 126.113 134.474 126.947C134.18 127.521 133.384 128.337 132.804 128.655C131.74 129.242 130.663 129.458 128.458 129.509L126.877 129.547V133.435V137.322L129.063 137.284C130.459 137.258 131.529 137.214 132.039 137.15C136.341 136.602 139.508 135.257 141.757 133.001C143.236 131.523 144.109 129.974 144.631 127.897C145.141 125.877 145.179 123.239 144.727 121.18C143.777 116.847 140.744 113.858 135.844 112.418C133.741 111.806 131.682 111.558 128.585 111.558H126.877V115.413Z" fill="white"/>
</svg>
