<svg width="287" height="168" viewBox="0 0 287 168" fill="none" xmlns="http://www.w3.org/2000/svg">
<g clip-path="url(#clip0_20_274)">
<path d="M266.537 57.4289C264.012 60.7179 262.003 62.6341 258.788 64.7219C246.476 72.7871 229.859 78.5071 212.954 80.5091C207.444 81.1383 197.915 81.3671 192.577 80.9667C182.905 80.2517 171.138 78.5929 155.411 75.7615C118.933 69.2121 111.615 68.2397 98.7282 68.2397C87.6213 68.2397 80.7046 69.0977 70.1143 71.7861C58.3473 74.7891 48.3597 78.9075 36.4492 85.6571C29.9917 89.3179 16.6175 95.8101 11.6524 97.6405C7.20392 99.2993 6.40032 99.7283 6.83082 100.157C7.17522 100.501 10.734 99.8999 20.2337 97.9551C35.6743 94.7805 40.7829 94.2085 52.2055 94.4659C65.1205 94.7233 77.605 96.8683 89.4581 100.815C95.4851 102.817 99.417 104.562 112.791 111.283C129.179 119.462 134.948 121.779 142.955 123.381C148.724 124.525 151.852 124.811 158.998 124.811C166.116 124.782 169.502 124.525 177.567 123.381C189.506 121.693 195.16 120.006 195.16 118.118C195.16 116.831 194.644 116.717 188.617 116.745C182.389 116.774 179.404 116.431 173.377 114.972C166.833 113.371 155.956 109.338 135.608 100.958C109.06 90.0043 98.2116 87.0585 80.7907 86.0575C69.9134 85.4569 55.7643 86.5437 43.4807 88.9461C38.3721 89.9471 38.2286 89.9757 39.8932 89.2035C47.5561 85.6857 57.3428 83.0259 68.0192 81.5959C73.3861 80.8809 86.1576 80.8809 91.1227 81.5959C104.296 83.5121 112.131 85.7143 136.584 94.4373C144.074 97.0971 152.742 100.043 155.813 100.987C178.6 107.994 201.072 111.34 221.564 110.825C234.393 110.511 239.243 109.71 241.138 107.622C241.626 107.079 241.626 107.05 240.851 106.335C239.875 105.448 238.555 104.533 236.66 103.475L235.197 102.617L238.928 102.874C245.701 103.303 251.642 103.16 253.364 102.56C258.3 100.872 264.672 94.2657 268.173 87.2873C269.522 84.5989 271.014 80.1945 271.847 76.3621C272.392 73.8453 272.478 72.4725 272.507 67.9251C272.507 63.0059 272.449 62.2909 271.847 60.3461C270.957 57.5719 269.407 54.6261 268.833 54.6261C268.718 54.6261 267.685 55.8845 266.537 57.4289Z" fill="white"/>
<path d="M144.62 12.87C142.123 13.6136 138.162 16.445 136.153 18.876C133.054 22.6226 130.413 24.882 129.122 24.882C128.691 24.882 127.457 24.3672 126.366 23.7666C124.157 22.4796 122.119 21.8504 121.086 22.1078C120.225 22.3366 117.211 24.5674 113.652 27.6276C112.16 28.9146 107.711 33.2618 103.78 37.2944L96.6619 44.5874L95.7435 44.1012C94.9112 43.6436 94.8825 43.615 95.5139 43.5292C96.5471 43.3576 96.174 42.5854 94.4807 41.47C93.6197 40.9266 92.8161 40.2402 92.6726 39.9542C92.3282 39.3536 92.443 39.3536 93.7632 39.897C95.2269 40.5262 95.3991 40.4404 94.7103 39.468L94.1076 38.61H94.8251C95.2269 38.61 95.5713 38.4956 95.5713 38.3812C95.5713 37.9236 93.5336 35.7786 92.5291 35.1494C91.8403 34.749 91.6107 34.463 91.8403 34.32C92.0412 34.2056 92.0986 33.8624 91.9838 33.4906C91.8116 32.9472 91.8977 32.89 92.9596 32.89C93.6197 32.89 94.1363 32.8042 94.1363 32.6898C94.1363 32.604 93.2753 31.603 92.2134 30.5162C90.8358 29.1148 90.4053 28.4856 90.6636 28.314C91.1802 28.028 90.6636 26.455 89.5156 24.9106C88.6259 23.6522 88.1093 23.4234 88.1093 24.2242C88.1093 25.1966 87.5353 26.8268 86.8178 27.8564C86.0142 29.029 85.9281 29.2864 86.4734 29.0004C86.6456 28.886 85.8707 29.7726 84.7514 30.9166C83.6034 32.0892 82.6563 33.1474 82.6563 33.2618C82.6563 33.3762 82.8859 33.462 83.1729 33.462C84.12 33.462 84.0913 33.8052 83.1442 34.8634C82.6276 35.4354 81.7666 36.5508 81.2213 37.2944L80.2742 38.6958L81.0491 38.4956C81.537 38.3812 81.7953 38.4384 81.7953 38.6386C81.7953 38.8388 82.0823 38.896 82.4841 38.8388C83.1729 38.6958 83.1729 38.7244 82.7424 39.3822C82.4554 39.8112 82.4267 40.04 82.6276 40.04C83.1155 40.04 81.9388 41.5272 80.9343 42.185C80.4464 42.4996 80.1307 42.9 80.2168 43.1002C80.2742 43.3004 80.2168 43.5292 80.0733 43.615C79.4993 43.9582 79.7863 44.616 80.5038 44.616C80.9056 44.616 81.2213 44.759 81.2213 44.9306C81.2213 45.1308 81.5944 45.2166 82.1971 45.1308L83.2016 45.0164L82.0249 46.046C81.3648 46.5894 80.676 47.1614 80.4464 47.2758C80.0159 47.5332 79.9298 48.62 80.3603 48.62C80.5612 48.62 80.5612 48.7916 80.3603 49.1634C79.9011 50.0786 80.0159 50.4218 80.7621 50.2788L81.4509 50.1358L80.9056 51.3942C80.2168 52.9958 80.2168 52.9958 81.1065 52.7956C81.7666 52.624 81.7953 52.6526 81.5083 53.196C81.1065 53.9396 80.963 53.911 79.9298 53.053C79.4132 52.624 79.2697 52.4238 79.6141 52.5382C80.1307 52.7098 80.1307 52.6812 79.6715 51.9948C79.2984 51.4228 79.2697 51.2226 79.5567 51.1082C79.815 51.0224 79.6715 50.7078 79.0975 50.0786L78.2365 49.192H79.0114C79.7289 49.192 79.7576 49.1348 79.4706 48.4198C79.2697 47.905 79.2984 47.619 79.4993 47.476C79.6715 47.3616 79.4993 46.9326 79.0401 46.3034L78.3226 45.331L79.2123 45.188L80.1307 45.045L78.8392 43.615C77.9208 42.614 77.6338 42.1278 77.8634 41.9562C78.1217 41.7846 78.1217 41.6702 77.8347 41.5558C77.6338 41.47 77.2033 40.9266 76.9163 40.2974C76.6006 39.6968 76.2275 39.182 76.1127 39.182C75.9692 39.182 75.5674 39.897 75.1943 40.7836C74.8499 41.6702 74.1611 42.7284 73.7306 43.1288C72.8122 43.9296 72.64 44.4158 73.3862 44.1298C73.7019 44.0154 73.788 44.044 73.6445 44.2728C73.5297 44.5016 73.6445 44.616 73.9602 44.616C74.3333 44.6446 74.1611 44.9306 73.2714 45.7314C72.5826 46.332 72.0373 46.9326 72.0373 47.0756C72.0373 47.19 71.6929 47.6762 71.2624 48.1338L70.4588 48.9918L71.2624 48.8488C71.8651 48.7344 72.0373 48.7916 71.9225 49.0776C71.8364 49.335 72.0947 49.478 72.6974 49.5352L73.6158 49.621L72.6974 50.1644C72.1808 50.479 71.8364 50.8222 71.9225 50.9366C71.9799 51.0796 71.6355 51.4514 71.1476 51.8232L70.2579 52.481L71.3485 52.624L72.4104 52.767L70.8893 54.4258L69.3682 56.0846L70.4014 55.9988C71.8651 55.913 71.9512 56.1704 70.7745 57.057C69.77 57.8006 68.4498 59.7168 68.7081 59.9742C68.7942 60.06 69.2534 59.9742 69.7413 59.8312L70.631 59.5166L69.9996 60.2888C69.483 60.9466 69.4543 61.061 69.8561 61.1468C70.1144 61.204 70.3153 61.4328 70.3153 61.633C70.3153 61.8332 70.4875 62.062 70.6884 62.1478C70.918 62.2336 70.7745 62.5482 70.2579 63.1202C69.7987 63.5778 69.4543 64.0354 69.4543 64.1498C69.4543 64.2642 69.9996 64.35 70.6884 64.35L71.8938 64.3786L70.9754 65.1508C70.4875 65.5798 69.483 66.4092 68.7655 67.0098C68.048 67.6104 67.4453 68.2396 67.4453 68.3826C67.4453 69.784 78.0356 65.8372 85.0958 61.776C91.4098 58.1724 95.7435 54.9692 102.746 48.763C105.186 46.5894 108.486 43.7866 110.065 42.5282C111.643 41.2412 113.997 39.2392 115.288 38.038C116.58 36.8654 118.072 35.6356 118.56 35.3496L119.478 34.8062L119.278 35.7786C118.704 38.8388 115.432 43.186 108.63 49.907C105.502 53.0244 103.78 54.9406 103.349 55.8558C102.976 56.628 102.746 57.2858 102.804 57.3716C103.005 57.5432 109.692 54.769 112.562 53.2818C120.655 49.1348 124.731 45.331 134.001 33.319C137.961 28.1996 140.028 26.169 140.659 26.7982C140.803 26.9412 141.147 27.7706 141.434 28.6286C141.864 30.0014 142.065 30.2302 143.156 30.745C144.304 31.2598 144.39 31.3742 144.247 32.175C144.046 33.1474 138.994 40.8408 135.837 44.9592C133.369 48.1624 131.705 49.764 130.815 49.764C130.327 49.764 130.27 49.8498 130.528 50.1072C130.786 50.3646 131.303 50.3646 132.767 50.0786C135.005 49.6782 136.698 48.8774 140.056 46.618C142.467 44.9878 146.284 42.614 146.485 42.614C146.514 42.614 146.456 43.2146 146.342 43.9582C146.227 44.7304 146.112 46.1318 146.112 47.0756C146.083 48.8202 146.083 48.8488 146.944 49.0204C148.121 49.2492 149.613 48.6772 151.622 47.2472C152.541 46.618 153.66 45.9888 154.119 45.903C156.014 45.474 157.649 47.4474 157.649 50.193C157.649 52.052 155.813 57.6004 154.693 59.1448C154.263 59.774 153.488 60.5748 152.971 60.918C151.622 61.8618 152.254 62.205 154.378 61.6616C157.162 60.9466 162.213 58.1438 165.829 55.2552C167.551 53.8538 173.951 48.3912 177.022 45.6742C177.883 44.902 178.629 44.33 178.687 44.3872C178.83 44.5588 177.481 50.05 176.735 52.338C176.419 53.3676 175.386 55.6842 174.496 57.486C172.918 60.632 171.913 63.3204 171.913 64.3786C171.913 65.208 172.774 65.8372 173.664 65.6656C174.123 65.5798 175.96 64.779 177.768 63.8924C181.04 62.2908 181.069 62.2622 181.844 62.777L182.618 63.2632L182.389 65.7514C182.245 67.0956 182.131 68.9546 182.131 69.8984C182.102 71.3856 182.188 71.643 182.819 72.1006C183.939 72.93 188.588 73.502 194.156 73.502C199.408 73.502 202.163 73.2732 207.788 72.3294C217.259 70.7564 233.618 65.6942 233.618 64.35C233.618 63.9496 233.274 63.8066 231.982 63.635C229.514 63.349 226.386 62.5196 219.986 60.489C213.413 58.4012 210.343 56.9712 206.066 54.1112C201.503 51.051 198.719 48.477 192.864 41.899C187.297 35.6356 184.025 32.5468 181.04 30.8022C178.744 29.458 177.596 29.4294 175.07 30.6592C174.037 31.174 173.119 31.6316 172.975 31.6888C172.86 31.746 171.11 30.2016 169.101 28.2568C167.092 26.3406 163.906 23.6236 162.012 22.2794C160.118 20.9066 157.075 18.5614 155.267 17.0456C151.192 13.6422 149.212 12.584 146.973 12.6126C146.083 12.6126 145.021 12.727 144.62 12.87Z" fill="white"/>
<path d="M14.92 151.2C14.92 153.568 15.448 155.648 16.504 157.44C17.592 159.232 19 160.624 20.728 161.616C22.488 162.576 24.392 163.056 26.44 163.056C28.04 163.056 29.48 162.848 30.76 162.432C32.04 162.016 33.192 161.456 34.216 160.752C35.272 160.016 36.184 159.2 36.952 158.304V165.024C35.544 166.176 34.024 167.056 32.392 167.664C30.76 168.272 28.712 168.576 26.248 168.576C23.784 168.576 21.48 168.16 19.336 167.328C17.224 166.496 15.384 165.296 13.816 163.728C12.248 162.16 11.016 160.32 10.12 158.208C9.256 156.064 8.824 153.728 8.824 151.2C8.824 148.672 9.256 146.352 10.12 144.24C11.016 142.096 12.248 140.24 13.816 138.672C15.384 137.104 17.224 135.904 19.336 135.072C21.48 134.24 23.784 133.824 26.248 133.824C28.712 133.824 30.76 134.128 32.392 134.736C34.024 135.344 35.544 136.224 36.952 137.376V144.096C36.184 143.2 35.272 142.4 34.216 141.696C33.192 140.96 32.04 140.384 30.76 139.968C29.48 139.552 28.04 139.344 26.44 139.344C24.392 139.344 22.488 139.84 20.728 140.832C19 141.792 17.592 143.168 16.504 144.96C15.448 146.72 14.92 148.8 14.92 151.2ZM46.1875 152.592V147.36H70.1395V152.592H46.1875ZM66.4915 134.4H72.1555V168H66.4915V134.4ZM43.9315 134.4H49.5955V168H43.9315V134.4ZM83.7303 151.2C83.7303 153.504 84.2103 155.568 85.1703 157.392C86.1623 159.184 87.5223 160.592 89.2503 161.616C90.9783 162.64 92.9463 163.152 95.1543 163.152C97.3943 163.152 99.3623 162.64 101.058 161.616C102.786 160.592 104.13 159.184 105.09 157.392C106.082 155.568 106.578 153.504 106.578 151.2C106.578 148.896 106.098 146.848 105.138 145.056C104.178 143.232 102.834 141.808 101.106 140.784C99.4103 139.76 97.4263 139.248 95.1543 139.248C92.9463 139.248 90.9783 139.76 89.2503 140.784C87.5223 141.808 86.1623 143.232 85.1703 145.056C84.2103 146.848 83.7303 148.896 83.7303 151.2ZM77.7303 151.2C77.7303 148.672 78.1623 146.352 79.0263 144.24C79.8903 142.128 81.1063 140.304 82.6743 138.768C84.2743 137.2 86.1303 135.984 88.2422 135.12C90.3863 134.256 92.6903 133.824 95.1543 133.824C97.6823 133.824 100.002 134.256 102.114 135.12C104.226 135.984 106.066 137.2 107.634 138.768C109.234 140.304 110.466 142.128 111.33 144.24C112.194 146.352 112.626 148.672 112.626 151.2C112.626 153.696 112.194 156.016 111.33 158.16C110.466 160.304 109.25 162.16 107.682 163.728C106.114 165.296 104.258 166.528 102.114 167.424C100.002 168.288 97.6823 168.72 95.1543 168.72C92.6583 168.72 90.3383 168.288 88.1943 167.424C86.0503 166.528 84.1943 165.296 82.6263 163.728C81.0903 162.16 79.8903 160.304 79.0263 158.16C78.1623 156.016 77.7303 153.696 77.7303 151.2ZM141.258 134.4L125.466 168H119.418L123.834 157.968L112.745 134.4H119.418L128.394 155.952L125.466 155.808L135.162 134.4H141.258ZM143.368 139.632V134.4H166.792V139.632H157.912V168H152.2V139.632H143.368ZM196.945 134.4L181.153 168H175.105L179.521 157.968L168.433 134.4H175.105L184.081 155.952L181.153 155.808L190.849 134.4H196.945ZM200.494 134.4H206.158V168H200.494V134.4ZM203.854 139.392V134.4H210.622C213.054 134.4 215.166 134.832 216.958 135.696C218.782 136.528 220.19 137.728 221.182 139.296C222.174 140.832 222.67 142.672 222.67 144.816C222.67 146.96 222.174 148.816 221.182 150.384C220.19 151.952 218.782 153.168 216.958 154.032C215.166 154.864 213.054 155.28 210.622 155.28H203.854V150.288H210.622C212.574 150.288 214.142 149.824 215.326 148.896C216.51 147.968 217.102 146.608 217.102 144.816C217.102 143.024 216.51 141.68 215.326 140.784C214.142 139.856 212.574 139.392 210.622 139.392H203.854ZM254.5 134.4H260.26V168H254.5V134.4ZM228.244 134.4H233.908V168H228.244V134.4ZM231.604 152.112V147.12H238.372C240.804 147.12 242.916 147.552 244.708 148.416C246.532 149.248 247.94 150.448 248.932 152.016C249.924 153.552 250.42 155.408 250.42 157.584C250.42 159.696 249.924 161.536 248.932 163.104C247.94 164.672 246.532 165.888 244.708 166.752C242.916 167.584 240.804 168 238.372 168H231.604V163.008H238.372C239.652 163.008 240.772 162.816 241.732 162.432C242.724 162.016 243.492 161.408 244.036 160.608C244.58 159.776 244.852 158.768 244.852 157.584C244.852 156.368 244.58 155.36 244.036 154.56C243.492 153.728 242.724 153.12 241.732 152.736C240.772 152.32 239.652 152.112 238.372 152.112H231.604Z" fill="white"/>
</g>
<defs>
<clipPath id="clip0_20_274">
<rect width="287" height="168" fill="white"/>
</clipPath>
</defs>
</svg>
