<svg width="287" height="168" viewBox="0 0 287 168" fill="none" xmlns="http://www.w3.org/2000/svg">
<mask id="mask0_272_230" style="mask-type:luminance" maskUnits="userSpaceOnUse" x="25" y="15" width="237" height="138">
<path d="M261.375 15H25.625V153H261.375V15Z" fill="white"/>
</mask>
<g mask="url(#mask0_272_230)">
<path d="M244.566 62.1737C242.492 64.8754 240.842 66.4494 238.201 68.1644C228.087 74.7894 214.438 79.488 200.551 81.1325C196.025 81.6493 188.198 81.8372 183.813 81.5083C175.868 80.921 166.202 79.5584 153.284 77.2326C123.32 71.8528 117.309 71.054 106.723 71.054C97.5995 71.054 91.9179 71.7588 83.2188 73.9671C73.553 76.4339 65.3489 79.8169 55.5653 85.3612C50.2609 88.3683 39.2749 93.7011 35.1965 95.2047C31.5424 96.5673 30.8823 96.9197 31.2359 97.2718C31.5188 97.5544 34.4421 97.0606 42.2454 95.4631C54.9287 92.8554 59.1251 92.3855 68.5079 92.597C79.1167 92.8084 89.3718 94.5704 99.1083 97.8123C104.059 99.4568 107.289 100.89 118.275 106.411C131.736 113.129 136.475 115.033 143.052 116.349C147.791 117.288 150.36 117.523 156.23 117.523C162.077 117.499 164.859 117.288 171.483 116.349C181.29 114.962 185.935 113.576 185.935 112.025C185.935 110.968 185.511 110.875 180.56 110.898C175.444 110.921 172.992 110.64 168.042 109.441C162.666 108.126 153.732 104.813 137.017 97.9298C115.21 88.9321 106.299 86.5123 91.9886 85.6901C83.0537 85.1967 71.4312 86.0895 61.3411 88.0629C57.1448 88.8851 57.0269 88.9086 58.3943 88.2743C64.6888 85.3847 72.7279 83.1998 81.4978 82.0252C85.9063 81.4379 96.3972 81.4379 100.476 82.0252C111.297 83.5992 117.732 85.4082 137.819 92.5735C143.971 94.7583 151.092 97.1782 153.614 97.9536C172.332 103.709 190.791 106.458 207.624 106.035C218.162 105.777 222.146 105.119 223.702 103.404C224.103 102.958 224.103 102.934 223.467 102.347C222.665 101.618 221.581 100.866 220.024 99.9973L218.822 99.2925L221.887 99.5036C227.451 99.856 232.331 99.7386 233.745 99.2457C237.8 97.8591 243.034 92.4325 245.91 86.7003C247.018 84.4919 248.243 80.874 248.928 77.726C249.375 75.6586 249.446 74.531 249.47 70.7956C249.47 66.7548 249.422 66.1675 248.928 64.57C248.197 62.2912 246.923 59.8714 246.452 59.8714C246.358 59.8714 245.509 60.9051 244.566 62.1737Z" fill="white"/>
<path d="M144.42 25.5718C142.369 26.1826 139.116 28.5084 137.465 30.5053C134.92 33.5829 132.75 35.4388 131.69 35.4388C131.336 35.4388 130.322 35.0159 129.426 34.5226C127.611 33.4654 125.937 32.9485 125.089 33.16C124.382 33.3479 121.906 35.1804 118.982 37.6941C117.757 38.7513 114.102 42.3222 110.873 45.6347L105.026 51.6254L104.272 51.226C103.588 50.8501 103.565 50.8266 104.083 50.7561C104.932 50.6152 104.625 49.9809 103.235 49.0646C102.527 48.6183 101.867 48.0545 101.749 47.8195C101.466 47.3262 101.561 47.3262 102.645 47.7725C103.847 48.2894 103.989 48.2189 103.423 47.4201L102.928 46.7154H103.517C103.847 46.7154 104.13 46.6214 104.13 46.5274C104.13 46.1515 102.457 44.3896 101.631 43.8727C101.066 43.5438 100.877 43.3089 101.066 43.1914C101.231 43.0975 101.278 42.8155 101.183 42.5101C101.042 42.0638 101.113 42.0168 101.985 42.0168C102.527 42.0168 102.952 41.9463 102.952 41.8523C102.952 41.7819 102.244 40.9596 101.372 40.0669C100.24 38.9157 99.8869 38.3989 100.099 38.2579C100.523 38.023 100.099 36.7309 99.156 35.4623C98.4252 34.4286 98.0009 34.2407 98.0009 34.8985C98.0009 35.6972 97.5294 37.0363 96.94 37.882C96.2799 38.8453 96.2092 39.0567 96.6571 38.8218C96.7985 38.7278 96.162 39.4561 95.2426 40.3958C94.2996 41.359 93.5216 42.2282 93.5216 42.3222C93.5216 42.4162 93.7102 42.4866 93.946 42.4866C94.7239 42.4866 94.7004 42.7686 93.9224 43.6378C93.498 44.1077 92.7908 45.0239 92.3429 45.6347L91.5649 46.7858L92.2014 46.6214C92.6022 46.5274 92.8144 46.5744 92.8144 46.7389C92.8144 46.9033 93.0501 46.9503 93.3802 46.9033C93.946 46.7858 93.946 46.8093 93.5923 47.3497C93.3566 47.7021 93.333 47.89 93.498 47.89C93.8988 47.89 92.9322 49.1116 92.1071 49.652C91.7063 49.9104 91.447 50.2393 91.5177 50.4037C91.5649 50.5682 91.5177 50.7561 91.3999 50.8266C90.9284 51.1085 91.1641 51.6489 91.7535 51.6489C92.0835 51.6489 92.3429 51.7663 92.3429 51.9073C92.3429 52.0717 92.6493 52.1422 93.1444 52.0717L93.9695 51.9778L93.003 52.8235C92.4607 53.2699 91.8949 53.7397 91.7063 53.8337C91.3527 54.0451 91.282 54.9379 91.6356 54.9379C91.8006 54.9379 91.8006 55.0788 91.6356 55.3842C91.2584 56.136 91.3527 56.4179 91.9657 56.3005L92.5315 56.183L92.0835 57.2167C91.5177 58.5323 91.5177 58.5323 92.2486 58.3678C92.7908 58.2269 92.8144 58.2504 92.5786 58.6967C92.2486 59.3075 92.1307 59.284 91.282 58.5793C90.8576 58.2269 90.7398 58.0624 91.0227 58.1564C91.447 58.2973 91.447 58.2739 91.0698 57.71C90.7633 57.2402 90.7398 57.0757 90.9755 56.9817C91.1877 56.9113 91.0698 56.6528 90.5983 56.136L89.8911 55.4077H90.5276C91.117 55.4077 91.1405 55.3607 90.9048 54.7734C90.7398 54.3505 90.7633 54.1156 90.9284 53.9982C91.0698 53.9042 90.9284 53.5518 90.5512 53.0349L89.9618 52.2362L90.6926 52.1187L91.447 52.0013L90.3861 50.8266C89.6317 50.0044 89.396 49.605 89.5846 49.464C89.7968 49.3231 89.7968 49.2291 89.561 49.1351C89.396 49.0646 89.0424 48.6183 88.8066 48.1014C88.5473 47.6081 88.2408 47.1852 88.1465 47.1852C88.0286 47.1852 87.6986 47.7725 87.3921 48.5008C87.1092 49.2291 86.5434 50.0983 86.1898 50.4272C85.4354 51.085 85.2939 51.4844 85.9069 51.2495C86.1662 51.1555 86.2369 51.179 86.1191 51.3669C86.0248 51.5549 86.1191 51.6489 86.3784 51.6489C86.6849 51.6724 86.5434 51.9073 85.8126 52.5651C85.2468 53.0584 84.7989 53.5518 84.7989 53.6692C84.7989 53.7632 84.516 54.1626 84.1623 54.5385L83.5022 55.2433L84.1623 55.1258C84.6574 55.0318 84.7989 55.0788 84.7046 55.3137C84.6338 55.5252 84.846 55.6426 85.3411 55.6896L86.0955 55.7601L85.3411 56.2065C84.9167 56.4649 84.6338 56.7468 84.7046 56.8408C84.7517 56.9582 84.4688 57.2637 84.068 57.5691L83.3372 58.1094L84.2331 58.2269L85.1053 58.3443L83.8559 59.7069L82.6064 61.0695L83.4551 60.999C84.6574 60.9285 84.7281 61.14 83.7616 61.8683C82.9364 62.4791 81.852 64.0531 82.0642 64.2645C82.1349 64.335 82.5121 64.2645 82.9129 64.1471L83.6437 63.8886L83.125 64.5229C82.7007 65.0633 82.6771 65.1573 83.0072 65.2277C83.2193 65.2747 83.3844 65.4627 83.3844 65.6271C83.3844 65.7916 83.5258 65.9795 83.6908 66.05C83.8794 66.1205 83.7616 66.3789 83.3372 66.8487C82.96 67.2246 82.6771 67.6005 82.6771 67.6945C82.6771 67.7885 83.125 67.8589 83.6908 67.8589L84.681 67.8824L83.9266 68.5167C83.5258 68.8691 82.7007 69.5504 82.1113 70.0438C81.5219 70.5371 81.0269 71.054 81.0269 71.1714C81.0269 72.3226 89.726 69.0806 95.5255 65.7446C100.712 62.7845 104.272 60.1533 110.024 55.0553C112.028 53.2699 114.739 50.9676 116.036 49.9339C117.332 48.8767 119.266 47.2322 120.326 46.2455C121.388 45.2823 122.613 44.2721 123.014 44.0372L123.768 43.5908L123.604 44.3896C123.132 46.9033 120.445 50.4742 114.857 55.995C112.288 58.5558 110.873 60.1298 110.519 60.8816C110.213 61.5159 110.024 62.0562 110.072 62.1267C110.237 62.2676 115.729 59.9888 118.087 58.7672C124.735 55.3607 128.083 52.2362 135.698 42.3692C138.95 38.164 140.648 36.496 141.167 37.0128C141.285 37.1303 141.568 37.8116 141.803 38.5164C142.157 39.644 142.322 39.832 143.218 40.2548C144.161 40.6777 144.231 40.7717 144.114 41.4295C143.949 42.2282 139.799 48.5478 137.206 51.9308C135.178 54.562 133.812 55.8776 133.081 55.8776C132.68 55.8776 132.633 55.9481 132.845 56.1595C133.057 56.3709 133.481 56.3709 134.684 56.136C136.522 55.8071 137.913 55.1493 140.671 53.2934C142.652 51.9543 145.787 50.0044 145.952 50.0044C145.976 50.0044 145.928 50.4977 145.835 51.1085C145.74 51.7428 145.646 52.894 145.646 53.6692C145.622 55.1023 145.622 55.1258 146.329 55.2668C147.296 55.4547 148.522 54.9848 150.172 53.8102C150.927 53.2934 151.846 52.7765 152.223 52.706C153.78 52.3536 155.123 53.9747 155.123 56.23C155.123 57.757 153.615 62.3146 152.695 63.5832C152.341 64.1001 151.705 64.7579 151.28 65.0398C150.172 65.8151 150.691 66.097 152.436 65.6506C154.723 65.0633 158.872 62.761 161.842 60.3882C163.257 59.2371 168.514 54.7499 171.036 52.5181C171.744 51.8838 172.356 51.4139 172.404 51.4609C172.521 51.6019 171.413 56.1125 170.801 57.9919C170.541 58.8377 169.692 60.7406 168.961 62.2206C167.665 64.8049 166.84 67.0132 166.84 67.8824C166.84 68.5637 167.547 69.0806 168.278 68.9396C168.655 68.8691 170.164 68.2113 171.649 67.483C174.337 66.1674 174.361 66.144 174.997 66.5668L175.633 66.9662L175.445 69.0101C175.327 70.1143 175.233 71.6413 175.233 72.4165C175.209 73.6382 175.28 73.8496 175.798 74.2255C176.718 74.9068 180.537 75.3766 185.111 75.3766C189.425 75.3766 191.688 75.1887 196.308 74.4134C204.088 73.1213 217.526 68.9631 217.526 67.8589C217.526 67.53 217.243 67.4126 216.182 67.2716C214.155 67.0367 211.585 66.3554 206.328 64.6874C200.929 62.9724 198.407 61.7978 194.894 59.4485C191.146 56.9348 188.859 54.8204 184.049 49.417C179.476 44.2721 176.789 41.7349 174.337 40.3018C172.451 39.1976 171.508 39.1742 169.433 40.1843C168.584 40.6072 167.83 40.9831 167.712 41.0301C167.618 41.0771 166.18 39.8085 164.53 38.2109C162.879 36.6369 160.262 34.4051 158.707 33.3009C157.151 32.1733 154.651 30.2469 153.166 29.0017C149.819 26.2061 148.192 25.3369 146.353 25.3604C145.622 25.3604 144.75 25.4543 144.42 25.5718Z" fill="white"/>
<path d="M37.881 139.2C37.881 141.145 38.3147 142.854 39.1821 144.326C40.0758 145.798 41.2324 146.941 42.6518 147.756C44.0975 148.545 45.6615 148.939 47.3438 148.939C48.6581 148.939 49.841 148.768 50.8924 148.426C51.9438 148.085 52.8901 147.625 53.7312 147.046C54.5987 146.442 55.3478 145.771 55.9787 145.035V150.555C54.8221 151.502 53.5735 152.225 52.233 152.724C50.8924 153.223 49.2101 153.473 47.1861 153.473C45.1621 153.473 43.2695 153.131 41.5084 152.448C39.7735 151.765 38.2621 150.779 36.9741 149.491C35.6861 148.203 34.6741 146.691 33.9381 144.957C33.2284 143.195 32.8735 141.277 32.8735 139.2C32.8735 137.123 33.2284 135.218 33.9381 133.483C34.6741 131.722 35.6861 130.197 36.9741 128.909C38.2621 127.621 39.7735 126.635 41.5084 125.952C43.2695 125.269 45.1621 124.927 47.1861 124.927C49.2101 124.927 50.8924 125.177 52.233 125.676C53.5735 126.175 54.8221 126.898 55.9787 127.845V133.365C55.3478 132.629 54.5987 131.971 53.7312 131.393C52.8901 130.789 51.9438 130.315 50.8924 129.974C49.841 129.632 48.6581 129.461 47.3438 129.461C45.6615 129.461 44.0975 129.869 42.6518 130.683C41.2324 131.472 40.0758 132.602 39.1821 134.074C38.3147 135.52 37.881 137.229 37.881 139.2ZM63.565 140.343V136.046H83.2398V140.343H63.565ZM80.2433 125.4H84.8958V153H80.2433V125.4ZM61.7118 125.4H66.3644V153H61.7118V125.4ZM94.4037 139.2C94.4037 141.093 94.798 142.788 95.5866 144.286C96.4014 145.758 97.5186 146.915 98.938 147.756C100.357 148.597 101.974 149.018 103.788 149.018C105.628 149.018 107.244 148.597 108.637 147.756C110.057 146.915 111.161 145.758 111.949 144.286C112.764 142.788 113.171 141.093 113.171 139.2C113.171 137.307 112.777 135.625 111.989 134.153C111.2 132.655 110.096 131.485 108.677 130.644C107.284 129.803 105.654 129.382 103.788 129.382C101.974 129.382 100.357 129.803 98.938 130.644C97.5186 131.485 96.4014 132.655 95.5866 134.153C94.798 135.625 94.4037 137.307 94.4037 139.2ZM89.4751 139.2C89.4751 137.123 89.83 135.218 90.5397 133.483C91.2494 131.748 92.2483 130.25 93.5363 128.988C94.8506 127.7 96.3751 126.701 98.1099 125.991C99.8711 125.282 101.764 124.927 103.788 124.927C105.864 124.927 107.77 125.282 109.505 125.991C111.239 126.701 112.751 127.7 114.039 128.988C115.353 130.25 116.365 131.748 117.075 133.483C117.785 135.218 118.139 137.123 118.139 139.2C118.139 141.25 117.785 143.156 117.075 144.917C116.365 146.678 115.366 148.203 114.078 149.491C112.79 150.779 111.266 151.791 109.505 152.527C107.77 153.237 105.864 153.591 103.788 153.591C101.737 153.591 99.8317 153.237 98.0706 152.527C96.3094 151.791 94.7849 150.779 93.4969 149.491C92.2351 148.203 91.2494 146.678 90.5397 144.917C89.83 143.156 89.4751 141.25 89.4751 139.2ZM141.659 125.4L128.687 153H123.719L127.346 144.759L118.237 125.4H123.719L131.092 143.103L128.687 142.985L136.651 125.4H141.659ZM143.392 129.698V125.4H162.633V129.698H155.339V153H150.647V129.698H143.392ZM187.401 125.4L174.429 153H169.461L173.089 144.759L163.981 125.4H169.461L176.835 143.103L174.429 142.985L182.394 125.4H187.401ZM190.317 125.4H194.969V153H190.317V125.4ZM193.077 129.501V125.4H198.636C200.634 125.4 202.369 125.755 203.841 126.465C205.339 127.148 206.496 128.134 207.31 129.422C208.125 130.683 208.533 132.195 208.533 133.956C208.533 135.717 208.125 137.242 207.31 138.53C206.496 139.818 205.339 140.817 203.841 141.526C202.369 142.21 200.634 142.551 198.636 142.551H193.077V138.451H198.636C200.24 138.451 201.528 138.07 202.5 137.307C203.473 136.545 203.959 135.428 203.959 133.956C203.959 132.484 203.473 131.38 202.5 130.644C201.528 129.882 200.24 129.501 198.636 129.501H193.077ZM234.679 125.4H239.41V153H234.679V125.4ZM213.111 125.4H217.764V153H213.111V125.4ZM215.871 139.949V135.849H221.431C223.429 135.849 225.163 136.203 226.635 136.913C228.134 137.597 229.29 138.582 230.105 139.87C230.92 141.132 231.327 142.657 231.327 144.444C231.327 146.179 230.92 147.69 230.105 148.978C229.29 150.266 228.134 151.265 226.635 151.975C225.163 152.658 223.429 153 221.431 153H215.871V148.899H221.431C222.482 148.899 223.402 148.742 224.191 148.426C225.006 148.085 225.637 147.585 226.083 146.928C226.53 146.245 226.754 145.417 226.754 144.444C226.754 143.445 226.53 142.617 226.083 141.96C225.637 141.277 225.006 140.777 224.191 140.462C223.402 140.12 222.482 139.949 221.431 139.949H215.871Z" fill="white"/>
</g>
</svg>
