<svg width="332" height="168" viewBox="0 0 332 168" fill="none" xmlns="http://www.w3.org/2000/svg">
<g clip-path="url(#clip0_20_37)">
<path d="M91.2229 118.588C92.9132 116.593 94.2629 114.41 95.0453 111.912C95.9924 108.89 96.6355 105.831 96.2519 102.617C96.0822 101.193 95.8088 99.7965 95.372 98.4499C94.4604 95.6451 92.8651 93.1962 90.9254 91.0122C88.7565 88.5709 86.1686 86.6643 83.1907 85.234C80.1862 83.7898 76.3043 82.8447 71.3855 82.8447C69.3369 82.8447 67.2959 83.1336 65.2891 83.6441C62.6506 84.3143 60.0728 85.1149 57.7748 86.6656C55.2742 88.353 53.1965 90.4446 51.4315 92.8744C48.9246 96.3241 47.7763 100.245 47.4534 104.435C47.3192 106.185 47.5471 107.922 47.8535 109.663C48.3321 112.375 49.2753 114.885 50.7592 117.182C51.9051 118.955 53.2661 120.545 54.8766 121.946C56.9201 123.724 59.2156 125.022 61.739 125.913C64.4396 126.865 67.2491 127.113 70.1118 127.113C78.3276 127.113 82.5538 125.002 84.4657 124.015C87.0853 122.663 89.3174 120.838 91.2229 118.588ZM78.2491 124.683C76.9766 125.164 75.5725 125.244 74.195 125.36C71.64 125.577 69.1799 125.217 66.7515 124.471C64.2522 123.705 62.1175 122.316 60.1272 120.659C56.3681 117.529 54.3993 113.328 53.1243 108.761C52.6318 106.999 52.3216 105.155 52.4545 103.671C52.4495 100.359 52.9002 97.5276 54.2929 94.9128C55.9604 91.7799 58.3129 89.3032 61.3743 87.4713C63.2798 86.3311 65.2967 85.4823 67.4415 84.9997C69.6395 84.5056 71.8729 84.5524 74.1 84.9654C77.2108 85.5431 80.0989 86.6871 82.526 88.7039C85.8964 91.5037 88.2602 95.0078 89.4782 99.2809C90.172 101.716 90.4886 104.175 90.2936 106.667C90.0036 110.368 89.1389 113.94 87.2397 117.187C85.1481 120.766 82.0905 123.231 78.2491 124.683Z" fill="white"/>
<path d="M45.5205 125.347C45.494 125.205 45.4205 125.088 45.2217 125.048C44.6178 124.93 43.458 124.886 42.0501 124.569C40.4915 124.134 39.0418 123.455 37.6339 122.673C35.6094 121.55 33.6963 120.248 32.0478 118.605C28.8965 115.463 25.8857 112.19 22.9774 108.821C21.4543 107.056 20.1059 105.197 19.074 103.105C18.5739 102.09 18.5283 101.19 19.2538 100.189C20.1666 98.9294 21.1441 97.7284 22.1848 96.587C24.636 93.9 27.0467 91.1636 29.8904 88.8706C31.4629 87.6012 33.1101 85.9707 35.1042 85.4311C35.8943 85.217 36.6945 85.0472 37.5124 84.9636C37.9251 84.9218 38.248 84.9459 38.2708 84.4683C38.2834 84.2174 37.3946 84.2466 37.2959 84.2466C32.6632 84.2466 28.0317 84.2453 23.399 84.2478C23.1863 84.2478 22.8635 84.1667 22.8204 84.4163C22.7786 84.6596 23.0711 84.7622 23.3015 84.8711C24.1144 85.2537 25.0108 85.2195 25.8591 85.4222C26.6871 85.6198 26.9923 86.1012 26.7644 86.9184C26.2934 88.6045 25.0931 89.8093 23.9814 91.0483C21.9873 93.2704 19.9324 95.438 17.9801 97.698C16.7519 99.1207 15.5517 100.571 14.2577 101.932C13.5968 102.626 12.9713 103.408 12.0331 103.794C11.8154 103.884 11.3317 104.093 11.3355 103.66C11.3393 103.07 11.3368 102.516 11.3456 101.922C11.3634 100.869 11.2583 99.8061 11.2557 98.7609C11.2481 95.9941 11.1583 93.2248 11.1937 90.458C11.214 89.1962 11.3178 87.9318 11.3152 86.6662C11.314 86.0784 11.4419 85.6553 12.2003 85.5273C13.5221 85.3056 13.322 85.3361 14.3919 85.0801C14.9781 84.9395 15.363 84.4847 15.363 84.4847C15.363 84.4847 15.3339 84.244 14.7578 84.2453C12.2003 84.2542 10.2859 84.2301 8.24239 84.2326C6.07354 84.2301 4.00218 84.2529 1.4459 84.2453C0.871086 84.2428 0.463397 84.5544 0 84.8154C0.610266 84.9509 1.21673 84.9788 1.81181 85.0814C3.11717 85.3069 3.11717 85.3069 4.43899 85.5286C5.19739 85.6566 5.32527 86.0784 5.324 86.6675C5.32147 87.7557 5.44808 89.7257 5.51519 90.5226C5.67598 92.1125 5.58229 93.715 5.70637 95.3088C5.86463 97.3395 5.7874 99.3868 5.85577 101.429C6.00644 105.929 5.76334 110.426 5.61268 114.925C5.53165 117.348 5.43922 120.812 5.14928 123.219C4.91885 125.134 2.6677 124.578 0.779925 125.095C0.421615 125.193 0.272214 125.307 0 125.689C0.0443139 125.707 0.0886279 125.739 0.135474 125.739C4.40987 125.732 16.5253 125.721 16.5253 125.721C16.5304 125.455 16.581 125.138 16.2164 125.067C15.6023 124.948 13.6626 124.914 13.0524 124.77C11.8154 124.477 11.2481 124.198 11.2266 122.964C11.1975 121.293 11.1747 119.624 11.076 117.954C10.9278 115.445 11.2494 112.941 11.2228 110.431C11.2127 109.476 11.3165 108.521 11.3444 107.564C11.3659 106.846 11.3482 106.126 11.3482 105.319C11.7748 105.498 12.0686 105.605 12.3459 105.744C12.5383 105.84 12.7105 105.977 12.8865 106.104C15.1541 107.748 17.0482 109.783 18.9347 111.835C20.3591 113.386 21.6353 115.057 23.0534 116.611C24.8259 118.554 26.4377 120.651 28.3635 122.45C30.412 124.363 32.7873 125.394 35.6588 125.583C37.7441 125.721 39.8319 125.725 41.9147 125.723C43.8227 125.722 43.0276 125.713 44.8748 125.721C45.0356 125.721 45.5307 125.721 45.5307 125.721C45.5307 125.721 45.5319 125.701 45.5332 125.623C45.5345 125.583 45.5357 125.541 45.5345 125.5C45.5345 125.478 45.5345 125.462 45.5345 125.436C45.5357 125.403 45.5294 125.374 45.5205 125.347Z" fill="white"/>
<path d="M277.923 124.842C276.856 124.678 275.959 124.673 274.327 124.262C273.212 123.982 271.994 123.032 271.006 120.093C270.71 118.798 270.448 117.496 270.204 116.186C269.726 113.626 269.377 111.048 268.939 108.483C268.536 106.125 268.316 103.734 268.011 101.36C267.66 98.6387 267.122 95.9428 266.712 93.2279C266.332 90.7195 266.089 87.1343 265.757 84.6196C265.71 84.2674 265.666 83.8886 265.313 83.7924C264.963 83.6973 264.667 83.9773 264.462 84.2497C263.56 85.4519 262.441 87.6271 261.681 88.932C259.394 92.8593 257.448 96.9664 255.326 100.981C254.148 103.208 253.063 105.485 251.875 107.707C250.041 111.14 248.166 114.55 246.282 117.957C245.93 118.594 245.454 119.162 244.986 119.831C244.788 119.532 244.653 119.335 244.524 119.134C243.223 117.096 242.249 114.881 241.164 112.731C239.055 108.553 237.131 104.281 234.983 100.125C233.418 97.0956 232.224 93.9221 230.909 90.7917C230.175 89.0473 229.679 87.2331 229.164 85.4241C228.983 84.7894 228.69 84.2459 227.999 84.2459C227.999 84.2459 225.485 84.2244 224.23 84.2712C223.287 84.3067 222.346 84.4473 221.405 84.5411C221.982 85.0199 222.603 85.1707 223.235 85.2949C223.806 85.4076 224.446 85.495 224.812 85.9523C226.119 87.5828 226.511 89.8327 226.586 91.847C226.619 92.73 226.31 93.6219 226.196 94.5138C225.787 97.7215 225.116 100.885 224.524 104.06C223.852 107.659 223.294 111.277 222.664 114.882C222.346 116.698 221.92 118.474 221.367 120.209C220.386 123.056 219.187 123.987 218.087 124.263C216.455 124.673 215.558 124.679 214.491 124.844C214.111 124.902 213.786 125.236 213.677 125.724H216.915H216.97H222.377V125.723H223.378V125.725H231.376C231.267 125.238 230.945 124.869 230.562 124.845C226.448 124.588 224.384 124.081 224.379 120.857C224.406 120.097 224.469 119.337 224.54 118.571C224.791 115.848 225.467 113.205 225.948 110.529C226.376 108.148 226.782 105.761 227.232 103.383C227.622 101.323 228.046 99.2683 228.708 97.273C228.783 97.0462 228.728 96.727 229.094 96.6674C229.506 96.6016 229.585 96.9322 229.698 97.1792C230.169 98.2143 230.607 99.2632 231.076 100.3C232.194 102.774 233.389 105.215 234.431 107.721C235.762 110.918 237.194 114.07 238.56 117.25C239.833 120.215 241.012 122.851 242.357 125.779C242.443 126.005 242.707 126.484 243.185 125.983C245.655 123.667 249.304 116.082 251.599 112.077C252.949 109.725 254.077 107.247 255.339 104.844C257.044 101.599 258.776 98.3701 260.509 95.1409C260.642 94.8926 260.755 94.624 261.009 94.4352C261.364 94.173 261.56 94.1781 261.673 94.6455C261.97 95.8833 262.1 97.1463 262.269 98.403C262.599 100.871 262.922 103.339 263.251 105.807C263.515 107.782 263.789 109.754 264.041 111.73C264.259 113.446 264.405 115.171 264.666 116.88C264.837 117.998 264.996 119.112 265.102 120.234C265.395 124.019 263.72 124.572 259.354 124.845C258.971 124.869 258.649 125.238 258.54 125.725H262.025C263.597 125.728 266.1 125.732 268.593 125.725C271.086 125.732 273.589 125.729 275.16 125.725H278.742C278.628 125.235 278.303 124.901 277.923 124.842Z" fill="white"/>
<path d="M331.686 125.05C331.072 124.931 329.886 124.888 328.447 124.558C327.314 124.33 326.501 124.09 325.762 123.308C324.238 121.693 323.417 119.662 322.457 117.722C320.761 114.292 319.182 110.806 317.475 107.382C315.837 104.097 308.654 88.3331 306.773 84.4805C306.627 84.1828 306.499 83.8256 306.097 83.7952C305.632 83.7597 305.467 84.1588 305.317 84.4704C303.83 87.5552 295.489 106.896 292.787 112.696C291.469 115.526 290.075 118.32 288.83 121.186C288.359 122.271 286.959 123.363 285.868 124.024C284.931 124.592 283.887 124.829 282.819 124.968C282.504 125.01 282.058 125.011 282.08 125.344C282.101 125.681 282.56 125.715 282.838 125.717C284.76 125.724 295.435 125.718 295.435 125.718C295.663 125.715 296.102 125.609 296.108 125.19C296.115 124.765 294.733 124.879 294.09 124.748C292.968 124.518 291.815 124.262 291.425 122.937C291.165 122.056 291.329 121.17 291.626 120.357C292.739 117.325 294.119 114.442 295.54 111.553C295.955 110.711 296.401 109.785 297.561 109.752C298.613 109.721 308.135 109.606 312.039 109.59C312.52 109.587 312.774 109.758 312.987 110.189C313.957 112.158 314.816 114.177 315.62 116.214C316.579 118.641 317.891 120.951 318.105 123.647C318.155 124.288 317.916 124.418 317.47 124.527C316.979 124.648 316.478 124.726 315.981 124.834C315.67 124.901 315.512 125.161 315.537 125.424C315.561 125.681 316.632 125.719 316.921 125.719C321.267 125.719 326.027 125.722 329.981 125.719C329.99 125.719 329.993 125.717 330.001 125.717L331.991 125.722C332 125.456 332.051 125.121 331.686 125.05ZM311.406 108.261C311.135 108.338 299.113 108.308 296.907 108.438C297.942 105.755 304.038 92.9432 304.296 92.3971C304.419 92.1374 304.793 92.1488 304.896 92.4174C305.58 94.1745 307.382 98.7732 308.406 101.119C309.36 103.302 310.384 105.455 311.382 107.617C311.479 107.827 311.655 108.19 311.406 108.261Z" fill="white"/>
<path d="M188.07 109.9C187.353 106.26 185.012 102.891 180.883 100.956C176.913 99.0934 171.284 98.5639 163.862 100.384C163.864 99.5748 163.865 98.9782 163.865 98.7603C163.858 95.9934 163.768 93.2241 163.803 90.4573C163.824 89.1955 163.927 87.9312 163.924 86.6656C163.922 86.0777 164.05 85.6546 164.809 85.5267C166.13 85.305 165.93 85.3354 167 85.0795C167.587 84.9388 167.971 84.4828 167.971 84.4828C167.971 84.4828 167.942 84.2421 167.366 84.2433C164.809 84.2522 162.894 84.2281 160.851 84.2307C158.682 84.2281 156.611 84.2509 154.054 84.2433C153.479 84.2408 153.072 84.5524 152.608 84.8134C153.219 84.949 153.825 84.9768 154.42 85.0795C155.726 85.305 155.726 85.305 157.047 85.5267C157.806 85.6546 157.934 86.0765 157.932 86.6656C157.93 87.7538 158.056 89.7238 158.124 90.5206C158.284 92.1105 158.191 93.7118 158.316 95.3068C158.474 97.3388 158.397 99.3848 158.465 101.427C158.616 105.927 158.373 110.424 158.222 114.923C158.141 117.346 158.049 120.81 157.759 123.217C157.529 125.132 155.277 124.576 153.39 125.093C153.031 125.192 152.882 125.305 152.61 125.687C152.654 125.705 152.698 125.737 152.745 125.737C157.02 125.73 169.135 125.719 169.135 125.719C169.135 125.719 169.135 125.718 169.135 125.716L170.125 125.711L171.486 125.704L172.847 125.696L174.208 125.689C179.326 125.615 183.15 123.487 185.515 120.468C187.881 117.449 188.788 113.539 188.07 109.9ZM182.305 114.607C182.185 115.94 181.886 117.215 181.407 118.378C180.929 119.539 180.27 120.589 179.431 121.474C178.592 122.357 177.571 123.074 176.368 123.57C175.165 124.067 173.78 124.342 172.212 124.342C171.418 124.342 170.483 124.289 169.526 124.104C168.569 123.92 167.592 123.605 166.712 123.083C165.833 122.561 165.053 121.831 164.492 120.816C164.121 120.144 163.849 119.343 163.706 118.398C163.698 118.25 163.693 118.101 163.684 117.953C163.536 115.445 163.858 112.94 163.831 110.431C163.825 109.803 163.843 105.418 163.854 102.185C163.862 102.155 163.868 102.125 163.878 102.098C163.92 101.989 163.979 101.907 164.064 101.882C164.091 101.874 164.116 101.867 164.143 101.86C164.169 101.854 164.196 101.848 164.222 101.841C164.249 101.835 164.276 101.83 164.302 101.824C164.329 101.817 164.355 101.812 164.382 101.806C166.869 101.227 169.298 101.008 171.527 101.189C173.756 101.369 175.785 101.948 177.47 102.964C179.155 103.98 180.462 105.804 181.316 107.732C182.17 109.658 182.57 111.691 182.305 114.607Z" fill="white"/>
<path d="M148.305 125.05C147.691 124.931 147.398 124.888 145.96 124.557L145.959 124.559C144.826 124.331 144.013 124.091 143.275 123.309C141.749 121.694 140.93 119.663 139.97 117.723C138.274 114.293 136.695 110.807 134.988 107.383C133.35 104.098 126.167 88.334 124.286 84.4815C124.14 84.1838 124.012 83.8266 123.609 83.7962C123.145 83.7607 122.98 84.1597 122.83 84.4714C121.343 87.5562 113.002 106.897 110.3 112.697C108.982 115.527 107.588 118.321 106.342 121.187C105.871 122.272 104.472 123.364 103.381 124.025C102.444 124.593 101.399 124.83 100.332 124.969C100.017 125.011 99.571 125.012 99.5925 125.345C99.6141 125.682 100.072 125.716 100.351 125.718C102.272 125.725 112.948 125.719 112.948 125.719C113.175 125.716 113.615 125.61 113.621 125.191C113.627 124.766 112.246 124.88 111.603 124.749C110.481 124.519 109.328 124.263 108.938 122.938C108.678 122.057 108.842 121.171 109.139 120.358C110.252 117.326 111.632 114.443 113.053 111.554C113.468 110.712 121.551 92.9429 121.809 92.3981C121.932 92.1384 122.305 92.1498 122.409 92.4184C123.093 94.1755 135.402 120.952 135.617 123.648C135.668 124.289 135.429 124.419 134.983 124.528C134.492 124.648 133.989 124.727 133.494 124.835C133.183 124.902 133.024 125.162 133.05 125.425C133.074 125.682 134.145 125.72 134.433 125.72C138.78 125.72 143.539 125.723 147.493 125.72C147.497 125.72 147.5 125.719 147.504 125.719L148.611 125.723C148.619 125.455 148.67 125.121 148.305 125.05Z" fill="white"/>
<path d="M196.399 123.217C196.169 125.133 193.918 124.577 192.03 125.093C191.672 125.192 191.522 125.305 191.25 125.688C191.294 125.705 191.339 125.737 191.385 125.737C195.66 125.731 207.775 125.719 207.775 125.719C207.78 125.454 207.831 125.137 207.466 125.066C206.852 124.946 204.913 124.912 204.302 124.768C203.065 124.476 202.498 124.197 202.477 122.963C202.447 121.292 202.568 87.9315 202.565 86.6646C202.564 86.0768 202.692 85.6536 203.45 85.5257C204.772 85.304 204.572 85.3344 205.642 85.0785C206.228 84.9379 206.613 84.4818 206.613 84.4818C206.613 84.4818 206.584 84.2411 206.008 84.2424C203.45 84.2512 201.536 84.2272 199.492 84.2297C197.324 84.2272 195.252 84.25 192.696 84.2424C192.121 84.2398 191.713 84.5515 191.25 84.8124C191.86 84.948 192.467 84.9759 193.062 85.0785C194.367 85.304 194.367 85.304 195.689 85.5257C196.447 85.6536 196.575 86.0755 196.574 86.6646C196.571 87.7528 196.698 89.7228 196.765 90.5196C196.926 92.1095 196.832 93.7108 196.958 95.3058C197.116 97.3379 197.039 99.3838 197.107 101.426C197.258 105.926 197.015 110.423 196.864 114.922C196.782 117.345 196.689 120.81 196.399 123.217Z" fill="white"/>
<path d="M178.812 72.1147C178.957 72.2275 179.112 72.2591 179.233 72.1515C179.293 72.0983 179.304 71.893 179.25 71.8259C178.709 71.1519 178.714 70.2524 178.262 69.5354C177.276 67.9708 176.353 66.367 175.37 64.8012C171.337 58.3668 167.702 51.6765 163.05 45.6361C161.295 43.3583 159.729 40.9348 157.785 38.8027C157.112 38.0641 156.813 38.1034 156.233 38.8813C155.172 40.3039 154.135 41.7482 153.02 43.1265C150.732 45.9541 148.71 48.9654 146.794 52.0464C144.81 55.2364 142.94 58.4973 140.946 61.6796C139.189 64.4832 137.326 67.2208 135.515 69.9902C134.581 71.4167 133.72 72.89 132.496 74.39C134.18 73.6083 135.293 72.4707 136.368 71.347C137.907 69.7381 139.275 67.9607 140.773 66.3163C143.029 63.8383 145.104 61.2197 147.208 58.6214C150.257 54.8563 153.272 51.0621 156.322 47.297C157.135 46.2936 157.213 46.3215 158.099 47.3033C158.182 47.3945 158.241 47.5073 158.318 47.6048C161.166 51.1964 164.005 54.798 167.199 58.0919C169.986 60.9651 172.163 64.3299 174.777 67.3399C175.812 68.5333 176.583 69.9522 177.852 70.9467C178.127 71.1291 178.277 71.4674 178.626 71.556C178.236 71.8968 178.614 71.9627 178.812 72.1147Z" fill="white"/>
<path d="M215.566 74.3609C215.496 73.8567 215.013 73.6844 214.74 73.3411C212.948 71.0759 211.3 68.7107 209.635 66.3506C207.524 63.3582 205.497 60.3064 203.331 57.3508C202.073 55.6317 200.974 53.8011 199.566 52.182C198.596 51.0672 197.453 50.0474 196.968 48.569C196.869 48.2662 196.539 48.1484 196.305 48.1319C195.365 48.066 194.8 47.4503 194.212 46.8448C192.9 45.4968 191.93 43.8879 190.803 42.3981C189.564 40.7613 188.115 39.3361 186.53 38.0439C186.291 37.8488 185.974 37.6106 185.67 37.7335C185.307 37.8805 185.415 38.315 185.346 38.633C185.326 38.7242 185.335 38.823 185.341 38.918C185.368 39.2588 185.284 39.6097 184.954 39.6933C184.716 39.7542 184.418 39.5755 184.235 39.3538C183.498 38.4632 182.744 37.584 182.044 36.6643C179.851 33.7797 178.04 30.6379 176.013 27.6405C173.035 23.2381 170.011 18.8649 167.209 14.3461C164.447 9.888 160.995 5.90246 158.358 1.35318C157.298 -0.476163 156.732 -0.434357 155.614 1.36331C153.597 4.6052 151.36 7.69507 149.194 10.8343C144.591 17.5056 139.689 23.9653 135.248 30.7519C133.245 33.8126 131.125 36.8024 128.576 39.4552C127.718 40.347 127.674 40.3622 126.729 39.3146C125.6 38.0616 125.336 38.0743 124.242 39.4641C124.013 39.7542 123.815 40.0683 123.604 40.3737C121.482 43.4585 119.353 46.5394 117.24 49.6306C114.664 53.3969 111.814 56.9695 109.369 60.8296C107.529 63.7345 105.628 66.6014 103.737 69.4734C103.02 70.5616 102.593 71.7676 101.968 73.1561C104.33 71.2014 105.956 68.9362 107.855 66.9257C109.167 65.5372 110.401 64.0728 111.56 62.5462C112.874 60.8131 114.121 59.0117 115.595 57.423C116.633 56.3031 117.956 55.4417 119.041 54.3294C120.604 52.7268 122.212 51.1635 124.344 50.3071C124.351 50.3565 124.386 50.4262 124.369 50.4781C123.219 53.9936 122.267 57.5826 120.473 60.8575C119.658 62.346 118.956 63.8789 118.61 65.6272C120.09 65.0191 120.783 63.8029 121.485 62.645C122.7 60.6396 123.822 58.5771 124.981 56.5362C126.371 54.0874 127.846 51.6804 129.126 49.1745C130.706 46.0821 132.574 43.1683 134.454 40.266C136.447 37.19 138.652 34.2522 140.682 31.2003C143.69 26.6777 146.698 22.1537 149.544 17.5246C151.903 13.6873 154.344 9.9032 155.918 5.64402C156.126 5.08281 156.233 4.35943 156.977 4.13266C157.939 6.21918 158.743 8.34243 159.899 10.3099C161.659 13.3072 163.393 16.311 165.446 19.131C168.502 23.3294 171.446 27.6113 174.445 31.8515C176.838 35.2365 179.26 38.6001 181.634 41.9978C182.971 43.912 184.119 45.9618 185.611 47.7645C187.828 50.4439 190.03 53.136 191.944 56.0409C193.443 58.3174 194.728 60.7371 196.477 62.8439C196.953 63.4178 197.425 64.0386 198.229 64.4414C198.091 64.1323 198 63.9486 197.938 63.7408C197.374 61.8494 196.497 60.0796 195.575 58.3529C194.478 56.2968 193.27 54.3015 192.434 52.1162C192.204 51.5131 191.992 50.8949 192.191 50.2083C192.668 50.2564 192.857 50.6175 193.004 50.938C193.647 52.3505 194.516 53.6376 195.225 55.0122C195.306 55.1693 195.337 55.2922 195.536 55.258C195.726 55.225 195.649 55.0654 195.678 54.959C195.804 54.4978 195.571 54.1216 195.383 53.7365C195.176 53.3159 194.951 52.8978 194.941 52.4202C194.938 52.2606 194.883 52.0199 195.118 51.9363C195.309 51.8678 195.399 52.049 195.503 52.1491C197.195 53.7884 198.796 55.5126 200.113 57.4724C201.934 60.1822 203.701 62.9199 205.966 65.3067C207.819 67.2576 209.552 69.3213 211.338 71.3344C212.489 72.6304 213.831 73.6907 215.341 74.5408C215.457 74.5345 215.532 74.4724 215.566 74.3609Z" fill="white"/>
<path d="M160.931 23.6446C161.302 23.4318 161.402 23.8271 161.604 23.9728C162.18 24.3883 162.622 24.9926 163.403 25.3296C162.05 22.3284 161.65 22.2232 159.195 20.0088C158.938 19.7769 158.64 19.5476 158.49 19.2512C158.047 18.3872 157.731 18.3859 157.094 19.16C154.485 22.3372 152.403 25.8946 149.884 29.1377C147.989 31.5777 146.239 34.1279 144.462 36.6565C142.097 40.0226 139.704 43.3645 137.625 46.9231C134.213 52.7634 130.753 58.5744 127.29 64.3842C127.029 64.8226 127.141 65.4826 126.848 65.6967C126.263 66.1262 126.296 66.6152 126.296 67.1789C126.641 67.1827 126.87 67.0674 127.042 66.8027C127.751 65.7068 128.661 64.7681 129.453 63.7331C131.183 61.4692 132.708 59.0533 134.736 57.001C136.087 55.6341 137.085 53.9251 138.339 52.453C140.878 49.4771 143.32 46.424 145.73 43.3443C149.288 38.795 152.41 33.9214 156.038 29.424C157.416 27.7163 157.088 27.6809 158.688 29.4304C158.73 29.476 158.771 29.5279 158.797 29.5849C159.677 31.4181 161.012 32.9573 162.296 34.475C164.957 37.6206 167.147 41.1095 169.769 44.2817C171.959 46.932 173.922 49.7672 176.041 52.4771C177.324 54.1189 178.811 55.5961 179.973 57.3405C181.643 59.8451 183.34 62.3319 185.022 64.8276C185.926 66.168 186.821 67.5146 188.308 68.4331C187.237 64.3614 185.016 60.9207 183.114 57.3443C181.202 53.7502 179.516 50.0269 177.145 46.6812C174.755 43.3088 172.476 39.8642 169.878 36.6375C167.323 33.4653 164.604 30.4375 161.764 27.5098C161.839 27.4439 161.913 27.3781 161.988 27.3122C163.032 28.1686 164.077 29.025 165.296 30.0245C164.538 28.4359 163.378 27.5352 162.417 26.4621C161.864 25.8452 161.174 25.2941 160.935 24.4542C160.865 24.2147 160.485 23.9005 160.931 23.6446ZM166.285 37.3077C166.581 37.7498 166.861 38.2034 167.155 38.6468C167.254 38.7963 167.488 38.9483 167.318 39.1168C167.173 39.2612 166.889 39.2701 166.714 39.1193C166.465 38.9039 166.222 38.6645 166.04 38.3921C165.37 37.3938 164.729 36.3766 164.072 35.3694C163.883 35.0793 163.98 34.7639 163.935 34.2647C164.976 35.2605 165.61 36.3005 166.285 37.3077Z" fill="white"/>
<path d="M59.4618 150.466L55.0531 143.164L53.5781 154.462H55.452L56.1888 147.914L59.4618 153.464L62.7498 147.914L63.4867 154.462H65.3606L63.8868 143.164L59.4618 150.466Z" fill="white"/>
<path d="M74.9323 143.702H73.8105V154.462H74.9323H75.5932H80.3551V152.863H75.5932V149.482H80.0474V147.913H75.5932V145.301H80.3551V143.702H75.5932H74.9323Z" fill="white"/>
<path d="M94.2127 143.502C93.4239 143.502 92.6895 143.638 92.0084 143.91C91.3272 144.182 90.7359 144.566 90.2346 145.063C89.7319 145.559 89.3407 146.15 89.0596 146.83C88.7773 147.512 88.6367 148.262 88.6367 149.082C88.6367 149.892 88.7773 150.638 89.0596 151.32C89.3407 152.001 89.7332 152.593 90.2346 153.095C90.7359 153.596 91.3272 153.981 92.0084 154.247C92.6895 154.513 93.4239 154.646 94.2127 154.646C95.0015 154.646 95.6586 154.549 96.1865 154.354C96.7145 154.159 97.1982 153.878 97.6388 153.509V151.341C97.3931 151.639 97.1057 151.902 96.7791 152.133C96.4512 152.364 96.0802 152.546 95.6649 152.679C95.2496 152.812 94.7862 152.879 94.2747 152.879C93.6189 152.879 93.0149 152.721 92.4616 152.403C91.9084 152.086 91.4601 151.642 91.117 151.074C90.7739 150.505 90.603 149.841 90.603 149.084C90.603 148.315 90.7739 147.646 91.117 147.078C91.4601 146.509 91.9084 146.069 92.4616 145.757C93.0149 145.444 93.6189 145.288 94.2747 145.288C94.7862 145.288 95.2509 145.355 95.6649 145.488C96.0802 145.621 96.4512 145.804 96.7791 146.034C97.107 146.265 97.3931 146.523 97.6388 146.811V144.659C97.1982 144.28 96.7145 143.992 96.1865 143.797C95.6586 143.599 95.0015 143.502 94.2127 143.502Z" fill="white"/>
<path d="M104.997 145.377H107.839V154.462H109.653V145.377H112.494V143.702H104.997V145.377Z" fill="white"/>
<path d="M128.68 145.093C128.172 144.597 127.581 144.206 126.906 143.925C126.23 143.644 125.487 143.502 124.678 143.502C123.889 143.502 123.155 143.643 122.474 143.925C121.792 144.208 121.199 144.597 120.691 145.093C120.184 145.59 119.792 146.176 119.516 146.853C119.24 147.529 119.101 148.273 119.101 149.081C119.101 149.881 119.239 150.624 119.516 151.311C119.793 151.998 120.182 152.592 120.683 153.095C121.185 153.596 121.776 153.989 122.457 154.27C123.138 154.551 123.878 154.693 124.677 154.693C125.496 154.693 126.244 154.553 126.92 154.27C127.596 153.989 128.185 153.596 128.686 153.095C129.188 152.593 129.578 151.999 129.854 151.311C130.13 150.624 130.269 149.882 130.269 149.081C130.269 148.272 130.131 147.529 129.854 146.853C129.578 146.176 129.186 145.59 128.68 145.093ZM127.865 151.05C127.552 151.624 127.121 152.077 126.574 152.411C126.026 152.744 125.394 152.91 124.677 152.91C123.97 152.91 123.342 152.744 122.795 152.411C122.247 152.077 121.814 151.624 121.497 151.05C121.18 150.476 121.021 149.82 121.021 149.082C121.021 148.345 121.18 147.686 121.497 147.107C121.815 146.528 122.247 146.075 122.795 145.747C123.343 145.419 123.97 145.255 124.677 145.255C125.403 145.255 126.041 145.419 126.59 145.747C127.138 146.075 127.566 146.528 127.872 147.107C128.18 147.686 128.333 148.345 128.333 149.082C128.333 149.82 128.177 150.476 127.865 151.05Z" fill="white"/>
<path d="M154.957 143.502C154.168 143.502 153.434 143.638 152.753 143.91C152.071 144.182 151.48 144.566 150.979 145.063C150.476 145.559 150.085 146.15 149.804 146.83C149.521 147.512 149.381 148.262 149.381 149.082C149.381 149.892 149.521 150.638 149.804 151.32C150.085 152.001 150.477 152.593 150.979 153.095C151.48 153.596 152.071 153.981 152.753 154.247C153.434 154.513 154.168 154.646 154.957 154.646C155.746 154.646 156.403 154.549 156.931 154.354C157.459 154.159 157.942 153.878 158.383 153.509V151.341C158.137 151.639 157.85 151.902 157.523 152.133C157.195 152.364 156.824 152.546 156.409 152.679C155.994 152.812 155.53 152.879 155.019 152.879C154.363 152.879 153.759 152.721 153.206 152.403C152.653 152.086 152.204 151.642 151.861 151.074C151.518 150.505 151.347 149.841 151.347 149.084C151.347 148.315 151.518 147.646 151.861 147.078C152.204 146.509 152.653 146.069 153.206 145.757C153.759 145.444 154.363 145.288 155.019 145.288C155.53 145.288 155.995 145.355 156.409 145.488C156.824 145.621 157.195 145.804 157.523 146.034C157.851 146.265 158.137 146.523 158.383 146.811V144.659C157.942 144.28 157.459 143.992 156.931 143.797C156.404 143.599 155.746 143.502 154.957 143.502Z" fill="white"/>
<path d="M169.06 143.702H167.278V155L175.128 147.322V154.462H176.911V143.164L169.06 150.83V143.702Z" fill="white"/>
<path d="M186.436 150.296C186.436 150.675 186.403 151.023 186.336 151.341C186.269 151.659 186.172 151.935 186.044 152.171C185.916 152.406 185.759 152.589 185.575 152.717C185.391 152.845 185.177 152.909 184.93 152.909V154.463C185.677 154.463 186.295 154.294 186.781 153.956C187.267 153.618 187.628 153.144 187.863 152.534C188.099 151.925 188.217 151.221 188.217 150.421V145.379H192.502V154.464H194.348V143.703H186.436V150.296Z" fill="white"/>
<path d="M208.727 148.183C208.154 147.912 207.472 147.775 206.684 147.775H205.255V143.701H203.442V154.462H204.517H205.254H206.682C207.471 154.462 208.152 154.326 208.726 154.054C209.299 153.783 209.748 153.395 210.07 152.893C210.393 152.392 210.554 151.796 210.554 151.11C210.554 150.423 210.393 149.831 210.07 149.335C209.749 148.838 209.301 148.454 208.727 148.183ZM208.497 152.088C208.322 152.349 208.081 152.544 207.775 152.672C207.467 152.8 207.104 152.864 206.685 152.864H205.257V149.374H206.685C207.105 149.374 207.469 149.439 207.775 149.567C208.083 149.695 208.323 149.89 208.497 150.151C208.67 150.412 208.758 150.732 208.758 151.111C208.758 151.501 208.67 151.827 208.497 152.088Z" fill="white"/>
<path d="M226.21 147.852H220.802V143.702H218.989V154.462H220.802V149.527H226.21V154.462H228.023V143.702H226.21V147.852Z" fill="white"/>
<path d="M242.372 148.183C241.798 147.912 241.117 147.775 240.328 147.775H238.9V143.701H237.087V154.462H238.162H238.899H240.327C241.116 154.462 241.797 154.326 242.37 154.054C242.944 153.783 243.392 153.395 243.715 152.893C244.038 152.392 244.199 151.796 244.199 151.11C244.199 150.423 244.038 149.831 243.715 149.335C243.393 148.838 242.945 148.454 242.372 148.183ZM242.141 152.088C241.967 152.349 241.726 152.544 241.42 152.672C241.112 152.8 240.749 152.864 240.329 152.864H238.901V149.374H240.329C240.75 149.374 241.113 149.439 241.42 149.567C241.727 149.695 241.968 149.89 242.141 150.151C242.315 150.412 242.402 150.732 242.402 151.111C242.402 151.501 242.315 151.827 242.141 152.088Z" fill="white"/>
<path d="M247.334 143.702H245.49V154.463H247.334V143.702Z" fill="white"/>
<path d="M264.187 143.702H261.975L259.917 147.329L257.904 143.702H255.707L258.903 148.867L255.323 154.462H257.52L259.902 150.327L262.206 154.462H264.418L260.931 148.867L264.187 143.702Z" fill="white"/>
</g>
<defs>
<clipPath id="clip0_20_37">
<rect width="332" height="168" fill="white"/>
</clipPath>
</defs>
</svg>
